<mxfile host="app.diagrams.net" modified="2023-01-18T15:46:57.203Z" agent="5.0 (Windows)" version="20.6.0" etag="7AXMrD2LMBfbHjNIbNzu" type="github">
  <diagram id="M0cme7V4X_1_sx1GBbja" name="Page-1">
    <mxGraphModel dx="1185" dy="603" grid="1" gridSize="10" guides="1" tooltips="1" connect="1" arrows="1" fold="1" page="1" pageScale="1" pageWidth="850" pageHeight="1100" math="0" shadow="0">
      <root>
        <mxCell id="0" />
        <mxCell id="1" parent="0" />
        <mxCell id="_PTKki71gtKEzDjIChdN-20" value="storage 13TB" style="shape=image;html=1;verticalAlign=top;verticalLabelPosition=bottom;labelBackgroundColor=#ffffff;imageAspect=0;aspect=fixed;image=https://cdn1.iconfinder.com/data/icons/bootstrap-vol-2/16/device-ssd-128.png;strokeColor=#000000;" vertex="1" parent="1">
          <mxGeometry x="692.5" y="222" width="30" height="30" as="geometry" />
        </mxCell>
        <mxCell id="_PTKki71gtKEzDjIChdN-23" value="&lt;font style=&quot;font-size: 10px;&quot;&gt;RAM 496GB&lt;/font&gt;" style="shape=image;html=1;verticalAlign=top;verticalLabelPosition=bottom;labelBackgroundColor=#ffffff;imageAspect=0;aspect=fixed;image=https://cdn1.iconfinder.com/data/icons/DarkGlass_Reworked/128x128/devices/Ram.png;strokeColor=#000000;" vertex="1" parent="1">
          <mxGeometry x="450" y="210" width="54" height="54" as="geometry" />
        </mxCell>
        <mxCell id="_PTKki71gtKEzDjIChdN-13" value="CPU 220 Core" style="pointerEvents=1;shadow=0;dashed=0;html=1;strokeColor=none;fillColor=#000000;labelPosition=center;verticalLabelPosition=bottom;verticalAlign=top;align=center;outlineConnect=0;shape=mxgraph.veeam.cpu;" vertex="1" parent="1">
          <mxGeometry x="692.5" y="320" width="40" height="40" as="geometry" />
        </mxCell>
        <mxCell id="_PTKki71gtKEzDjIChdN-25" value="9 cluster activated" style="sketch=0;pointerEvents=1;shadow=0;dashed=0;html=1;strokeColor=none;fillColor=#505050;labelPosition=center;verticalLabelPosition=bottom;verticalAlign=top;outlineConnect=0;align=center;shape=mxgraph.office.servers.cluster_server;fontSize=10;" vertex="1" parent="1">
          <mxGeometry x="450" y="320" width="49" height="59" as="geometry" />
        </mxCell>
        <mxCell id="_PTKki71gtKEzDjIChdN-27" value="" style="shape=image;verticalLabelPosition=bottom;labelBackgroundColor=default;verticalAlign=top;aspect=fixed;imageAspect=0;image=data:image/png,iVBORw0KGgoAAAANSUhEUgAAAqoAAAGQCAYAAABmjEI8AAAgAElEQVR4XuydBWAdx9HHxxZZlpmZmZmZmWIINGVu0y9NU26TtMG2aZtimpQbsmNmZmZmZmYS+5vfPq18fpYsepL1pL1UlfXewd7c3Ox//gNb4J5u4jYnAScBJwEnAScBJwEnAScBJ4FcJoECDqjmsifihuMk4CTgJOAk4CTgJOAk4CRgJOCAqlMEJwEnAScBJwEnAScBJwEngVwpAQdUc+VjcYNyEnAScBJwEnAScBJwEnAScEDV6YCTgJOAk4CTgJOAk4CTgJNArpSAA6q58rG4QTkJOAk4CTgJOAk4CTgJOAk4oOp0wEnAScBJwEnAScBJwEnASSBXSsAB1Vz5WNygnAScBJwEnAScBJwEnAScBBxQdTrgJOAk4CTgJOAk4CTgJOAkkCsl4IBqrnwsblBOAk4CTgJOAk4CTgJOAk4CDqg6HXAScBJwEnAScBJwEnAScBLIlRJwQDVXPhY3KCcBJwEnAScBJwEnAScBJ4HHBlR16VYpUKCA8Nt/837Ov7OyPeo69rz2elm9VkbHae/dXt/+XbBgwWS55PSYMnoPbv/sl0BqOhxIvU3P++h0MfuftbuCk4CTQO6RQE7bRX9M4JVEIHFR7pFw+kaS40DV+yASExOFn5CQEANa2eLj4wWgFiiw5lW0lEAx1w/k9dIn9kfv5R2zAweBkGhwnyMlHUYvAgVU7fnt+xgaGposMP/30eljcOtSTo8+LfvLeAKpy977814b3bYb9j5Q705Oy9NdL+ck4NWfhISEB3AKf7OBXex+WR2Z//UsLuG8/lgpUNfM6phz6vgcBape4VqAaG/U/2+rGHyfEw/Fe/2cuJ69L3v/cXFxsmXLFqlevbpUrFgxR+45p5TMXSd3SsDfacQw2s3/HbDvh/eY3HlXblTBJoHsICcsAEZv0VkAhXdjfvHqu3PAgk1rsm+8/qymVzf87V+g7KK/U2X1lc/5sbpq9Ta/OVo5ClQtOLOCv3Xrlnz66aeyaNEiOXHihBQrVkwGDhwoTzzxhFSqVEm8xsT7YLzMaFoPzCrSkiVLZObMmckGyxqvWrVqyahRo6RcuXLGa/H37lOi4v1TFvzHkJ5jvAAdpfzBD34gv/nNb6Rdu3bCWCMjI80uXmbZGl8viEgpNOEvq9TGa8+Xfa+8O3MgJGB1+ODBg/K3v/3N6MT3vvc9qVChgtFZa8TS0rvUQkf2HNeuXZNPPvlE5s6dKxcvXpTixYvL4MGD5amnnpIyZco8cK1A3Jc7R96XgNc+3bx5U3DILaOJ3mHnrK3zJysyI53UyJD9+/cL18fWNm/ePNmuWhCSU+REZu7JHfN4JGB1IjY2ViZOnCgzZsyQkydPGn3t27evjBs3TmrWrPmQXUwNn6Rkn71zsPf71atXy+TJk2XTpk0GB6GzY8eOle7duz9AYuUXBytHgSoPwob6Aaaf+cxnZOXKlQ9pIeDx73//u/Tq1SsZrPKwvCASg2Pp90d5xnjrhDJ/8YtfyCuvvJKixjdq1EjGjx8vTZo0ST6nBYnea1qgzT3Y8Kh3XOzL3xaIez0ha4Tt/Vsqn2MY/3//+1/5v//7P/MCfPDBBxIREZGcp+o17N5zesdj0ydSkokNe9kwhXUAApVe8XjMSP65qtXhefPmGUeObePGjdKmTZtkfUUv0El+p/R8LbPkv4+V4tmzZ+XJJ5+UVatWPSTYtm3bGoeyWrVqybqdXwxk/tGy7LlTa/euX78un/3sZwXAyIZOo0OQE+jxL3/5SylfvnzypG+ZJO/knZLO2f3shO8Fnti3zZs3y89//nPZsGGDXL58WcLDw6Vly5byzW9+08w//sdljxTcWYNJAlan0CXItC9+8YsGNHoBKPcDSMUuok9Wjyy4Rff852LOZ+2wnfftPpZEYI5+//335bnnnhMAsnfju9/+9rfmO0u0BZNcszLWHAWqFjDdvXtXhg8fLosXLzaG6stf/rI0bdpUjh07Jv/+978Nu4rR2rZtm/mdkoGKjo6WQoUKmXt/lDdsUwjefvtt+dGPfmQm2x/+8IfGKzpw4IC8++67cuXKFTNJf/TRRw+Eg6xg7Tn82Ss+t4D1UWyA//i8aQ1cI6Vj/T+zYMX7sP3PC1sRFhZmdknpnP7ncCxCVl6dnDvW6gvvy4ABA4zOrV27Vlq0aPHAc04tnSY1lok7sDrzk5/8RN58800TWXjxxReNw4Q3j3N3+vRpeemll4yz5w3T5pwE3JWCVQJWdwGJnTp1MjYXux0VFSXMA3fu3DG31qxZM1mxYoWZD2xky0tAWJvmJQ78nXb2sUQBk/ru3bulX79+ghPGNTt27CiHDx828wsb0QNYMf/8w2CVtRt3YCRgnX3sLKDxG9/4htFXfo8ZM0YOHTokr732muzZs0eefvpp+d///md01j+33/t3SnOydz62IPj48ePSunVrg0nQ3e9+97tSuHBhE0mDTOPf+/btk8qVKz+QEhCYO8+9Z8kxoOplUxcuXGgeAqDqj3/8o3z9619PlhCTY58+fQQP3E6O69atk+eff15q164t3/nOd4RJ9fz58wZsvvDCCyY0aUGwv6gxQlyHsDrhdSZ3ckEt+OW8f/rTn0yqAcAYBfnc5z5nGE2U5NVXXzXgFgCNEV2zZo2ZsI8ePWom7Xr16pm/27dvby7NmBcsWGDGyRj/85//GIX66le/Kl/4whfkK1/5iuzatcsoNfeNt4ZR/ec//2muAbvwzjvvmPGdOXPG3CvsGfIg/ArAB3AzPgw552IfwsIY/ho1asjPfvYzI0PGx7Vhpzk/4VyOY1KAZbBAxxr/3Kum+XtkXqAKgER31q9fn+zJT5gwwegMEzLPF50EdBIhsMZw0qRJxhs/d+6cYZXq1Kkjr7/+utEBdASDS3irf//+MmvWrOT3AyMMm4A+ffvb305+EI5Rzd86md67t84TdhXdxca+/PLL8qUvfcnoJrqFPcNhwv5he61uYWPRV+wchAW2zX/CZx/sLBupMOxjr4ktBlDw2YcffihEBi5cuGDsOu8DtpTfNrLkD4zTe49uv7wlAYtV0Ad0E9vaoEEDgxts7ihzPCQX9hPiC0cI3WIuhr1nvi5btqwhwLCbYBCOxWH78Y9/bOw3qVbsA/iFJQWELl26VIYMGWLm8uXLl0uXLl3M+3Djxg2DKdBtrtewYcN8xarmGFBFlTFMPCyA1BtvvGEmVB4q3ooNoTOJjhgxQqZPn27yMXhwAFsmUJQBsHbq1KnkNwMFAMh66feUXhsLVAFpgE2uyQbT+v3vf19Kly5tPHDYIzwaNoApCoL3gie+c+dO6dmzpwkHUPAEUD5y5IgBB4yzQ4cOMmzYMDPRY1itAeVcKBtglrF6t/nz5xvQbhmtzp07m/Aris7nyAeWixeCa2DQyVXBu9q7d69Jj+A6pUqVMvvhbbGRT4PC/+EPfzCGmQ2lB6wSfkOWeITWsPsXG+Qt0xPcd+MPVHlW6BF6ihG1zxf9w7mBMUIfSKvBoGFQv/WtbxkhoIPoC9ELclBhsXgncNjQlRIlShiHirxtGLBHFVgFt1Td6HNCAl6girOzdetW+f3vf2/SnLCJMTExxrZhk3DaYbDIJYXJRx+94VYmaD7H5sPEki6A8+Xdh9xtPsc282+IkLp16wo5f7wTbACK2bNnGwKCOcamwzjnKyc0Ivdfw6bloReQWNhGcAmEGHNvjx49kqO53A37M69269bNEEbYVWwq9hfdxD6DM3DW0Dfm7aJFixrMgv1lH1JR0FVwBg4VuIP5GseNeRwnLD9vOQZUvYwqDxv2hgexbNmyZA/aGjUMjWUpmZABaABVQBoPHSOHwSNlAA8F44WXDoAE4FnDw/kwangtv/71r40nQj4qIK5IkSJmUsc44uVTxIQx47y9e/c250Ih//rXvxqlpBp/9OjRMmXKFHN9AAIbzNVPf/pTUwDGPaHM5K3A0LIv1wG8Ei7g2nPmzDHXhcGC5seYMjaYW+6Za+Ot4U1h2AElHAMgZWzcJwCfYwAfhASeeeYZwxiwvffee0bpu3btauTGi0GYmHwsGAs2WGgALc6Cf/g4P78MufXeUwKqODA8u7feesvoC+8CeoAnXr9+fZP0j+4SrvrVr34l5Ld+/vOfN4aP94h9YKMADRhiQrK8l9u3bzdisDpv2XdSc7z5grlVVm5cuUsCKQHVP//5z8ZGAQwBjUSRIB9gngCn2CUiPhAF/L59+7bRYcApkSEcKQAqETIIB/ZBp3kXsNs4Zl/72tcMW4tOo7fYY/4NCYJzjj1nc+lPuUtfcsNovDmq4Avmagq+baoJualEd5n3mWfRY0gf8AWEF9gAh585mn2Y95mDIcGYe0uWLGnsrt0Xoow5HdDKZ+g/mAadZoMo4xgisNhwb6F1bpBXTozhsQBVDA0hcUAUQNUWf1ijxoPDEMEQ8YABXAA1qHE8DutdAC4Ji8NGEuLBQGG8mGRRKh404SYMFoCS/fCMMIAwRRhJNsAg4VPAJmwrYBFPn0R8y9SyL6FUPCeoehsyhb2CBSA0wP4AA8KlUPl4SGx4RHjwjA2DywYzy71b0GuLvQCnMMgADcuQkVsFuwU7NnLkSMMMkKMLeEAeFNgA+pEjXhsvAeAc8EF4F28OReeFQ+lhai1r7Ax1TrxmWbtGaqF/dBAjSdI9ugR4xSHCYQKw8j6QcsI+RDPYh5ATOsM+TOowBjg87HPp0iXjXOEckq9tk/lxtugEgI7ZqIhjn7L2TPPL0V6gig3HEXr22Wdl0KBBRv/QN5wo7BBgALuIHUVHsbf8sBEJIC2MsClEBmFYdB2bSEU0G/rJfEGONaAVXWUeIZqGXbQb4Jb3gvPwb2sDnU7nF61M331avcCWYi/RS+Z2QvZ2I88ZB8hGnmBUIZkArmAJbDIYAjIBEMqGbmOLieBia/lhLkf/mbfZwDx8Di7ZsWNHMklAKgHF1rbAOr/obI4BVYTvH/rHyPAg8RBsLh2gkYIRHiwAD/aTBwjghC4HfBHiBkhimDBYeC0AVR4gRslWt2MkMXx46V6gyvE8aAArIXpYWtrwoJgAXyh8QC6GkPAQykD+HywU3j2gD6bWJlBzHs6JUpHWAHMJUwoo5ViMMiF+xolxtACa0ADX/t3vfpfclQAQyb5stNMCaAIu7IYMAPIYY7ojkMPlHQ/3hTeHASY9AFCPJ0YhjgXmnIt7/Pjjjw3TkFJRQvpeZbdXTkggJUYVnWjVqpXRHdh4jCfPvkqVKsaZskCVZ4/DhId+9epVo49Vq1Y1oBSGCqAKk4Veo9M4cugD3j8hKhwpfqPD6KPdXD5fTjz54L+GF6hCTJBTn9JGPik/thoadgmCAbuFHcbes8Ge4tSzH/YToMv8wD4472yWuLCTOCAVkItdBiRg49kgDmCv2OzEH/wSd3eQVQlYgGrJLuyvZTGJhkIiMf8SgW3cuHFyvikEFo4Sx4EHiOyyP44UuoqNBdSS2sc+gFLsLbYWhwzwylyOAwemYMOukwqDneYHHQcfgIe8xdxZvefcfnyOAVVvJR0PCsqcidG2W7CCwhsBNPJQbUifBwN4hdkBqJIfiuEin9O2HwEAsnkrn73/tqF/wDGhdAAfuaWck81WPwOcMaicn2tRdMKGscPrAbACiKkWZaLHwAEAUDjyZ6HmCcNbAMqxMJ6wBrABGEZAOawtxtgfqKKAgHSuz/jYF8+LXFgMN0wXLwAGHMCK0YVBBWyg4MiUsfKbXBnGxRhhfgn3M1FYYENyNiA+pY4CuV1x89P4/IEqzxMvGx0mDMX3TN6kphBmgmmFuSJqgbPH+4J+M8mjtxhX8qCYvEkdIW0AIErajA0vWfkCHnCWYOAxzOiVY+Hzk/Zl7V69QBXSAL3FbhMNQ28Jw2NXiSTZkCthe0L8/E1UCdtP0RO2Cx1mXiByRZEo+3AubCx1DaRxWaCKfjOP8D7gvFs7D4lAtIFr4/ARoXpU15asScAdHWwSsF0nGDepUrCkpO8R2rcOOhiAyDC2FUceO8lcalutMb8TRSVKi36DK9BLiAUYVuZgGz3l3OAS9BWyi5QtCCTstwWsEA+QEABX9J5x2dTGYJNvZsabY0DVgkh+A4x4gBQd2Wb3GBvoch4keSEkwBMCJ5cIjxlDxMTMPrCEhCUBuzCqsJjkbqYEuCwABRBTwUfOHUAZD8mCZ9vDDACIQqFknJ9rkYtimWDCRf/4xz/MpM75MHAwuHxG8QkpAOS8wlSS98d3bIAFwDbXR0E5H8wpXhaMFaF5PgdsEx5jX5r+Q/MDVgGnMKAYa4AGCgoQ4UVA+TH8f/nLX4wiAzwYG+f517/+ZXJm8dTICWM8gGomDI4H3OKlOaCamVcn546xQBWdYNLGWJKvjBPCe4KzhS7wPsCio4PoPZM9jg/pHug77xvPHocHQ4czhHFl0icHnPeNCAKgl0gDbAA6iZOD3hHmsnmqjlHNuecfzFdKKUcVhh/b4w1bWhuLzuFsQQKgy9hV9rOpUkTOcLCJCuCYYxthqdgHm8pcgU3EngJymR8AAoRurc5aW0tECgbMAdVg1rDAjx2dxc6BTbCN1H2APdAb7C1gEeKLORTcwjzOfvRCZ84GYLIPfYOxqWAO9AxSCoyATqO3FEwBdiHOIA/Yhx/LlkIgsC/vBpED0g4YF9cjFZBx5pci6BwFqt62D4SseUg2zO1VNwwVkyIPmI38OMAhGzQ53gaTLPvBNOIhA/assfOey9LjNgcUA4dXb/v12Ub5FqzBGpFSwEYlKknOTPqAWMJLjIPfbAAEjCUbIBLwPXToUAMIALUoOBtKhQLafFTOh+fFOGhXhfJ6V6bCy0eJYchQdDZAqO12YM8Nuwv7DGhhgzWw+TMwBrBjnBuGgo1QA6wZIBwmDtnDGOcnhQ+8Wcv+M1rd9L4HeN8wRRhK2zaFiRd9hEVCfywgIL8P5p2JmudNKAkggC6QywdTABNF/jPdAPw3nDXb2NoCj/ySG5X9TzdvX8ELVAGS6BkOs221w93bcD/6id7CLmHbsJe0scL5hgzgPYCQwOHHfgFqya/GvvE99hbbSqSJyBXH8T3zDoWxkB6kxeC4o/84azhztj2f0+m8rYvpvTsvTkEPcXSwsdZJt+chggoZxBwMOGUuR9/BGGxgD3QUogCcMnXqVFPwyufM5+ib3QdmlnkcggC9p+AwpZabgF1sNrglP6Wr5ChQtQ/YGi8eEnlDJB1joCiWYiLlQRG2thM01DpMK0VSeNT2Ox4YlfMwlvTESyl8Yz8DlAEmURDb9yylNAEqoTGkXJtrkWtiQ1IoBvkpVPWheIBljB+eEwVP7IfhA2jiFeHps8FaEbYC5AIGuG/uh9QC6H/YKvL/yMcFfNt2Q4wBzw1ASzgfJYZZgDGz4VfYZxhUzgUA4SXBq+O8lokj7YCQAi8dzBqFX3iAsGcu5JVe8/X49rPPiPeANA/b34/QJWEpnj96CcNKdAH9w+hhFEljQVfZB2YUh4tcaQwvYJcCOyZx27fX9mNlIud9A6Ti8OAcOl15fDoQrFe2NoicaBhOckQBkdhgq0+2j6nNlSfVhBC/BQbYVvZFr8kNxCZi+9Fjuw/OGOexhADvCfl8AFv+jS31bpAA2GUAgiumClbtyt5xW71gXsUuors2vQ4cwTzMXGr1lpA8jD5YhqgsGIAwPkAVMo26EfAB5BMkAXYXTAAoRQ/RbfbBFhMBIAWQ/dB9MA+AmR8bAc5PjlWOAlVrVBBwWpNeWt9nr4qmfPZHjSnQ431UHqDXs0tNWe140jNml3P4OLQp69dMz3NLzz6MJC39td973+Gs34E7Q16XgNU/mE76UMP2w/zblXUso+pv0wClOFhM0EzoMKGQEhADtsCVNC32ISzLPjjtRATYx7af4vw4+jBbTPqkUgEyiGixpff9yOvPyd3ffQl4bVxa+uG1i2kBx7TOZfXRvhMpPRObP5vfwGqOAlX/B2FzRG0+iM0N8S49ZkEtHjH/5jv7kOzKS9DgttLfX1mscuDZ20UFvOew+9v9GINdho/CEXstqzR2zJZ2t621bK4IY7Kh9NQ+s+fw7mfHx3nt/bOfvW8+t6EA/7wU9vEfjzeHkOPstWxYw4YOHPDI/Sbaq5tWH+zzs/rK317nxKtb6dnH6oFX36yu+C8FmJZBzv0SdSPMrRJIjz1Kzz52rrHvgf/9cg7LhKX3fLlVZm5cgZeA13Hi7CnZRf851OILq3vMwV7cwudp7WPxhnfOtsdxPu+8np/scI4DVa9K2QnY35tOj+cReNVM3xlzcszpuVZa+zzq+0d5bumThtvrcUogrWfvZYzS846l53yP837dtYNPAl6dskSEnXD9mStrj6yDZO/WTsj+qQLWcffaMe8+XrDqLznr2OfmuSb4nnbeHHF65tD02M707JOazfa+G/kJoCbbABXevbypXu6unAScBJwEnASCSQJZBQX+znd6zhdM8nFjdRLIjxJ4rIxqfhS4u2cnAScBJwEnAScBJwEnASeB9EnAAdX0ycnt5STgJOAk4CTgJOAk4CTgJJDDEnBANYcF7i7nJOAk4CTgJOAk4CTgJOAkkD4JOKCaPjm5vZwEnAScBJwEnAScBJwEnARyWAIOqOawwN3lnAScBJwEnAScBJwEnAScBNInAQdU0ycnt5eTgJOAk4CTgJOAk4CTgJNADkvAAdUcFri7nJOAk4CTgJOAk4CTgJOAk0D6JOCAavrk5PZyEnAScBJwEnAScBJwEnASyGEJOKCawwJ3l3MScBJwEnAScBJwEnAScBJInwQcUE2fnNxeTgJOAk4CTgJOAk4CTgJOAjksAQdUc1jg7nJOAk4CTgJOAk4CTgJOAk4C6ZOAA6rpk5PbKw9JwH/9b/52W96RQIECBczN8Ns+67xzd/fvxOqtvU+nx3nvKfNs7fO1Oh3sd+m1v4lqevnbWeBgf6q+8WN5CxqdDaz9zTRQ9TeKzkjmDUXzvws76dvP/f8Oprv2n9jziuEPpmeQU2PN68/a39kK5vcyp3QiWK/jdbaC2fHyvpOJCk4BNU5vg1UrHz3uBPVACnrAalbn2kwB1bzy4uRNFQn8XeW15+29n+vXb8i169clNjbWGc3Aq06OnpHnGhkZKcWLFZWiRYuaawfzxJ6W8LwTP/p77dp1uXHzJjcNAkjrcPd9bpWAPr+CBQsaHS5RvLiEhYcZPbaTfbDqtFVLQEwIKEa3/eduysHzN+Xm3bgkPi63PhQ3rvRIoGKJQlKnQlGpXCLSOCKB0tUMA1WvJ8+/eaGu37ghJ0+ekvPnL0p09F0poJ+5LXglcC8xUYoVKyZlypSW6tWrSWGd/L2GMhjvzKu3ePG3b9+RtWvXy+mzZ+XW7dsSFxvn5vZgfLCeMTMRFioUIYULR0r1atWkU8f2Ehb24CQf5LeYDL4tCMf+Hjx0RLZu3SY3b95SXb6VF24x398Dc2iRqCjz07p1K6ldq4Ykql22qQDBJiBrf2FSCQ2fvHJHvvfJNlmx97ycv3pXJDo+2G7JjTcFCRQsXkiqKVh9qkM1eXlEEwkPCzFpHVllzzMMVK2BtCD14KHDsmr1Wrlz544v18Tl++UJBS5QoKABbiVKlJA+PXtI+QrlgtpQ8lCsoY+JiZEZs+bK2bPnJCIi3Dhb/DjdDW7VZRLnGSckJEhMTKzUrVtbBvTrY56tZaOC+w7vj5775L727Tsgi5YsNeRAaEiI+cwwGXnlRvPhfdjnl5CALscbcNq/X28Fq7WC2gYnoLN6L+dvREvPt5bJvkOXRCLDpGAo9tdFAPKCqsfHJ4qo3sqdOHmmfz3595faSYgnZzWz95hhoGrBKC/P+fMXZNrM2ZKoEwPMhdvyngQAdcWVXR05cphEFS5swJyd+IPpbq3eMvaNmzbLuvUblX0rlAxOAxWiCCaZ5LWx+j9DwuF9eveUBvXrmQk+GPU2pWdkHSrIganTZ8qNGzfV/oaaiL8lElzuX/Bqt1ePeY6xGu0pW6aUDBk80KS2BKMNZsywqSFqf5//eKv8cdpuCSkWoZgGcgvPyqWrBK/GJo08iTo1Pof+OzE+Qaa90FWGtaic/Owze48ZBqre8MPixctkz/79UigiItnTcxN+Zh9F7jnOP0zOhN+xQ3tp3aqFeviJEhISfKkdVm+R8rQZs5VNPav3EerC/blH7QI+EvS2Xr260lfBKs8/RBnHvLDBGHMvx44dl3kLFiXnVjtwmhee7oP3kBwyV/0dNnSwVKpYwUQMgk2XraN4JzZeOr2+WHYeuiL3wgkL28Bw3nt2+fmOAKuJyqp+c3AD+cPTLY1zFRaaefubYaBqX5x4RcsTJ0/VBP5rvnCTS97Ps3rJhF+7di0TRr13D2Yq8wr3uIR0X2/j5YOPPjGh4WDN93pcMgym6/JsiQZUqVJZRgwbkqcYVRtC3blztyxZvkIjHbBswfR03FgzIgF0+c6duzJ82GDNva4alIyqrfK/cDNGarw4S6JjEmziYkZE4fYNEglQLJegKR7DutaUKd/uLAlqoMKzQHBlCqgiK8IRTPjx8fHZElLzL97JTqbWe+6cvK5/mC477zGz+o2RvBsdLTW0qGrYkEFBO+Hb54q+WqCaHayE7xkibV/OVXYWoaWktza8DYNhRhEAB9L/OravY3ZcK7N6mtJxOFhVq1aR4cpE5aXQf7w+21AlB7Zv32mAatEiUXp/gUeq/vYou+xTatfx9ofNTj329irNrnvMql5Hqw0erg4XQDUYdRmgQhzu3PW7UvWFWRryV/ukdRAB35JSCIzZS+rRmm1hM2Pr6cGkl0p6/2y0kcijbwoIQO6tNy3C/Nt3bw9cy2fsAy7OzJ4wVIcSfyNWhnWrYYAqjkpYTgNVmzfDhM9kkH0T/oOCzy4jktpEbCf6QF03NUDsBTOBulZmFSyl42L0GQNUh2qOVDAaSa9DYIFqdHRMtuotEQfsRna8G9774XlgBBMUzgEAACAASURBVCikYYNFxJZFaDpOIOyW1Uf/pvI+GxBr9MF3rdxjJO17iyzyIlBlkifXb8eOXdnOqPL8bag5OxdQsNexhY3oFc+P2ofQUF/+bVZVLCVdtgV4D14rCYAE0ohm4VyGLLgLoxq8QNVW+wNUqwBU1T4qw5UFqaRxaKyePwQDrNcIhPL4X85mLFA8xPm1ut2gx1vaZgtTGBUemHtLGjuhdJPKCyC2L8LtWN+HRZKulYuyKHyMaowyqrkEqMbFxWULo2onY4wkL2p2T/hch43reHM0+XcgijBSYw28IDU3gkBkH60TRl4DqoT+A/FcvdbIm09WrlxZA+TobZlaikFKDtJD9tB67UlfeI9BX4oWLSKRhSLl4qVLBjQ2b9pEwrSTwZYtW403nxK4SMkZetRY+A6Az7kADWy8L40aNjCFdhu0OM37znhBa2qOV2pOW2Csu49Jzi9AtUhU4YAzqjwffig4LFWyhFy6fNlE0VLS5fQyr49y1Dlv2bJl5Ja22KIXLN1GWrdsIXv27ZNz584n611a10rre94RdBkAbEEq7ffatmkthw4fkZOnTqX7Wl6H0eptdhANeRKoGsYxwM6tJ/+lfe0y2l3grhy7cJulklI2Kw8xlSns5w9yvX8rSK2pPUOLFQ6THUevmPv50dCGEh2XIH+cu18SFSibZQ0edY77inNfHintH6PtuwDdFhDrtb8zoL4U1a4Jv5q+R+J9/Z/Sdy2f4qZ+vQAY4VCVeXxeB6rWSAIaWzZvJjdu3ZIDBw5m24SP4apRo7qUVOO4dfsO00Jj8MD+2mg5XNsYzTZeTKAm/ETN8fTR9r5E8kR9Yfv16SUlS5WUKdNmSnwS8E/L4KZkGLPLSDqgmv43N14BXMkSxWX0qBFy69ZtfaYzBGfOhogK3FPwqC+x10HxPkvv56kxWN42W507dTC9bj+dOMVcY+TwoaaP6ISJk3VC9jl5D4ELNVImZ0y/87JM/qDbfMeHul9NfT/oN0unDwA+78yQwQOkfLly8vH4iQYUpngtPdyO1+v0paTfgdRfB1TTr7Op7YnedmjfVlopYFy9Zp1s3bbD9Km19tkbMvd3TryOi3UIU3vm6AcFuWNGj5JNm7fodbZLnTq1ZcigAbJqzVpNcdgl4UlN7/2dS+9YvPqV0jvF9ywGUaFiRTl69Kh5P9BjnMonRg6XjXrtDRs2p3kt3yuRuhMYSD2218pzjGo2AFUTEddireZ1ysiGn/eRjUcuS69fLZXYBE9aDM42bF+SbfPqLR0IzJZkGw0ryApLSXQmOBC7SZoNGCHxTqy8+7UO0rBycen9ygIpVFgJgtcHyM3oOOn+y0VyR+/xXpKecC7LKttzWGBpiDgzJxhuwfxmHzuOcAW8o9pUld2nrsvek1cVAGs7LwWqK1/pK2WVTW390/lyXYHsPd2P/3zX8uFz/2uRLpDS3GPuPYDMc74AqugKbBT5OEM1LzIuLl4++XSi3NaJ39sT0TvReoVvjVdKBsXbtcAaFPJ/evXoroUXleQjnXRRwq5dOplrLV+5+oFmtdYL9xoqr2FK7XvGwvm66XnPKkOwe89eNYjhBsR00or6IkWjZMnSFQ/0yXvkuZJyY9Bse7+2F2ggDaVjVNM/4Vvmo03rljrBtzMT4bIVK+TgwcMPtG8D1PmYe5hJH1PJRgjdbugp74DVEZ/91BC/Mpq2iT3fe4Eqjk+hiELsqQtv6DUIrWFQCaPqvsa46jnCks7hBZC8A1Z/+M112WBOuc7nnn1ajh47KfPmL5CSyrCxAR4Kap4ZOcw24sEYLWjl33zuAxm+O7MrgHHPlqX1v/f0Szz1PR1QzbwUrS1lUhsxfJjmwBaRK1evyOy589WR9ukrP+gGtpnna58r+hWubKU3MsV32CnOZ502rmFTRjhPpDK3Y8eMkg0bN8mOnXskolC4WWiEIiK7oZdEQhITfQ6Y9xwWpHIt3jvABYCCsVndvK2OVr26dWTggH7y7/9+qG29bqhT52u5R+u9Oxpe916Lc9mInvda7JPa+8m76b33zD+F+0c6RjUdUgSY8cxvRcsvP9NKvj+ggbbyTJAn/rxalu84q8ZK00d8RlSEkHmERoYAy4Tuk+bSghquT0715nMFnKLgUxSQmn34Uo8rEKFhfiIOd+Pl/a93kHqViknvXyyUBNXv4kUiFBgnyl2teBdN1DR6yrn4m1QErllI2Xw6HkCAAVD5njHBmHKNMC1O133McElh0Gud+stIeXvuPvnjfzdJYsViZr+iOl5u59btGL2Wr6D9HqDcnItrMV7traxjNjns3APf6b4G1HDupHsvoPfpgfPpEPijd8lXQLVPrx5SoUIF86Bog7V589bkyRzDYdMOMCahhHKSJkImWW+hhy34woDBCHAcx7OfndC6du4kFStVkMlTpptjMVIoAQ3hLZDgOOP9q1HFYAIIbAiJx8Z1MNyRkREST7PmpBAT52OM/Dz7zFNy6MhhobVXcV0ezzd5M55EMx47bs7FT2RkIfO9NbresViDiWEM0dYPsTome09Z1rSkEzigmn5JohsASdjU4ydOmGcXER5heg0zEVsAUKtWTbly5arxeGvqv00TbGUqjx0/kQwWmaTJrzyqLYiqauU6YVF07rjuQ5if5wy4vA9UpxqbU1Hb16BDp0+fSQIG8eadYYIupmwSxxw/cUouXLhgPkfP0ee6ymAVMUU5iXJGF0KgfRf6z3d1tOND82ZNdKnZG4aJOnv2vFy+csVcK0LHcUJXpbM6zv1zLXSbc586dVods3PmPUH/YX/5HADCeen/ae/d6raX5Ui/9B/c0wHVzErOdxyOTeNGDUxbutWr10gXtY9z5y+SM2fO+J6l6kkJTfsoV76caZNVW/W4hDowd/W5Hj5yVK7rssT2mVdTPUavrl27IfXr1zG6i/4TardFf+iRAaqbtpjc2+LFi0nlypU07H/OrCJnbTKf8T5g80irYVUunD3+NqkeVaronFHe2HlW6jp2/LiJbKAP5XWsDbRdGe/fjl275eqVa+Z7jq1WrYq+E5cMeA1VW8q7xnkgS7gPVl/E4bRzDgxwNf2O97xyJd7P0ub6hw8fNUsy+/JqA5Pr6oBq2rps2FSd30sWKyTbf9lf3l9+WNrVKi0XtPL8q39Sskk/N60V1TaObVdV1hy+JBUUVA5sXsmAttX7L8ii7WrzFNACJquUiZLu9cvJ9K0ntQ9oFWlWTdNftGPB1E0n5Mjpm1IwMlQSbsXKe0lAtY8yqAkalu/ZsLwJ/a87cFEKqB4lRsdqhK2wPNu5ulQpVVjOX4+WGVtOy6GT1wwIvqfAsUTpwvJ0+2pSuZQ6ZtoNYamu1rX24CVjfyuUjJSnO1aT7/WvL+s1vWDZ9jMyfc8FOXHmhnRuXMGwpyv2nNdrFdRrxUtU0Qh5tlN1qVmuiFzW8c7Re9p99LIBxwDiYa0ry4nLdyRO/z2iTRVdbyFEVu6/KAsUzN+zKRJJxEnaUk99jzwPVHm5MV5FoorIk+OeUEZqlYYXy6ohKCuTpkyTQmrQbNiyZ49uJqeIZebq1K5tjBGT+BpdGpNQCVuZ0qWlfbs2JpzUvFlTszQoz2Hv/gOmahYjxcTZrUtnqVS5onw6aaoBxh06tDM0+uq168xkzASPgeNcIdqeiRD+gYOHZJuGw+wkjVFr366t8ZLYWPlos+YKYihLaWi/e7eu2ri5tDkXYdSNapSPHj2mk0E7idI8s+UrVhuj6DO4lfXzDgrA8d5Ejuh+nMuypywPyWQSq/s2bNDAANWLFy6aVcL43LIeWVE2jnVANX0S5LngCFWuVFGjAAPlkwmTDJDroPoweep0nWw1GqAeM6H/carXOBVsCcoOYSkr6CS6Zet2XYhgg/m8koYnRwwfosD0pAKA4jrx39BcwZJmAp4zd4GcOn3avCedO7VX8FddQ/9TTdoILWzClI2a+OlUBQShpkE4jcKL6brhZ86cNfpPasByfa/26qpGXHdA/z6GWQIwMsECitdv2GTCsOhtty5d9F7KG3B5U/MHGeehw4dNcV0Z3fejjyckMafhMnhQf9XxMgYoF1adho1bu2697Nm73+juUE0XKF26jAEyePCwbyzVu3zlKqHdkmVy0yf11PdyQDVrEsQmDtL0J1jQWbPnyrgxo43OYV9wcLBRDRvUl149u8uJEyeVZS8pV7VVIeAO+0mv4itXLhsHe+AADVGqnty4flMKqfOGba5SubIBiQsWLjYAIplRVZu4VfWrigLS0U+MkDnzFhgbiY1t2qSRAc4A1Lu6VHflSpXklALnJUuXm9zWjhrFaNFCU8V0AYSbmi5WTsEjxMGMWXPMMU0aN5aW+j3OF20VL6i9XKO6ybU/88yT5jx7VU8LKhtVXwFtV50TsN3Y6orly8vlq1dl0eKl5ljez5Ejhso5fWeIUHBPfEZ+7czZcwy4DlRdhQOqaetywQKKG5ThHNS2mkz4Vgep/PxM+XK3WvLVHrWlwy8WyDX9jq1IoVA59OvBcujCTf13mNxQoBiln7WsUUq+P36b/H7mXoMvhrStKtP+r4vM2XFGQ/vF5NCZm9KqZmnFewWlz1tLZPPhK9rQPtEwqvWVUe0FUNXjNmro//SVu/LEW0vlnp63VvkiMv8HPaSUguK1By5I/colpIR+/tn318uctcelYzPFHN/uJEV1LBs0VaGksqSNNJXguQ82y7/nH5C6es33Pt9K2urvU1fvyLGLt+RnU3bLJh3XAgXkAM3uLy2QRGVoK5SINNeqWS5KVu+7IFXLFpEKCly/8b/NMnHNcQNE177cRyorcD6hS9gyX5VSAN9Erzfur2tk8qpjZsw2+pW21PMxUOXWMZIYwU46CX/40QQz4fft01NmzpxrmKAQZWFCNOT4hDJXsFYwQEyMLCPYumVzw/xgXDkPBpHJGy8XdufixUs6UZaWZk0bm9WJNusa2axt362zAtUqFbU37DTDhNJcGQMxfcYsYyRhDPprH1GWjIVBgk1opQ3wmewXLFosDevVk/464eN1wyDhlbdu1VJO6r4LFi0xgAEGiXyvSwqmDyszdf78RXM/5MMW17xGm2cISAVcHD12QoHKcYlUYNFCQfZJnSiWLFlumCmOwaOHlQCAMHm00nvn7yXLVhgAEIjNAdW0peifQlKuXBldMWiWAZWfefpJWavgE4fGgDBFZ+gj7OasOfOMM8PWVPWxZ/duMmPmHH3ux4zeMhGeUr2eN3+hAbYAXcKWpRU84lAxOXbu3NEUuqE7VNL269tLwjUKMFOXiAUAD1KQQP7zJI0URCc5b/379pGy6vyNnzBRKiqwaNKksQEggOG4uFjp0b2rNNRCqQmfTjZOFZaL/EH0fumy5Qbs8m716NZFSivInKq51YDOfr17mXeV/spM7qxY16VTRwMe+AzGivHAFE/X+4Qt47g+CnbIEf94/KTksG7aUn/0Hg6oZk6CyUSBOhijVP8olEN3ceSbKFD86JNPDatItKdWzRrGJu7X+oGlanMAnOg8fWvj9PsZGknAVkEoAPwWKxDct2+/GRj9bWl353OItkoJZVDHjB6poX+9nhII6CXvyUIFhkeUoUWvRo8cIavXaa6sAll0u6y+ZyOH6Rg1XWD7jp1mjLd1tS4cLJy4KCUwnn5yjBZk7Zf1ausBzbVr1TDgmhzuGzduGUYfouOJUcP1HVij+x6QShrF4+9NSgysX7/JzANRUZHy5NjRckKJkYULlxh2lrxW7O2iJcvMu1eiRDG93ljZpGB7ox4LwRGIzQHVNKSYxFzDTn74vNokBWdDf7VMqivA3P/mIHn6b+tk4srDCsLCFdgVlM2v9JMoDYn31n0OHbtq7NsLTzSVX41tJm01hL9dGcruravK3O91k6lbTsln/rJWEjUHNFwLlxb8uKceGyqdfrlQ4m7HGUa1PjmqhP5VT2b/oLthTb/8lzWSqBhg8U97SSH93UcXObh7l/B/QZn5QwWuyqb2eHm+9GxZxbCtX/3PZrmr4FFi4uRPCpD7NKogzV+aL7Eco2zpHr2Pvy45JH+dsF3uKdt7T9MSPvpOZymsYxn9m+VyT68x8/vdpFqpKOkKMNfWUDDDf9Lxwcg2+9l8OX3upsz7SS9pVrWEdH5tsRw7cdUUe014sZsBx21/Nk9iSFV1jOqjFc434YvEaUI0Rio6JlrmL1hsJvhn1ePdvXefrFW2NEzzjmA7x6jHHatGc8rUGb7wuLKcldTAjR3zhPGOd2p4p3q1ajJCDS7LZq5atSYpn0rzQpWRBEhSCIK33VMnZxjViQoAMHIAAgwEgJfrYyQvXLooc+ctNMYNYw3oxOByLbzyUqVLmdBPTGyMyRHsqIUIAInxyq6x3CEvxDg1dkcUpC5bvlLDWyUMMOjds4cUU0PNcoh45xjA6+qZz1BWAoYrVs8Ha8qkMGvOXBNqo2gmSkO1ExSgwKQRqurWtZNhjT9WAGKATQDafzigmr6pxhaEwALh/DABE2bC4SCkDgD1PQ/VAdXP0xpaX7hwqWHSbSUykxyh/hXKLlarWtUA1ek62ePsoF8UtTFB8uxhiWCyYOmrV69qGFUcLNhRqv4Bj6W0OHCE7ovuE+pkQgZgoFM4TgBdmLG7d6MNwCiqrCtjrFO7pjTXIkbeBfSW/bkmoJmxwb5ybG+d8AGqgOaieu5RqrdcZ5Ner4gCHa4Fq/Tk2Cf0XdyjzOoG884m6Hs6Y8YcHU9hBRZ3tXtAfZPCAJi+pUxYIJgoB1TTp7cP73XP2FKYR2wJwJSwd2VlC0eNGCYrFMwd1EhSASUKcN5xjIgewJBjJ2ESAaU9e3Q1kYRLFy8bZra4grjx6vgA3ng27EexFKlVM9SpIkd07BgFqgryAMaswEREYb4yrpADnTt2kLp1a8skJRJsdxRAMHoG0UCeNDpJSkIx/SxSzwcb3LtXD3WILhi9tYRDd3WwGBvMqwGhui8gmXuD1ScK0qxZY/NO4ZCh/5y7mXbUaKcRNSIIOJrIY6bOD5YoYN8xT4yU80o+rNC5hpZxgUpjccVUqeuzL+yfKFUVwG3+RV/5yr83yQxlI+8pGJ35Uh+J0e/G/mGVAseCEqEM5NHfDJb3lh6WVz/aIgWVhUzQUD3g7Nhvh8gfFhyUP3y6XXp3qiGzv9tVmilY3H/0qoQV0TzsazHSvVVlma5guL0yqAcOXpT3tEdoMqOq45ivQBag+oW3V0jNumVk2Y96yJf/tUnmr9cUE2Uv4zUvtJCylmUUTJ++Fm1C/6IheikeIeWVAS2i53i2V235jIbvm/90gdxWoFokKsyA678vPyK/n7xTCup54jQXd8IL3QxoHv7qYqmoqQlrf9ZHfvDpNpmw+JCElNBrKYtcXJep3asg98UJ2+STeQdk5a8HyS4tyvqm5u6GaSpCtILjbw5vLC8OrC8tlZm9rukMBSi4yqz5SDouz4f+CdWU0zARQNWEYtTDxeB069rF5BHBeGKYKOIghEqO0mqtDLXr0AMgyRGE1Vy6bKWvrZKGYpkEL2uLFQwloXFSAoYNHWTYTsBl717dpZKGbTk/TBDGFcMGCCYMxd9Lly83oVjYS5sjy2/C9ZZlILRfRfOkCC/BApRQphTjCjMFyzlSjRshL6poLVjoq0yUYVQnTZGyjEvvnfQFOh3Y9eiZ9GEHDqjRXqkFXmOV4bqj4a95CpxhDjBktAtq17aNTJ42Xe4EKPTkgGrab6yRkT5fJui+2sHhsLIslzUHj8/RgcrqAH2ibCH5b4Cw0crWAEhXr9Gwo0YE0CEm3SGDBipwu23CoeTaUVU/TRl9ogBMlugA4f9hQwdqNfQ62aXgr5eyVdUMo3ofqIYr6Jyk4LFWTaIAvU0RDGF9rm0nTl9uoK/ABb1hnGXU0SKnNlQdMcL8U9Aj/c2EC+A9rcy9P1Al9M+9VdLUAAofFyxaqpELbfFDX1e9fybvp8aNMSk5czWMy+QOmJg9Z74Bxzh05EKSUgN44HqBcrBce6q0dde7hy+HmiKpeGVFhyoTX1x2796bVAxcwERsYE8Xa9EnjXfq1qkj3bp1Ng4NIXJ0CeKgmupun949VRcWqVN9wgDSUAWksxWQosfWiYABraB6Mz3JIcehSQmoHtIoFT1EySXk3fDmMls95jd5oo0bNTTdW0hFYOCkGpAyhZOUJlBdtVrzY3eb9BXavpFiY6Ml6DFzCfMAgJvCHXSZ1ASieTYfl8/OnT8vKzVCEciolgOqqetyCIV9N6PlK4MayLufby3/XnlUTtCWStV5QItKhi2s84PZcll7uEZGhsvuN/rLb+cekHdn7ZWCCgLjkyr7V/64l8ld/eH7G6Rv5xoy/hsdDHg7pkxkiIbWE5RVbaUdBWY831WefX+dLFt3XP7+fDepW7GoL/SfBFQvalumz725RIb0riN/+3wb6fbmUjl0+rphRpPbVSVVbRVSoPmdfnWlvebTtqpeUttNhUpxTQPYd/amdFDW8zapCdr+arNW+P9jxVH5nQJVAK8FqqQvDNMxdmpXRSYpaB742xWyVVMIzLV4nbWg6tjvh8lH647Jz7UQa/kbAw1QfU5Z5hAFyzEKqp8b0Vi+3aeOtH1lody4oykSqbXzyoA5ydNAFc8I1oiQOh40bI7Jt9TPIyMLG+97moZUT2tekmE5lZ05cOCQYa+Y9NgIPw1TYEqu0AIN0fiMSz/T+gmgaif80qVKGSCwknDPnv1C4ZZhVD1AlVzTKVNmmOKQPr17GM//8uVLaqR8Ez4/JjdRDXtJZUd7Kdi1+Vu0nWJMIWqYKdACyDB5wzqRgE+olVxBJuo+vXpqHiKMwxQfQFFDOUfDvWcVGFhwAUh5atxoTXM4b4w1YCdG2di5akwBs5y/qYZw27RuJZOmKjBWlixQE75rT5X6G5rUUcQ4KoQUCYeaYorkqn5N8NfQ+67dewyjz7OCVSTnGLDpdbCGDx2i7NV1WajOE3qAI0V7q0uXLht9Z7JkEsaJI6dznzpxpAtU82NUCf3jmFXV9IGBqvtLNDR5UtNemEzZbKEe+oG+tGvbSkOnu0wRzC11cGpoSknbtq2TGVV0EEYVoLpSJ3PrYPkY1TKaIjDJ5KWSLsP7BFC3uaZEDJ4cO8bkN5LfR7SAHLBZs+eZ9wMmrImCC9ogMWbe+UDprQOqGZhZknY1zpDqK+F7bFNywarmUoeGwMQXMvmn5Hc2bFBPeqij9IlGpWDlSXfCVligOlc7RKB3QxWowvIDSClCwm7ikBDFKqPgkmgD+jIuqZjqIUZVgSqRAhj/Oep0eW2vr6OAmO9YgQxdJe/0quaTxikzjKNGHqmPUQ0x7yeMKtErUl0eYlQVqMLCVqhQzqTP2G4CMaqnNfVYHFEcs4iIMGPLcQK9QBX9hiTh3SY6FojNhf4fIUVfKb+p3p+kIfOu9crJiUs3jbONnYlVtrRZtZLycwV470zZKYWVRdzz5gD51ez9ClT3SFhRBX06V5MWskHB4IJd5+Slf22UPgpUJ2nuaKOfzJWzFzXfWNnZeK3cb6Es6SxlWsdoaH/N5lPy/v91lXoPAdVo+dxby6Rrx+ry4Vfby1Blc3cAHqn0VzSTSDcBKv0VTL71TEt5oX89eWP6Xpm67bRc0/zWsdok/+vKqjZVRvWOMqpRhUMNo/pPBarvTN2libZaEJ7EqBqgqq2xmjWtKDMVQD/93lpZrfdQQPUTQg88fPTtoZo2cFDeVqZ4+RuDZPeZ6/Ktd9caoBqbBFS/07eutH4ZoKqtFOlEkEXFzdNA1a4HTO4SBuKAGijbPw8D2kLDkRjIuQriMJgYtsNHjqkRWv1ACJXPMZDLlq/yLf2pE/5kZUYpNgLsMoGRo4dh8yXrHzdhTH+gitdMCLWi5izByi5bsVLzpY4ZsIEHDwvGpAoo7d+/twERi5QFvqQMGLlSTMDd1CgS+vdnVGFM/RnVicqowpgR8gJ879FUB/ax13rmqbGmCGy1glwY1WhNCQCo2vMAVGlcDVCl+jZQE74Dqo8AqknFfxQNkXKyRovvYHCM3qpRIiVjsIJFcu6ME6R6g37y+SRlEHF7+YwqZ0L/5OgRqgeokieHnqzbsFEidYLnORCOJeePcOvFixdNXh5AdeIkX241E3O47otDR2idSur96swt1VQT1oRnYie3megB1dVPKAN0XBnQBZpigx7xbsBuAlTJUQU4AnABqsc11WDJUl+3Cs4D0ACoEjHgvWK8ZzSlYb5Wh+OEEUIupQ4hqQ6AB7p24GD5M6qE/gGqjlFN3+zgvzJVIBv+8/zJK6aP6SfjPzUtmwB4sKw04f/M0+PMs9yyZbtJ2SAdaf7CRers70t20mntR94zx9+6dUf69+1tquc/1haDFFQBaGHbn1S9uKKAkhxsgCYOHIwqRa68L9hBIl6HNIpEmhZFpyZVK8kR5BwsCoDOobu0GKSNIekGFJcSPUP3SFlZuWqV7h5i0lqIzo3X/egKAEC2Oao4WbuUQW6qRVekLpDSwjvmK3CNNS0LGyg4/+Cj8VI6yU4DVAn9+zOqDqg+qMsPrUwVoD6qQCpaODWoUVI2vdRXi4LWypylhzQfVZ1y0JaCwskv95VyGlrvoSHyUGUwD2v4e7Pmpo7Ugid6ktKmqVatkrLztQHyJQ3TT1hwQHp1qCbzX+wuX/jnBvlwzj65x+pPmvf5/Lim8uqoplLrB3Pk4tkb8t63Okl9Baq99dwwqvM01H9eGdUv/m6FlNXCqZ2v9ZNXpu2Rdydul8Ti2jpQ81p7tq8qTasUl78r8NytxVd/XnRQ3vmPtp1S4Mj3P/5CG/lyj5rSRPuj0uaqsF576y/6yZ8XHpS/aAhfyhbVwrFYGa8pCFF6nyNeXyJR2jlgx6v95V/KJr/2H83HVgBOS6x69crItl/2k7HvrpPZK47IijeVUVV299tJjCpA9dvDGwlAtY1jVNM2wL6q6XhTOQljRDEKMCP3ggAAIABJREFUrXB8LJBO+ArKMET169c1TA8T5TgFa0zKExTgmSpidR/4nkKjeTpZ7lNQh4Ek1+/AwYMmlGOApQIDDCzeNTlY5MV1V+Nl2lMpoCX0P6B/XxPegfmJUOZntHrKFGnNVO8fj4OKuS5dOprx4uUDHKmEXqRtp8g7BKT0VRaWHNZJWkhi+1qO1hym4ydPau7tIgNsDROn90XoHy8/VF+c4UOHmnzbKQpkrFwaKejF4FOAA2M1auQwA1wABZZRbdK4kWHICP07RvVBnbMhPLuEaqBWprJRAOTeWiMBhAUBdzbPkudLex7Cn7Spgn0hNaW0htnJoYbFZCNnGiAA6CNFAL3CwYKpoqAFVhUw21dDqhyzmAIO1VNyOylEGj9hsgGqRA8MezV9tmGLWrVsZiqlVyqbCyMKgITBJ+8QvRw0wJc/uGrVWqOLjIuxwDBQAGXy/vQ6QwcPMnrNeWB9ryvgQL/JUTV5g/r+4phRiEWY9YTqOCCgs56LqAJsGuko3FPivQRl0eaZscCsNWnc0IAQunr4Qsi+5WCzsrkc1YxLD7uIvUU/KRqiQIo2abatGnowUO0i4XRY1Ib160sfLXIlx59m+fymiwQ6sHnLNtPBgufA36TFoLe7NbJAegD5noA+9IIiV8DiOA39r1dHjWIpumdgt8lRpeqfUDwRBxh4CqNilamn0wvvHDbxpuab4gRt27lLjiqZAKPWSPP6uQY542uU4bQdLWA9cQhJv6GC35cfO8oQHqSaoed0tKA4F8cT211ZU2OoN6ALDPdGzi5AmmszfiJpvD/kqMKokqPqQv/3dTC7gKppaq/h8TeebSWf7VxT6v94jj4v3ypOVAQkKiM5QvM9P9EwfuOfLZBD524YQFqzbJS8rhX+85XFDFen5i8aoi+sjGeXVxfpKmx3pFerKspQdjHV8bCx+xXcNdHQ/Idf7SB/WHhAXvxAC/aUFf2HnrdBpeLSXVlNgOqin/aWs9fuyuf/uMr0VX11XHP54eCG8hVlabcoq1q1TBGZqEztvF1nZdzby2XOT/vq9QvIT7VI6payv+10Ra3fP91CTul1WylwvMO9KKhfp0A1WjHHLybskG16D1d1jJMUSEfqmIdpURgtU18Y0VB+M6aFfFs7BqzSdlslFay++7nWpq3WIC24It91tZ5nt97LN5QRDi2uxIR2EvjOqCbyfL96Lkc1vSYT8EBVMGwnbI63Dx1GkpAUgNCXu7rfMFhhqmR4/VTS4zHj5R9T5mehaXtCu6BKpj3KdTVkVD1f0P0IUwJgMcRUhEKRm4b/VSvLh5ooD1AlJw8jS+iVohiS+wltkmtHcUsJZZVqaxU/laEYQZr2N2/e1FSBYkzLKJME2ABwwn7BqAKSTEW1djTAaO/avVsLYk4ZEABY4J4xjmUVLAxTo0yLFar+MZy1a9VWhnWvYdiYUDC2MXExBpBQ3AI4gnFmHB9NUCbE5ag+oHbZBVS5CE3QhyoA4xmTluFryO8LSXFdgBcTGCkfq1evM23XTilo9PVirGIKA+8oIF2qek1+GxuMEgV9TKhM6pyTUDn5zUQKKKCjshomkir6qdNYPzvepKiEKkCcq84TQBGdI2+5heomaTRhoWGmpdsKDeHDulOM0rtnN12dp7yZ/PmMiZauAxRycU/cAwB2gDp37E9kYdu2naYTB83/qeAnzInzyFgBxoT8AQaEXZfr/gBQ6yDSM3je/MXJOaqAibYK9FkFzuWopm0ts4tRBWhh5waqo4/+sDCJTT3y5WHHJDkV7Q37DavYrXsX2aQ62rpNKxMdgNmkxRMrStl3o5862DTwJ9ca/bB9rQFz5OGjJ778/aEKKrebgib0n1xROgUABLk+uob9JG0L3Se9hhQq2gSio9jVLgomfSuyachTgSjH0FkDRwyA7XsfWhuG9oKOh84E6C6OP3UDh7ReIVRDsjj/PTStBsBMZIDxrdu40eSFc60y2mJt0KB+5n3n/JZRJRpIMdVaBdMu9J/9QBWdK6BO9VplTdcfuSTf/bcu50yLJVLwoVQVwZUopitGKUB7b8lh+c2c/XJQGdUPNGezVdWSCgxpORUih8/flKe1ZdSBE9fM8+2v1fj//Wo7Bam75CdDG+jKpSFKZEbIB2uOyv/9Z4tEE1FVEPmHL7aVOsqoGrCoV5zyQldTTPWt99ZrvmKYiba+/XRL+Vbv2nL5VpyU0JzYT9efkBc+3CrXFEDW0NZWH36tvTTRSnxA6fHLt2W7jqF1jdLS9c3FGjXVsyqAba89XScrwC2lYxirraRmLz8q/9GuBBGqq8+8s9JcK0GLp14c0UgZ3yZyRa9Fvuv8nefkm5qbelH7ySKOOd/vIfs1//XFf21IDv1/dUgD+XrP2tJDc2ldjmoa9pdVdWBEqbiE7SGnz+bUGZVLakFBWJJqTVZ2elJzNvfpQgC3bt42njPbea3w3KI9UwGpTIyARVim2er51qpVS3s2ljLf7dt/0FSThquRwujVr1vXNKwm7MpxhFgxjiypisGxRryZfk4FNn9T2GQNLeOjfQuVsNwHRv68gg4KqzinXZGFggOAA8aWc8OO2t5+tGkxYSZlj0uXLGXC+JGFMa4JhlUgFYCJg/EBSsmNJXxr8xdhb2GJYTdc1f+DCpddQNWel+dCfjQgzL/S1+a58TlOEBXGh9RRYfKklRURA/qT2gUD0BUmahwjWMbLl68YoAhQsDmc3lWkOC86zcbn9m87Ds6HjhQrVsQwtHfuRJuJ3Ddm33Gw+0QKrl71GWr0kPHY+2M/9mcC963+46vo978WbFmEpj0QysXxNN0udLOr9aD/Zv7Qc9scbyIXVJF7r5c2XHv0Ho5RzbgEvXpqVmTiFEmtaiyriq6ahviqA7W1WK+Hhsg//mSCAXMUjlLNDwvP87YrSQ2kE4XqBOkoRA1IE8GGo5d2lTWel9Vpu2KajX55dZAh0UUDcEvonnPYAi3+jX4yDqJkOEecnwU1rL6ZJSX13tgPoAupYK/tr+9cl2uFh4Ub0sB2ALDvlf/4rFPKb3sPGX8KDx/hclQfIUUYAX2+9DeNifPZK6uz5igfY2AilWHUlKhS739roLwxc5+8P2O3VKulTo/O12cuafEVRVWai5qo4fc+Wt0/6bnOUu+HGuJXhrSOAkoA6A39MSs7GTumKwXSG5tOReSc6haWVMTEgj/mC66vYDNSw/dVtXXUWS3ouglo5HjOAxBV+1dfUwESFVQf0kb+jDhCwTbdCpIqGXU/tbeatkC3gMtamQ8mCKPHum7m2vZatNHSa1UvHWUWO7h+XTsKsEpV0nhTGh82mYUDYr3Xy6Li5rocVQyUmXyyuiVVpdilHJlYvYyqPT3f8+LCRo3WCZ+q/+Waf0cY0Vc97StiYh8fuKxoiqYI6RN2JbfVevS+a/ieMftizDgvm03S947Dt/KUz7gCbmFavQ3K7dKYMGSwUxhQDL5dKtD33txfYhJj7ms/xSpYviUFzWShkzYglMkAT9631KS21lADbzdAAOP2Hx/7eq+X1cdimBRNMTDdEzQcZlvDZPW8OX28P1A1qRgBCDHbZ2rPb8GXnczs53byApSNHjUyqfPD+uQcbAswfTqcoItclDN50bShomLffm/zjr3nZQze69m/ve+Pd/L0Pwf7+wNdC0y892POYfTzfiGh/7UMGCeJPwmIPmq8/vfgvY+s6gfvBu8IbDO56MGqtynJwZ9RJfc4aT7OqtiM/eFcZn1zz+bVJWSJ/atnqv67mBQSQCMyt6DPvhd0cSFlKVwZ1VlanGQdFqvPdj/vtazO2c/83ylsPN6O9xxGd9DjJN3jOwt8U3offN0CfI7dfRDuG7//vXoB/KPG6x23v7Oa1QfDvEfnAyKBwajLD4X+FWip8LMqFt/xKKytarWALcnBSv6cqiL9KaTM4+7X+8s78zXfc+YeSSykYA9VUDCHzhv9j06QPi0r6cIBnaTNy1rDouDRVMLjUNvWTRY42Gvb98UsVWoMcjLINP8kNo/eJp3D6pEpXOKYJKDrW96UfIYHz2P24xx8DvC0+xglvn8tkwrhuRYA1VzfLqGawvgekl8AngrAN0FzdYdpYdgU7UZglu7OAk4soA8mQwVedvdYRfgffPSxgqg4k2yf1Q1Glf/Zic3fI/UHAgj3KS0u2q/MKL1VAaB2xSqfsfXlvBL6J+eVQhaq/v1b9NxndXwvjdeA2b+9xislIPLQ2Iye3jd4djzWYHpBhTWCGbmWNbCPOiYlkJ/ZZxStgLlmHgCq3L/NUcXBCkSxWbLB8TBP3knKHyyit0+r3pL6wUpk1sGyz8bqLU3HR2o4EkYVoJpSdOGhcyfpnXdMqemBFyQ+alL1Alav/vhf2/+9SGnf9BwTOL2lkC3aAFUq2INxck/tfY1XkEVLHqIpS5av0NW/WPo2Q2Y8xVP7y/5Rf+NEN9BFTuh08rHJ8/e1p/LqsY/VjjVdTGiZNlXJAv+Vx1LSr7TG4T/4+1MYDlTKUktN31O71qPeG2vH/e81Jf3OrM31HocciUxYoOqdMwJx/pw4B6s2oR3nlFGs+oKmKeEoKPmS5S0lBtWrBN7v9R2JVFbyxO8Gy5vKqFJBX1AZygT93L49BuhpEdIAXZmK6v662tbqqLanKqjspc+10c0LUpMBcdIZvH/7gWZUM/kt9TuHVduH3mILz3zhjfvi8t5XCuN51LVSvQfvvWXxwWjarcTfjH38QBVmkerHgDGqGRCMNQgUPLH2OSuZFFKP3Tg3+n924gWUlNOlV8lrYoUTWpbAYPqeR8bXYU7LgKbHUKV1Dn/jl9rfGRBXFnf1Tfis0U7+VbBO+FbuMIesSkNrGn9GJouCSvNwMwbdixQTWHQm95TAMvuhp+RBU+HsY9RTmYHTvGr+3MEyquhtMEcCUnp6ttsIxaIU1QVq2dmMaAqkANEnQuOki6QW6gZAF9fm+DBCFFsFyjnMyFiDeV9rt4jWAVRZtRBZByoalFOysR19zms4utr3ZmlkEqAK9spBu5Y05zfSFasuaEj8ooJmExL331Rni2rv0lragH+vtnIyIfGcHGdOPZRsvI6PUY2WoV1qyNTnupjlZcNzmlFl0sRYmpVHLl0xnnROT6R4HixbB11vwzcpjYEX3ebX5fQYs1EPcvTUFMbQ3JsegsFoJBGWnUjRAbPajRZgkCJhGfSc1A3CoeitDYOmprd2FamcHFuOKlaAL+ZlzZAvbF7LFs2TuhgE3+Semniss0ih2kxNDfHqcGYc8Mw+Bq6LbbU5oqmdBz1msyRBZq+Xn47zPkfkTArYiOGDtaC4dFCSBfZ+bmm7qHZaWb9XC4YKmAb4bDkLVk1eqM0RfYiRTRoOYXrAtOasOpCa8TfP140hTr40oK787bNtfHUPtKXL5Jbh0L83NE47j21aEETVeSALIdK6l+BjJdO6o9z1vVe+JkdV8zlhpZtqsVgwM6o2ZAYLT9uxEA3nhAQgbSWjT88/By+149O7X0avnx/2N8VeVHNr944y2kIrWPU2pWdlQ938pgcpRaGRmqdKbnxOb+nRUW+qU06PLy9cj7A/rQexwZaRDjbn1etMfeGfG+V/2uIpVMPuceRT+oPF7HpoSdexKZ3mPUqJKfXsZzJqcmp82XXfOXVej5xIo6Urwv80z/cZbQ+GrKnpyeyWYaDKBS2QoXcpq5RQsQw7RZFF1jOlMnsr7rhAScDmt/CcqRKvUqWSCZ/aPMlgM5JWLnaCZ/yki9DnEUBjPw+U/Nx5Hq8EeL4UHtJeqK42rvc+98c7ssBd3UYIWFhkgTbcP3P6nKloDlhVVeCG6s6USQlYJ4D0ld49eyTnswdj+oSJbCaBlX3ax7PL64vlivYCLRAVbirO3ZZHJEBdGGy0tt7q0baK5vl2M71e2cCHmd0yDFTthSxDQc84ekOe11WfYrWtktvyiARUqchBo58m63mz8lIwT/jesDBPiEngnLYQowcjrWeCFXznEW0LyG0YxlyfazFdGKGetpsrm8Sk8mzz0vP1OlbcF87WPu0HfUb7eZo2eFlgLgLyINxJsiwBqrTDdRlMutbU16I1WoL5P/csX+QxnMB2rFi677x87+Ptsu3YFbmn7ZYeQzDgMdx9PrikOh2RxSJksLb3+v1TLaWKLllLnjoYNSs2OMNANaUJH0PJpE8LDZfPkQeUMYnCZ6GBCuXLP9SyJVjvMCXdDdZ7ceNOWwLeFJaczN1Me2SB2yOv3lfgJJQ3zhTsz9mMX/+jvt50WFJAc0t7fq47dEmb0SvBlQW2LW884bxwF7SMKyDVy0RJ+5qlkzpo+ciDrG4ZBqpcMD9MAFkVbF46Pi8BPP8wvwv75yVNvX8v/t57Vrz53Cghb3TDpmPlxnG6MWVdAjYiEMwRLX/cAMvm36s365JyZ8gtEqDLA5tJB036d1ZscKaAqlU6fts8Gjfh5xYVCew4vEYyK4oW2FG5szkJOAk4CTgJBJsEvKDFrBLm6WEabPfixpuyBHxrI9xfFCYQuCHTQNU9JCcBJwEnAScBJwEnAScBJwEngeyUgAOq2Sldd24nAScBJwEnAScBJwEnASeBTEvAAdVMi84d6CTgJOAk4CTgJOAk4CTgJJCdEnBANTul687tJOAk4CTgJOAk4CTgJOAkkGkJOKCaadG5A50EnAScBJwEnAScBJwEnASyUwIOqGandN25nQScBJwEnAScBJwEnAScBDItgSwBVf/+mpkehTswV0vAtiALRJuJx32jro/q434COXF9WqM8eJ28oLveO0qpHaBrEZgTupWz10hJb4Ndlx1uyFkdelxXCyRuyDRQ9SqbWbrQLdv3uPQh265rG4nnlV6qbqGKbFOVXHni/PC8A9FMO1c+PDeoZAnkpWfsxQ12hSr3qPOWBHjGPFv6qQYKrGYKqKa2UlFsbJw28E1QqWd9yay89eiC7W7uSUhoqITpD5v/KjjB6NGn5FjduXNHTpw4KRcuXhL+7ZbxCzY99RuvGsiixYpJuTKlpVq1qhIRERGQVVFym1S8zKl9F8+ePSf8XL5yRRIS1AYHYNnC3Hbf+WY8qsfY3zKlS0vFCuWlgv6w9Cj/s1uw22A7fnT5xt14iU9MzDePNy/faGRYiBSO8OGGBFYfCxBYzTBQTQmkHjh4UA4fPiaXLl+W6Oi7DqgGvSbqhF+0mJQuVVLq16trJv284NVbhhj2/+SpU7J8xWq5fv26uTcXNg16pTU3UKBAQYPRSpcqJT17dpPy5cqp85xoPPtgnNxTeyr2nuLj42Xt+g2yZ88+A1D53G15QwLYqZCQEGncuKF0aNdWQpOIg2DUY3/cwN9/XXpYZm87IxuPXpXrt2N9FJzbglcCCkxrVSgqLSoVk2e71ZDBzSrpvOrzmbOqsxkGql6GjX+vWbtOtm7bYYTLi5TVAQXvU8pbI2fCY+IrqBN/584dpXmzJkrn3zNceTA+Y28aw+XLV2T6zNnqVEVLeHh43npw7m4IAUh0TIyULFlCRg4fKoULFzaOSF5JT/I6VWvXbZCNmzZLoUKF8hwYz++qbJ/znbt3pXPH9tKmdSujx8HqdLFcKqAlXn8/87d1MmnFEbkHOFUWzoHUPKLtCeooxyZqRKCg/PZzreW5vnUNWLXMambvMsNA1ctK7T9wUBYsXKIhtvDkXITMDsQdl/skgEEErPJ7xLAhUq58ObmnADYYJ3zLNDH25StWyY6du8zkbpkpbz5j7nsSbkTpkYCXteE5xyhY7aQTfKuWLcxzDka9Tem+7b1cvXpNpk6fKbGxsQ/cm9Pl9GhL7t3H//lhg6OioowNLlq0SFA6XdwToeDQkILyu3n75fv/3CgFivlSc8hndFvekABEVkFFpQmxCUoChciqn/WW1tVL6adZs78ZBqp2Ykesc+cvlCNHjumAwpI9vbwhbncXSMAaTCZCJvtOHdpJAvlTQVg4Z9kJ9HfqtBly4dJlcx/ByA477UyfBNDbOrVqSf/+fQxQJYyaF7ZEnEfV3cOHj8jCRUuVvQhx9jcvPNgU7sHaYFI8hg0dLFUqV1LAp7ocZDYYggNaLTY+UXq+tUw27D0v9zSXEZbV5VPnMeUlehVSQBLvxMkPRjSRN8Y0Nc5ImDopmd0yDFTtixMXFycTPp0sN2/dMt68m/Az+why93E8V8KotWrWkEED+vkY1SCc8L16+8FH4x9ioXLzU0iLIUvr+9x8b9k1NqO3mtpRtWoVw0TlJUYVoFJQ74+owNJlK5Vt86U2BMP2KF11epzyE0SXKfYcrnpcnXqBILTBpI2hsxdvREudH82RG+Sk+pIXg0Ft3RgzKIEQWNUbMTJCc1UnfrOTSRsMV4c6s1umgCoXo8L/g48+ETy9YAmppWUI0/o+s0IO9uOilZmqoQZy2JBBQTvh24mcMBp6Gx0dEzQM26P00rb/yKjuevfP6LHBos8wqgDV4cpE5SWgSoV0qJIDO3bskiXLV0iRqEi9v+B4KqnpmrcKPCP66L9vRo4NDon5RonTZYFqMOoykTj4tHPX70rV784ykbmgAalJY00JUhv3MJjuJYeUPpRc5BuxMrRrdZn6XBcDVB8Lo2qBKpNBMIXUfDm2RruSHxlGErBt82/5Ij0MsQU/XiObnuNySFcCchnLqNaoXk2GDh4YtBO+N4QGUI2JeTCvLyDCysaTmBwvqrpRXg97xucUhGWkX11+mNyRBzmqeRGo2tCvBapRScVi2ah+ATm11bsELbigjeF9FriAab8E4xYepmlkZu73FQ2ltaV3v7TOk5u/Rw53taAqmIGqZVQBqlVeUKAary3Ugil9wdhdqyVJ/9bnEqpFQ4DueyaFwSCHtFUpyX4bm51Hga5lVId1rSFTvt358QNVUgCCjVFNbvPhQ6QGANy+fVvC1Eja79LWtvt7eAt18prhdEA1I5qQPfuin1SuN2pY3/QGtRM40YwLFy7KiZOnJC4uXnX3wVzFR7GmfGf1FkczrX3TAxqy5+4zd9b8BFSLaOjf5PoFwYbO1qxRXfuDVkgmOHhWN27ekNNnzhp9xg57t7QcK/Q48R7pECEPtcJJ69ggEJl53/McUKU6PB2OyGN/PkmkVojmXEaG+fqD+jrfiNzVgqG4a9qOMzJMCmjhkKqgb0sHVjX7ab6uKYfnJ4+xsqF6T/Ea+ndANRMajJEsWbKk9Oze1RhJ69Ezwd+6dVs2bt4i586dN4bSny31v5w1gPymIpNzw+BYZsuHgVPW2GACsw6oZkLRAnwIzmDZMmVkzBMj5dTp03JNe79iKcuULmUm/PMXLmhRzRK5cePmA46Wvy56IwYMkYr4a9dvaAh5p2FlvYWSHOvtP2qPDRbA6oBqgJUwAKezecN9eveUOrVryYGDh4ydhRyorhEbinI3bNwsW7duN59ZO2l17n7I2xcVs1EGGuK3bNFMVq9eJ7eUcLDRMY7zpsZkJmoWgNvO8ikcUM2yCDN9AmbwezHx0qRWKfnHF7SXrQJW2muRxhCubbWOXrwtL03ZJbuOXBYppDprHUZ0zwNak4NgNo1Af1cpXViuacHRLf0xbbrsTt5jHyBygyddwgHVTKucKOsUZxqAjxwxVHsPblHv/YIpDKLfYr06daS0rmgzf8Ei7WRw9AGv3oZcfa0XCiYzyMaTV7Zr1KjhuirMeS1sWG5Aq3cy9zXh9vWPAxxnJESbhVsN2KEOqAZMlJk+EU4QDeyHDxssc+ctlGMnTiSHSEup40WRGzlsM2bPNfqIjnIM+m5XZ+LfgFG+Qyf5+6lxY+T8xYsyW48rXrx4sl7zHcfTvovf6HlG0wsyfbMBOtAB1QAJMsCnQU8BqkWLFpVpM2Yl92VGL5s3bSodO7aTpcuX6wIG+43OAUZJL2NDlynspOLdsq4UGdWoWUOGaVrShx+PF3okE32wjhYpaiFabRymbBh56QBgLwgO8O1ly+kcUM0WsabrpODHxDux0qlJRVn6o57y4vjtsvvkNSmggLVNtRIyrlN1qa9N7oe9s0qWbD+jSoqD5SNV78VpeoNNCVAyjGMMFoVJLXBPNv9ygEzYeELe/nCrJJYqbMYDTjDMLKkRtiNCmK9Y3ZBnwcBC6/AdUE2XeqW8E5MuzNRQLQqaPXeenDp1WkKVPY3XiRkQ2bN7N6lTp5aM124GhFrYmKSLFCli+teRW3X9+jVTSOYDnSKFIwvLwAF9dBnOy7J23XpzjG8pWV8cgOM4HmN77dp1AxL8Q61ZuKVsP9QB1WwXcZoXQG9ZTnHE8CHqSC2WE7qqll3elom/fLmyMm7s6KR2cUdN66KK5ctLR20nFpoUrjp//oJs3rJNbt68KcV1mdFuXTtLee2Li67y2bbtO+ToseMGrNauVVNatmyuxtaXO3j8+An9fmdQFU46oJqmWuX4DsmMaq8eUrxEcZk5a26yU88kDOgcMmiAIQwmTp5mqttZaax1q+aGcWXxkTh9F3bt3iMHk9hY0mGaNWuqBWVRJtIAUF2zdr3JQS9UKEI6tm8nZcuW0XeC8Hm0srXbdFU6tfsexjbHBZHBCzqgmkGBBXB3Azij46RDw/Iy47tdpfPri+XQ4UtyD7uqTCvA9F9f7yj9mlaQpj+ZK1cV1GrLUAMyK5QpLNXLRsmdmAQ5dPaG3I2OlwKa00pRUVVlU2d/t5vM3XlW/jRtt5zX/W/rdSROD1ZAW5ljyxQxXRKOnr+ptldBqh5rklrTm1oQQDlk9FQOqGZUYp79DVBVo0UVMD1gT58+k7yaFiwSbV6eeWqcMXTbNRwKO9q2dUtp2rSJ5rDeMZ55rO63QpfePHrsmJRRgzqwfz8pVqyoYagwoqtXr5X9akRLlSghnTt1kJo1a2gLr9sSoWEtDOmSpSvkiq7HnZlc2CzceqYPdUA106IL2IHJQFXb08xf+CBQtSkqFFpcv3ZN5sxboECzlvZcHCTHFGCSKsAE37JFc3WmLsicuQsMM0UrZ3XvAAAgAElEQVTolc9uKEg9dPiwXDh/Uc6cOyctdNLv3q2L7Nt/QC5euiSREYW0h25z2b5rt6xZs+6h/MGA3WSAT+SAaoAFGoDTPQqocnqceZyknj16KJEw1xAJFHBWqVJZdio4va12tII6YPXq1VE9ni9Hjh4zqS+NmzSUWjVqGAB7SYEqjhXvxRMjhkmY2l10GTaVcxNRmzR1utrgqyanOxg2B1Qf31MyjOpdH1Cd/b1u0uc3y2T7YQ3za9ifgqE4bbNVvXJx2fvGAPnivzbKhKVH1NEqLK+Nbipf6VFbzmoOa6Tmr164HiNf/s9GWbP9rDSoXUZmPd9FqilYvang9bqe/2v/2SQLlV2tVbWkvPOZVjK4eSU5eeW2lCoSIdtOXJVn31svx87d9K3iFQSbA6pZeEhM+OXKljWTuBeo2lyoRGVMBw8eYEAnYamG9eqZ9cJXrFwj58+fN5Vr5LcStpo0ZZphTam4HTigr35/UdfcXq+MlOa7ap5Ua53cm+ukT0PuG7c0dzAk1OwHqzpXwYQDqll4kJk4NJir/h/FqCIK9LVf315StEhRw0SVKF5MypYrow3hjypLdVfZpWgDSvv26SWfTppiclk5JzmvFxSMzlOnDZaVrYSmABRVxwvGigKtaD22nx7XoH49GT9hkgk9BUOeqgOqmXhJsvkQb45qcdVRf0aViFUpTcMaNXK4LF66TA4dOmyYVADs0aPHk+sGnn3mSeP0L16yzKRVVa1aWQmDvjJh4mQFoNc09B9pOghU1ub4V3T1rjNnz2pKDJGxKPncs8/Idu0/u3nzVrPf/c4D2XzzWTi9A6pZEF4WD7VAtWOjCjLrha7S+9f3gSrRJjag4/If95IDynx++e0V8kT/evLXz7aWz/1dCa9j6hDp9//6egcpouxrt9cWmxW6KpeJkrkKfGduOy3vTNsjN1Vfb129Iz8d11w+36WGPP3uOjl15Y4U00KteS92k+X7L8qX/rpWEsM1tSCL95QThzugmgUppwZU7SnjNAzar19vw6SyepEPTN7TkBFFUgCCeFN53atnDzPh39LFDjAiT4wcpmzUBVmqxpVjSURBmQC20ZpCAHjF2Hbt0lEn/PqaWqATvm7B0C3BMapZULgAHZoaULXgG90ChJZUFh+giq7yWalSJXUlm8qanhJpwvwUnUyaMt3oLeknRBYuXr6servc5KNyPkKmtA4qp+kElStVMnmCNBkP099TlIkKlh6ODqgGSPkCeJo0gao6/jhZo0eNkGUrVsr+/QeNTqKr6CI6SW4qThPRguXaQzYkqRCrt9rkaTNmmmhViJICHEf6VmRkIX0Hqph3IVJ1vKHa73UbNsl2TXVB54Nhc0D18T2lRwLVpJRRiq2m/6C7iciP/JU6TxRVJeiXN2NMGF+0WGrM4Abyx2daScOfzJNrGs4njL/t1f7y6caT8tYHWySxRKTvJslDNcfqPrCnmkrw2tc6yICmlaTDS/MknsV2XOg/bYW4Pzn6Gv4HU3uqRzOqqh+a5DxAWU8mZ4AqBpIik0qVKgh9RGGsCmt6AD3gpuj3tLRin5GaO3hWgeoyNZyRCgpMkZX+kFdYuXJFneirGaNYTJnYy1evynRla9mChZmigMH1UU373ciuPVICqjD0JvE+qd8k+aswpYRE6WzRQ5n/YpofDfDEbQoLDTM6OFnBpnWwWLHpkk7sS5SZgl2KVUesnKaz9OyhRpeVRTSfGl3H+UIHeCeCpWOFA6rZpY2ZP29qQNXqFHNJbU1JgQiYPWeetl07aaJS7du2Nl1ZOJ7UK+wq4fzlCmYhE+iV21cLtKZOB6gS0g81y4y2a9NaGjSoZ+y0yW/VYwG7qzQ9i9QubLVjVDP/PDNy5EN9VIOkPdWjgaqvaqqAAsv5P+xhclGf+PVSSVDWs06lYtKzfjkZ3qqSVCkZqfmmUXJRgWu7Xy5UoBorEZGhsvGlvjJp00l5/eNtUqBohEa5ND9V7XnzGqWkb6PyMqh5BSkdFSG1yheRtYcuyUAFwQlZWIY0I88rq/s6RjULEkwtR5VTAizx1seNfUIOHDio4f7VUq9uHQ179tbw0VVjNEnGp0NArZo1TejfGEAtPgGontPQP0CVCR9w0EzzWrt26SQnTpzU786bY6tXrSpFFDxwrG2dkoXbyZFDHaOaI2J+5EW8QHXBwiUPFFPBGpF3N3bMKJmnHSv26wQ+oF8fk9e3WJnSs2fPmSIVclL76+cTJxP6f5BRXbZshQGxvAOsPsba8Ut0ac6rCmLJze7Qvo00adLYhP6DSW/zS8P/YOmj6p+jOmv2vGR9wilCTwcN6G/A5CcTJhqHa5R2aDly9KisW7/ZfB8bG6MRrBFy+85tWbR4qSEKSA+wjKqvYDXRONakWtHdZafmV/OesO/TT46VXXv2auh/i+kO4IBqzti3YAeqNkfVG/o3Bfha2V+8WCHZ++ZA+d3c/fL2hO0yolct+fhrHWXD0SuycNc5TVOJkWa1SkrfxhWk+UsL5LoC1rCIENn0cl+ZsvmUvPrRNilYTIGq5qu+OKyh/Gpsc5m59bSsP3LFsK/D21aVKE0b6PHqIkkIkrxqB1Sz8F5ZRnXokIEP5agCJOnFRyHJhIlT5KK27SEEdVerqmkJFJ+g+Xq6T5PGjaR3rx4mHwqgivcOUD11+qx6+KtMqInPxilwoE/gylVrjdd1V3MFYbnq16sr4/VYcqgco5qFh5nBQ4M9R9W2p5o5a54cP3nCVP2Tn1epYgUDQJnAp82YbXJPx44epQD1rMzWXGhyqAGg6HV9DZlOmjzVx07pf7Rpu6wM1MxZc0z+Hswpert2/UbZoOFRogchmrYyeFA/07lisqYNBFMkwAHVDL4kObA7z6SP2s8o1bfJU2cYO4h+UuBH0V4HrdJfqo7Tlm07pDFpVsruj584SVsJXjItpkppmzacqeNKAFhGFaeMHFW6tVAASPuqdm3bSqNG9eWDD8ebd4PwQ80a1dSJ6yvrCf3r8rN0BQiGzYX+H99T8jGqsdKxUUWZ+d0u0ktZzZ1aTHWPsDxhegWd39HCKcBl3R/OkVOap7rxtQGy69Q1X04pLKkWVI0Z0VjeeaalNPrxfAWq0RKuuacbX+ojn6w/Ib/WlleJUWFSumgh2fF6f/nD/IPy9qf6GQmE2jT/9ec6SR+9fqeX50uCK6ZKnzIEe+jf155qoKmepuofFpVqfhjQNq1bydZt203Vv48pHWrAKPvijRMqorCEYpPJhlG9YzzyUVpdCqCdrWFXjCRGF7Cwd/9+YxQBFeRIYUxv6THe/oHpk/rj28sxqo9P9vbKJmSpRYBjRo9UnT2rLdKuq46FS7jqGa2pKBihsOTGjRtGH5s3a6YTdSs5qMUoFPaVNrmqVcxyf59MmGzaUcFg0ZWC0OqhQ0dk99695n3o1bO7TujVTecK2rZx3SpVqphjcLBoGRQsudUOqD5+3fWO4H7ov5c67HU0cnXIOOvhqstF1RGiiwr2cou2kKLFGp1Shg5Whl/t8yHtbc3yqlT9k2+9Z+8+EzHgM6IBo7WXNZGsg4cOyTYFocU1zWqY5mDzrpzUdm5RhaOkojp12GFC/1zDhf5zTj+ClVH1tqearpX6/X+7wlT9hygjWlhD/D8c0lB+NKiB/HzSTnlr6i4tdgqRza/0k83Hr8jX/77B5KLW0Or+id/pLMUjw6XVKwu0uFqX71bRb1FAu+3kVfnKX9ZKnCLispoiAFB9a9Y++dOsvbqiQEFpU6O0TNPr7jp1XQZqIZcL/adTZ4MZqJqG/2rkYErjNfcOT5t8VBhQWKbtO3fqKj27DCiFmSKBH2DK8nxUT0eoBx6jbU5KaA9ACqIAqkz49ZQlhSWg2Gr5ylWye/de0+anixZPAUwT9FwYW19Ci/iqp3ULlgnf5aim8+XIpt3QMSbyNm1amUkZ48lEzue06KE6mqpmQva8nzBUTRo1Ur2sbYr6LiobxWRdo3p12bBps1kcAIBQUI1jW83/I3Vgx87dJgJQKInZqqrglPPTc5LJvpzus269Gl6uHQRNp12OajYpYxZPi12lGKqGOkPYP6OH+nNd86t37d4tly5dNuQBn7MvNQLt27UxXSli1F7v3XcgOfd6h1bvQwpQOEiFf+tWLQxYXbVqjdxUB61ypYraXpB3JkLuaDQMu0zNAEu1sqgLtj8YNseoPr6n5Gv4H6cN/yvIip/0kmgN9d/UdlIlo8IlwqxMdUt+PXufvL9YnS4FpQmx8dK3RWX5+Ovt5bbmrF6+FSPFdd9b2iO1SsnChnW9qp9JbKJ8vk9tXe2qnVzXgqnP/3ODzFp5TL4xvJH87qkWcuzCbW2pqn2EdQCF9TqsYNXu50nFVI9PHOm+sgv9p1tUD+9oV9iBhQKM2lUeAJKXNR/vui4nieFLZrJYclUrqatVq6LFewXlrOaaUrBSWpeupIE6htSuAkQ/vxIli5s2VVc1pxXAYCqn1YCyH0wYQBmDe1b7VQbThO+AahaULkCH/j971wFW1ZV1NwIigoC9F7A37AW7omLFXmLKpEympEyaKZNmJjG9TZJJMpP8qfbesfcuFuyKDbtiQVBB+r/Wue/glYAKvDx8L/fN5BMet5x77r53r7322vvQdumQjTXdbzYoYZClHbu50IlsIm2c9smfPVBMlQ75Cu1bA02jyj85a7U13QQ9GechU8Vz0nZ5HBanEMQ6y8cCqvfenTIXTdGutD6U1sxiJy6hqt7LtHBbkaBeRY22R7s0KgiNYInbmyU96n0MQoCFhvq9zP2ZfWAfVcpYaMfsn2o1/HesfTgro6pmCSSAP/qZtg4sBXB6c5WoxJR02XE8TuKwjKoAjGZ90AWgDlatCgO4JdBcdzBWYi4lSeOq/rI++iJkhFyZCnYMsiwEBVe1K/jKWrSfijl7Vb3ZW9YqI13ql5MEgNuVe8/JDRRrVcXKVRsPYaEBJyAJOA8WUC3g80XnS+aTb7ubizy43fLyMr8o9RKSalsYiYeNbc0ODliNynV+yZzqHqkEpnyR6hYr3J8vTmeJ5DWYdkWgqhyXzSkW0KR+9921M86NydQ2xr+bt9VAwPy93lbfW/03s82bvzPOaTwpdDbUZVmM6u9+y297AoItSoyY/VmBAk4f1Q+0cMd0t2en/eWWScoCrjYbM9tyTm3R+F1uNp/Tvvo78/Nyt+MuzO1cklHlEqGw4Xv+o0ECwSVXojI/Z3w1osjJHYwne6Oqj7JvvCu5LVeT4g68TgBcAcMqqPY3CDK8R7nyH9hZ9fBSe4r/tNRAnYffs3iKX1LrCl2rs3y4GEI69LXhHWvIzKfaK9/BFbny+3HDQ5unV1z21D9ZHldw+Dm9vHICCNlfdmaHr519bvvpbfXyqs7g8DlmMhmu0J6K18LAg23VuHSoM0gv8vtgm9lV88/Zj5d9O22jervb7ZvfsTlqP76bWGjDNlzO0v/1buYmjawgnN9OLGtLoFoChUkG0+56n+z2l5s95mTvd7uvM8wauxZw9Tm+h53RljWjevZKolR9fr4B7JyEHVSAEWMl+Mr+4XOnIJT5Wmxg1bwtNyGAVdetIRePaduP86OPo0+jl7DWWFk9404yZx4kjNGGK7xTIQJV3gA6ejp8nf52hoc9P2P8ozt8Fc1D08gXJKttnfElqQMIrXtj6xtqkrVGLj92Ye1zb8+ATv1Xw2IFht2mq4U3XOHDrAxtVxcUeUODmTe6wRVm4Y9zDQajijZF4X2lGnrG8h3sLOSQvkvpBG/4JRbtloJeipBErmsPuYczNK/Pl6WZwWt2IHvLAW/mdc0ANmuT2+6br5E5ZCeDUYXNdkQrzyfbKUa1aAFaa+WbUSVAZT/QOFQcWw7fIfe+0E6i1uBGH07253TGlyQnTqcJ+XPEosUSE3NStbtxZsaw0AziHj+xvqeU3jRsUF+15iIbYRQ0Ov9HB4unTp/GAg9LsrSezpKhcf474Lgr0AlPangJVFn34IxkgR5zEnSd7d9bLjsPX5IMpsMNTZ3jJtQ60+8/AzZGmbKGp7Ai1+f3NVetthya+jc7/KXLV6gWIyzQcLZ09u9/t5z3DGZ5A50fgSorb1thpRdnfElqoMp/GVTt2bcPqzGtdpr2NM5rSYU3ctowmce+fXqpJWCd1W5zmkENXvhczpkXgR6jseodnEcVV+HdHOvMdz0DuqUXbbgX2huyNoIfZwtK2NYOKkulrX6VrZwmR4mnfzFUthu1ItbHdWZAxR28r9DVLkWnhND65VXnJN77/H7yxahqQTwj+nnzF6pz6wKi/A7E2u/enAE6QzaNHzwoXEqgN+HtiiHuzSswRmV24pl4aJYuXSkHoqNVYZsra1Xv5Xvye4yNTi8DAJUZn+bNmkqH9iEuxzhqPT3tlq2WuNwo2zIxQ+BsAOb3sAFXOSbvM7MCXIiDPbjZB1YTRc52n3ktTP9y3PFotTTwi3WydvtpyWRxUQEAjKvca5e6DhbKpWbIy1gI4d2hwUY7RXbmLABznmeganb6PPGuPXtk08Ytap1wzaq61KT/gS+G4m+uSNSlcwfVg9NZX5LmW6ivgUBmF5ZWPIJm9wloZm99XGMG+E4KQO/NevXrSP26dbNejgV5Sd6LM2MGq7GxF9RCJefQMo+Bpatd6704/7/3mHh/yZKz7WHz5k2waEcpl3n/MsBif9EPIw7I9MiTciYuyUr//94G5ZDjQ16Fe1uvvK/8uWtN+WuXmuqsBlAtmLwjz0D1lqp3DIDNmi9cuChHjh5TK+MUdEAOmU/rJLedAXWPYXCl0EO2DlaQIZPq7CA1e1pU2ynTw/zP+rjODDC7o1ny7DIWV7hK8zUpR2BzAmTfFGvlChf5B78Go7esW1aqX7+/zO24nGmKbo5fZYXVtfFDzWoKGTjLap3pduYyVoMx98bqXNSj2tNm8wxUOcK7rYR3gZm3LsFF77f5IbJusuvNgDmwcsWCOfM1OXsQ6XrWZ78rMphzo7VRdt9rv7M47ki6iN3oyXzzuhw3AutMjpgBtuGiydorsMoXUNUPjPmCLSG/I26/48+RnSF3dsY8e5Tn+Bm1zuioGbDXS9JR483rebIzq3nd39reOWbgtwtwOMe4cxql9f513nuX15Hb8/2bb6Ca10Fb21szYM2ANQPWDFgzYM2ANQPWDFgzkJcZsIBqXmbL2taaAWsGrBmwZsCaAWsGrBmwZsBhM2ABVYdNtXUiawasGbBmwJoBawasGbBmwJqBvMyABVTzMlvWttYMWDNgzYA1A9YMWDNgzYA1Aw6bAQuoOmyqrRNZM2DNgDUD1gxYM2DNgDUD1gzkZQYsoJqX2bK2tWbAmgFrBqwZsGbAmgFrBqwZcNgMWEDVYVNtnehemYHsbX2s1mr3yp2xzzh0CzV7tkexz8jsexRzqx/2peR/bE9pfVxjBtgUn33x+a8r9gJ2jbtkXYUjZiDfQDW7c7ecvSNul6PPYbwozR9n7qOaUw8/Z74eR1uDM53P1e/1zWCLK/1w6UJrPSpnss+8jFU1T+f9tUUhzvzOMuMExlSq778VXeXFHO75bWmfxA3mN1JBbTZfQNVameqetxW7DtDV7rf5eq7Ex8uVK/GSnJyMB8ty9nY1HAcfDHyiFC9eXPz9/cQPy/7y48pMlFq1CNdIxi0hKVX2nIqXmEvXJTUtw1o73cG2Z9fT4b4W9XSXmmV9pWFlP/Hx8sAS1jaw6sQ2bX4WCb6t4MquVnPPHUzfY5Xk4dLO2VmvPIw4z0DVnDblz1xTOyEhQY6fOCmxsRclMSnRcvh5uAH34qZ0f/5+/lK2bGkJrFFdihUrZjh8DrYAxlaY12qO2vnAJCYlycaNm+XkqVOSmJgkKVgn3YKphXmHCn5uvhCLeXkBrHpLYPXq0qZNKylatOgta04X/CyFfwRtywaTWkSmRZ6Ut2btkSOx1yQ5/oaxmLr1cd4Z4O3zKCLFA7wlqKyPjBnYSIa0rKKYc70spbNdnBk3EHS7Yy14BlaL95yVDYcuyZXryVxP1dkuyxqveQYyMqRWRT9pWa2khLeoLOX9itkCLAUcCjRXeQaqBjimFsoAqUePHpM16zbItWvX1EAsFr9A9+Oe2VmvLV0yIEC6du0sFSuUh9FlqKioIJFRYV6gHn9ycoosWLhITp8+o4AM7ZjXa9luYd6dgp+bMRSdYHp6hmLI69SpKWE9uqv7a8RYBXtZFnyE9jsCr5HOfvyGGHno6w2G7YKF8wDAKaBPsN8grSPlewZ4P9PJjKemK3Jg2rPtAVarSTrewWQindGWzRmAb1Ycklcn75L4qwistAYg37Nl7XjPzIBNglS3sr/88vcQaR1UGgFWhsr6FMRm8wxUNUjlSWNjL8iceQskLS1NPD0975m5sgZijxng28NNOXx/f38ZNKC/+PgUzwpQ7HEGRx7DHFxt3bZDNoBN9fY2mGIdfBXkQXLktVjnynkGsqf5U8GSdw/tKnXr1FZBlgaszj5/ZNYIuc+CPW07dpmcPHtV3IsxPWz4fIVaXQiUO/v9yvP4bfeP9xixiKQlpUmDwJKy6pWuUsbXyynfwXw2mQr2wAUt3HVW+n24SjLc3aQIAyvmYF0nhszz7XalHZQ/xc3MuJYi1asEyIY3uklFf8PPFuT9m2egambVlq9cLfv27VepYf29K2vCXMmgbnct5jQNjYtgtV1IW2nerIktone+FI22T173vPkRchJsqoe7e4GivD+KPTjrdaakpEj9unWlW7fO6v3kjvvtCp80sKl0+Auizkj4v9cI8hw3L8vy+K5wi41ryCqeAmCF/1/1WjdpV7usyhjw/jvTJxPPX6bqXiAS/sU6WbjlhBQpXlRdi0KpVnDlTLczN6Yg614WQRCSkZgqHz/UQp7vVVdlugpis3kGqhrEpKenyfQZc+RyXJxCyhYb5fx2ltsV0OHXrlVTevYIFb5wijihw9d2S/Z//MQpknTjRoHTEa57x53/yvg+YoBVtUoVGRDe16UY1ZS0dGT5i8hXSw/Js99vliJ+Xgggnf+eWVeQ8wwQk6YnJMtcANW+TSopcOfp4VxBl6GvdZM4aFEbvbFYzlxMZBWgxfy7qNEDpypWdUS3mjLu8TaKUS2IzeYLqHJumVb7dfxkpP1TC0TpFuQ+3Y69dRSzm/08jjpvQeYtL/vS4RPU1aheTcL79XFah69T/ASq4yZMkhToVAsLcN+NjdzNNnd7H83HMrPlWm9slvPc7TGdYTsGWFWrAqj2dy2gmpyaIV6eReTThQfkRQBVj1LFIWUshAIqzfhRM0kC0GYU6me2HdKsoD1ZXjPzpn9WaUWkkXGeNBaSuRg758HrgpZz3uuhWUC1IOxUYTy76bxHOPG5+CSp+tx84e9KTF0YKf/b2YejbCf7eRx1XgfdfA88j2mQJvXrWENmP91B3e+iBcgC5AuoGmxFKpgpOHw4g8JKqeXmzI33otEk+fd2+Pq+myUR9jyng+zqtqdJxj0mUO3ft7dTA1XarQaqN24kF4rdatugvfA/DaCVxWJ8fJbs3ahen1Mf1zwGso7Ul3t4eNj1WSlsu81iVF0QqKagyKYotH2fLTooowFU3QOKAaAV4oyz4EcDRDUMvIAxPjeAaYVH7OyEdctYphON0+F8aM+lJsG3qC39aAzDFT5kp9KvJjs1UNWMKoFqlecBVJEVKLQqf60Bzt4j3Ga7fC/bVTSbU3CVBRxgw9qgbdjddWw2RcIBVGc+1V51rGAWKL+ffAPVlJRUxUyRWS2ISDa/A7+dw9fOnxXd/PxewNE8Bjr6NDx8qtGtPRmE/E6QnfbjtdwAmHE1oMrK/8KwW96W9PR08fXxkZIlA4wxYI7JBl1PTJSLly6pl3h+gGNOzKk2A1YLp9uKHnlP+bsPeo62bd1Sog8dlhMnT6lz5vS86OdJ23X233PbpzCfgz8SUPUo6V2ojGqz6iWlNACidkT0yzuOx8n5i9dVJwLliPPihG/HNvFvyayEh9Whv6j6pKTJ/Z2DJKRmaXlhyk6QKARBNxvkZ4EOEwP7m+/M78t7jO1S7FSCczOqvwGqWptqJz9114fR95bn539ZrdyYqyZoxP+9PZWm0q5g1RY33cwy4Auc3quouyTDfm3A4a4v417f0LDZZAuo8kalwvFWqlBBatUKMpgoGoNKVSfD8Z6UU6dOZznfvDjN3By+Zmi1rRNkkKErV66sDOzfTzZuiZSdO3ej5ZHRASEngJz92NzOPLZ7TUpgAVX7vxLIYjZsUF+6dOool+IuSwaAK19UAeiukIT+rkuXr5QLFy4q283OgtI+NMC+E4t/014zcWw/qVipkhw5clTZLP8rD7sdMnigbNmyVbZs3a7sNic2NzdgmpOMwDxb5gI2+8/i7Y9oAVUHzDiZJ3zWvhYqtcuXkMPo40p86A9H3wDtab5cAsZ3wg5JY2ua7Kl548UH4hVBEzNfAAbcxl0FUUYzeA1u+LuyQW6Pf8NbVZFL0L+t33teAeG0pBT5+cn2MqJ1VakzeoGcvHxdPIoiQ5DtHcxj6B6eenb0d2bgqmUENzHNzfM7YFZ/cwoLqNpv1pUsJTlNOjSqoHrTesN+yCvxnp+9ckMiok7L5oMXJBP2k+dMQI6yFIUEjGPxcaFMhq0QMYZ2DcrL0hc7y9/HbZNxK46Km5e72iTH896Olc1pHztnMfJ6ByygapsxBUjh1Js1bSIdO7STveg+QHaX31cEeC1TprSs37BJdu7eg1U+bjrg7M7VDCjNTlrR/7QrgFHt8MmEVUMqsXHjRrJy1RpE7jfUi48r4XTu1EF27tojMTHHbwEY+vj6OLrAUQMOszzBnKLNDkJ+L1b4TgZoAdU7zVDe/q7tNhg21LpVC5k1Z74kgUmlXtbb20s6tAsRPwDWGTPnqGIgBmPsTmBmWGnntA8vNLfnhzIGDxRX0EZoo1p7qjMK169fVy2aevfqKf/34y+q59OAe9IAACAASURBVLFPcR/V344tum4kodm2IqAylZSHUgCe19AaZqquHgS2qalpxlKO+Ohzm58ntbqXquwFmMaYvZDR0M9RXgLFvM1ozltbQNUes3iHYyjnmyE73ukly/eflzcm75QiaJPljXdml4blZOoT7WX0lCj5fO5eyWTaD22WslLz2rleTzGYUTBLkoKADQ4c6EEEFcNArWC9cI7i+J1tjPgzUscbP+0ne08nyOPvLJfMiliBDJt5AnAUw39XkSJXx+L+6gWOPzLNTNSKvxcpBraMvTv1i5iABABBM2tFMM4Mygg4Fu5L1g1ssRu+J5i2N8t2N3fJAqp3M0t3tw0DoHRoJ18c3ljeGxos/1txRBJxr/l9t/rlpF4lP/nLT1tl/KojWD3EAwSrETDpQIkgUr8DNet6c/VibGuTDTBDZrSRMzIAfRFEPYI0+MPfb5HrsPEM6MzrVguQrx9oLu/M3SdrsPCBG2yRam8IwrIkM2bcoMhfG1HBYxuAltd9c8nSDDwjBMI0b7194dmsxagqq6RjbBLcWJo2aSyTp86Aw76hmFU61ZC2raV586YyddpMtUSmjqT5d+1cuR1/pmPmv/xd6Rjh7Olk+aHjpsPXAKNe3ToS2q2r/DxughAAeMOJExwQPPDYPBaNlcfSKV2CDB7HkAfQ2RcRD08PSVYAw0PtZx4TJQTFixdTqyWx6XNuTNfdPZoF28oCqgWbv5z2pt02btRQWrZoJtNmzFbFamzeTnuoUL6cDB82BAsSLFZBT4P69VRnjfPoWUzAStusXKmiFPf2lqPHYtTha9eqJRcuXlA2Wx1aYn6YTTiFFlxG4FZe6tWrq+Qbe/bulzgcj/vS7rjy2LnzsXhGrkgJX1+pVq2qykbUDApSfXP57DAI5MIPtWvXFE+c4zy2P3r0WBYgpr26Ayjz2SgFOQNlQadOn5aTkBPolaEsoGo/O8quUS3U1D8c446xYTJ/5xl5c8J2yfTGe5OA8lqy/PR8J2mLdHzDF+ZJrRolpUPtMlig4Dgy9UbDV6Y972tbTdYfuiiHTlyROnDc3H4e2m6NCqkutcr5yonLiTJhXYzExiWCECgmD7StLv/oUUcu4PhzNx2XJdg3CisbtaxXVqqU8pY5289IJuwxrGllnCcdVeYpMhLHSryRJvO2n5Yd0RdkZOea0jKolFwBmJ2++bgcOBmvwLIKzBJTJBjjHAi2LQCAOQbV6T+tOypXEwiobYDWwdIuC6ja79khqMxAMPPC0Mbyp/aB0uzVhZIO21CBEFLw7z/SUv7WtZY0fHUROhNAukJbpXyFf9csJVP1BI0MsJQUxZa6Z0DkA/KAYJXHhP0Q1GbEJclDferKF/c3k7JPzJY0BlE+eE6o7ea+PD5AsToXAyR+eD5+D3tU57FtVwTPDKvp1fYM/giGydDyfAC/RfGMpHAfBlgM+FRAprCsQz8Wo2qbbgWg4OAJVNnfc8asOYpZ0kDV36+EjBgxVBYuWirHj5+QPr3C5PDRI3LgQLRig6i7bAWgQDZ09Zr1ainC0G5dsKTmaQkI8FfVwgQGMcdPyqbNWxTAbNY0WBo1bKD2T7h6VS14sBarcnkDNISiVyMbyfNclQAkWrdqqc4V3LihFANrlQjWbNnyVWppx4YN6ysG7OLFS7IOrC8BLwErx0QQ0qF9O7DAMERc43Gcf0tkpALajnb2KlazNKp2fcC13RKotmrZHHY7V2UGCFTJYvqX8ANQHazslsu7/vnRP8nuPXuVnVBTSh1rWHc0UUbWYNLU6cpuRwwfqsbI5YsJErnOvR/sP2LREgUojWAuWNkpQS/tduOmzQiGisuD94+U5ZAa7NqzT4ICa6hWTmfPnsuq2KYt799/EMfzA0uKFbxgD+UBprdu2w673KaeN9pu77AeUgGAmOCYS5j6Y/vIrdtkB6Qwnjbtq10n8g4HsxhVB8y2YlQBVN8Jk0W7z8obk6LEjc4Rn1To075EW5qOdctIi2fmyaP968t3AAGlnpwtVwAy6WBL+3vL+S/D5a+/bpUfZ++TB/vUl5+xz5qDsSBR3eUSWhmFBVeSJWgQ3/+zNeIH5/7fh1tKz8YV5BLAxqFzV+XL5YckYtVR+QKp/2Ftq0jlp+ZKBpz6tBc6Snekd7cevSzpcOBN0DCf+GH2tpPSqX55OQGZQod65RS71QPN5/eeuqIA9mAA5x//3EZOg7k9dv6qtK9bTk5eSpRB/14nR84lgPUiqeCAuTWdwgKq9ptvxahC7zsaQPWxTjWlzdtLVRDDvp9p+Lc+Aqqof/WUju+vkK1HLsmc5zrKt0jLL0BA4w77SwNIHDOyiQSgB+wLv26TYvh3/F/byMztpyQksIx0RMDkAxuZGnlCXp+2R7USe31gA3kMGuqS2P9o7HVZGx0rz43bIVXL+8qPj7aS0VihK2r/OWkLW3+1fz0Zv/64PNerjpQs7iXHLlyT+/+3CaC6hjzUMVBKgHXddPSSPANJzUUww0XwnGTgeeqAfb+4v6l4A9QSjE/bckrewbLKqWSDbayr/WbxzkeygOotQDUJDriJYlSnTCOjagBVFsqQKerXtxdSq/Pk4oVL8vCf7peoXbuVHo8Omg6/V49uUhoSgWnTZysmdOiQgeILVmn//gPKmQeARWoBVnYDnPpWaPgqV66kgCqZqW07dsoVOH0WoZQAMBg1cqgsXroC4PSgcvjhaIlDneGB6ENKg0gwTbr+Sly8HDt+XDlvHvvsuXMAJcsYy0vFihUAFPrJyROn5MjRowpYMEV88eJFxbDp7gqOBKwWUL3zQ5mXLTQzT/DI+z9pygwAVaT+bct8du3SSWrVDII9z1TBzUiA0AMHo6Eh3abYe7KvnTu2h760nFoVjscbPDBcMfQEvdeR1uexhgwaoOxtzrz5KmVfG8fshqVwJ0yahsDomrJ3FnTR5tesXa/OUaVyZRk0sD9A6171HTMFIW1aS9s2rWQFpC478fwwNdWtS0epieNNmDRVBYtdIHvh78xqXL12Vb2cW7VojqxGG/VcXkVQ5+heyxZQzYtV5nNbIjbc66h3e8ssAMC3f94mmTamKCiwlGx6vbtM2Bgjz3+zUUb1rScfDW8i9f+5UBLIKGHfkiW8ZBfY2Jen7pRJi6MlvEtNmfZkO/X7v2fsVoCwdZOKsvGN7tIbQHVp5CmVeVr2Znc5cO6aPP35asksg9Q/NKpv3dcM64tXkpZvLAVQTZXv/hYiw5FubfOvZXLw4HkpXq6EHPyglyKaGrwcIYlguUpBV3v8s37y+szd8iXOV6aSv+z/oLf8G2N5F7rBTD6TkAoc+KSvrDoQK3//brNiqSygmnd7uVeKqYzUfxJS/03kYTCqwa/bGFWyk2Aiw/Dd9KfaSTB6vZ4Gm3/xP4PkhclR8n8RB8STbOWVJJn6UmcpVwLk1Nil4luimOx5txeAq6f8FwHT7pjL0gBr3b/Yu6785eet8tOiaGnTsLw83bOWhNavIGPn7ZMDZxJk2a4zUg/b7R7bS3p8vFpWAQj3BBhd8Fwn2QwgOhFglRKA1wc0QDCVjkAqXhbtOC3FsTLZmPAGMgc/P/rtJqXnDkVv3cXQus7adloWADBXRGbh+V71ZPHes/KnrzZIBsCro2UrFlA1A9UkMKoAqUyhLly8VLFJZLo9PTwVO0qGatbsucqZj0A6dffevbJ9e5TS3NHhhwIUlCpdSubMXQBmyl0xWay65spFGvAOHNBXsUmzZs9T+9RBmpVgYvzEyYoJo8MnUB06eIBy5odQQU0dKwHnshWrZA+YKmoBWzZvJl06d1TML1lXygM6tA9BCriRjJ80RVIx9v4A1impKQpwKLkAGNaaNWuqPpARixYrpsvRS9VaQDXvL+Xb7aEZVRZT0Y4uX45TtsAXOdnREmBCI8FURu3cJcW8ismwoYMUiNwciQALgQvBK/cjUJ2JIIzB8ojhQ1Tl/kYsC8tA69q16wCz7aQK7JB2y/ZidbBgA3XUU6fPUhpVjoMMLW1+9Zp1sg+sKe02vH8fpZtlcESgypWd2sNOZ8+dB8lAvOqb3CS4EdjglqrrB48zELbO4GsX2NPikAsYSyoXVe3Mtm3foQAunzlHfiyg6oDZtunkWEzVANq+Y2ApSedQrlStrC+KU5KwctZaOYXU+v1I138+qqnUBkiMpy4VNl8KjOq+93oBCOyQiXDow7rXlv/9qaVUHz1frnIbGLc3UpyHP+orb8zYIz8ui1Zp0JUvd5Xo89fkb9+sFw8AhpSEJHnngRZI11eWJq8ulowbKTLx2Y7oROAlvaFjFR/IscCWrnmtqxwBo/Xo1xvEDUxYxo1UOfRZf/llfYy8C1BxX9/68s6gRtLjk9XQbaeKB86VBPbtzxj7I50CpfHri40KbVtQ6YAZVqewGFX7zbRmVJn6f6JbLRn05XrEOdTju8FePGUKAqWjF65L9/dWiDdsZD/s8zXY3q9YXMOjRFGVKfjlH+2lNADqgI9XiRcCs0Mf9pEFO0/L3/69XjJs+ugFCMC8kDUN+2ilai02okct+WREUwl8dp6k2dL4dar6y2YEYVypa922U9K1VVWJgFwm/Mt1shRyl0xkAv5xXxP59L6m0ghShGhkGjIhDXj3ryEyFNs2fGWBsuulWAhiP8DvMx+sknTKBJCJaN21psx9pqOEfrRK9h2/DN022w/abx7vdCQLqN7CqGKVC6TR6bjVUmxMWOLlRtB55uxZpOU3KodLJzlsyCDZs2+fbEN6XgFVgMzuALMEqrPhmMn4jITDp4ZvK5wrnThTqZ06tJeK5SvIbDBT1IzWr1tb2rdrB23hLAUaGOFT20dAwSVlDxw4BEa1uvTp3VMBTmr/6PDJxLZGK6DZABcJCVeVppUsa5PgYCycMEmlS+nwz50/r1jWonD0BLjubkXUfhs3bYHTj1Lb6SrsOxmLPf5uAVV7zOLNY5iBKiUeR44cUQEV5SQseFq3fqMCd8UAShUIBZA8cPCQAqqaUSWDSaA6e+58BRRpe4cOH5FNmyJVcVQSAjiyrhUrwW5h27RbMqoMlG4BqmBUh2NfAtW9+w4iU1BVZSHmzI1Qmle2s2rUsKG0bdtK5iJ4u3QpTgFV2m2zpk1htxMRpPnKoAHh0KiiAwaYW12kwnExc0G7jUQ2guNytN2qlan+AH1UC1WjCkZn45geCkythv6Tr+B+TStJeayWVelZylqonUuXUXCc/x7VzACqTP3jU8qPbFSYvAQGdcLCgzIcgJDFJXXBul4CQKRnDQDrSsbqNTCev644JJkgBla+0kUOAXD+9ev14ulHoHoDQLX5TaAKkDnh2Q4q1drv/ZWSCW0pl+/c/EaoHDibIA+D4VUFV3DyxwBUv19zRN77cav86/G28gqYX+pfVUEgOxDg3zIopooDCxz82hKkW7GikoNXhbKAqv3ewQqoAjg+GV5fvry/OTT/RtE0gaon3mGLUNT07C/bJRpSEH8spLEXgPP1mXvl5yXRWUB1HGyrDOyyH4ChN4Khfe+HyZvYZvyyQ4p1TYae+tsnQiQILH4vgFlW+D/Ws7aMGdBIBTsM1DIQzLGYKhLZgX6QlazdclJ6tqsuk7EftzkLNpdFWE9jnM+H1ZV2Y5fJ2Tg8E9j3DQR897WpBu33fKmAYsI1r3STxXvOgM2NE08vT4WFiiPAe3dwI3kMdj0eINsN4yX76qiPBVRvAaqGRpVs5YpViILhmAgwudTnBgI76OjoLPnCYYHKLUA1O6MKyQCddnZQ0BXOvVzZsgoUEFDUrV0LXQbaw+HPVNpSOmQyqsOQQiVQPQhQQWkAHf5MsFmX2BcTQJUp/DYAnJQixMVdUawTmeDgxo3ll3ET0VPTXwaF94eeO1UVXvHBgbokSwMdBbZqP2QFupLbUQZnAVX7zvRvU//TVcBDBn8oWkWxWp7BDFlWaqTJeO7dd0AiYcu07WuwuW6aUUW2oAgCmeHDByugunHjFrCu0EMjCOvcsYNUqlxR2Vsy2Po6AKpkVKejmwAZVX58TEDVzKjORoYhNjZWjaFh/frSrl0bJTO4eBF6PyydTKDavFkz2O0EJU8ZNKC/RB8+rPTU1FbzdUi5Sxq2pRyHDK+je9ZajKp97TbHo5lS/zOR+n/nF6TLsWFHONFVYD0f+XEL2u4cVkzOA2CvPka6lUA1iYwSgnBfaPCOfNwHervtWYzqtw+1lDqvIChCepZBjz9A4r73esur03cZQBUt1Fa+bADVJ77dIO6+AAa/YVQBVJ/pIKUAIvqCGctgERSOtfH1bnIITOyfwKgqhgkOPUYB1aMAqpHyMs79pw415Inx2/B+Zk9NvIUx+KsADKkolDkIuUEqC2Bulnk7YJItRtWek5zFqA5pJE+G1paHf9giVxPTJLCcj0z6W1t59IdImQjAmQm78wPY2w/bewMg9CcAVU8/g1H96en2Ug5BVn+wld7KPnvJe/MOyHeQB7iTdYV29AdsU610cQVU02E/j4JRfXtQY1WkZWQUMm8FqpEnpQf00VPRHL/5m6gtgB5aUjLkuUENZXSvutL2nWVyEkwvF7Z4G0HZSDxjDZ6bIw1qlZVVr3RFu7Zkicd5PFW1vxFk8d+3Zu2VuZAVuLHbheNwqi0LYFX9G0U+cMhN0Z7K0KjOVE6RzjUM2tMgVC1PnDxVgUmCO6b+qVGNitqpHHR8fLz07d1L/AP8ZKYt1U72aj8KoLLSrDg+gSrZKzp8gsj6deqAUQ1RjCpZWUbeTLcS5GqgSn1s3z5huQJVVlKTUdVA9VekUIt5FYXWcADGuEu1uWKaV7cbItDVKxap6M+BVacWULXna9I4lrnqn8EMdZ4MXKgRZep95eo1SjLCbg+021Onz8qSZcuVrlkzqDzOTLCl7DuZE6PaCS3bCFTnYJtk2JpO/Y+fOEU9E0qyQo2qjVGl3TP1379fbwRlBKVG6p9ANSSktQKqly8zwEpVRYUEqpS/cBtqZOMT4hV768UuGLgWPmOlSpXCPkg7mYJL+89mzke0gKoDZtpUTLUQxVRvTtqBZulFJQXOdCZSmE3AGDUBO3QN7FD/DoEy7Yl2Uh9V1seOXFTMaydoSFeBDRrx7XqZvvSwDOtRW755sIUCqpfZZgofP6TtCVQVo7ocoBepzVX/7KraUz316WqBWFBV6r8Ntpap/6ZgPZnSJ1DVjGoGK6TxIVCNRgEWGVXVJxNA9RhaXX0HoPoBCmO6dgiSiGfbS+M3lsihnWeNymykhQNRdJUEEHCOLBersR38sRhV+034LRpV2GTwa9CokvWHLU8d3Vm6oHiuLlLqcfHJKLT2UkD1xSm7ZPLKw+IFtjQRxU2zsZStN+ynDwquvCEB2P9+Lxk7d798D6DqgUwCdawEqtXL+CD1D6AKe/xzWB15I7yh0r4SGGcg+1QHGtWtY2yMKoBqT3SnoPSgGYAqC/nIqN4CVNGBgjraLKCKbhqlIbHZ8Go3BHK7ZSrs2APBGQFqOgMq1bGAKxjoyn/Hlf5bjKrJZs3tqWaCXWIRFYEqgeOIoYNlHxjIteugY4KDJ5C8npik2CqCAlZNh6PCma165i9YpBgfzajeWrjCNGtZlfqkBrY2tH4sShmHdH3C1QSVsjVrVKOjDytGlal/av3oqOnMWeXNvplkZuPjExRQZTENNaqTpkxTv/fr00t8fH1UUQr34TirVamizrkDmkVeb2EwU9bKVPZ7UZoZVVb9q/ZUCHh4X8mksztFxYrlVSAUh4CmR7cu0gB6VhY3sSipZlCgBAbWkEvQts5bsPAWjeqGDZtVS6nr16FjRYBFoEognArdc/my5VThFNPwx2JilDaWYJJyF/YEJmtLu9UaVTKqym6R+iejSrslo0qgSrtt0by50qjSJmmfYT27o8AwSo4dQ3UsrqVRowaq1dU0aGI5bkcvs2wBVfvZbK5HYhk9aJo97/dW7an+OW47KqO9UD2dKnWrByBt2ks+WLBf3gDTWq1GKcU8bTp8ST6Zs0eqVvSXx7sESXCVALBam2UyloMdgRTn/8BqBr20wGBU8fFHyjL6gz7yChjVn1Hhnwn/+ytAQKe6ZeXpnyMlEvrXc9DnvQdt6yAA1YYvL1RAdcoLnQBUvaQXmKhMFkDhWAQFBwFUH4AGkEVSmXDmp74YIN+uOizvoQesJ7afO7qTBIIJI8sbi5ZUgWV95Jc/t5Xv1x6W53/apjSyDiSm1BxYQNV+tqzbUz0/pLE8AqBKpjIRdkDtZ1BlP9mDDhZj5+2XD7DCWQYKpA592Fe2oUBqFAqeMhC0NGxUUVa92lXWYlGAYdBfs+p/N+Qr74NR/QE2rBnV7wA4yaj2RREggfBDoTWh0W4m5Z+ao1YZY1EeNaobAXoHQCe7fusp6Q5GdeLfQ6TlW+hURL03gOo/UEz1PEBuh3eXy6lLeCYAVMfgOMMQ5DVF0JcG+cpyAFUPFIN1G7MYJAGsE+Ns1QL1Bs0qyycAz/FsV1WA5UvzM/sWUDWxM3TwLVFd3KplM1WBTG2eavMEhoqsJ1OUdLAsXqI8gEUh586dVxIB9pxk2pLggCCXjvQhtOrZDY3q+o03WwH1tLUCYvUytR9sezUEhVM8R/ShI7Idzpka1ftHjUDV/3LZB4dPMEGHTxBy4QK0fqrqvynG1FZVQRMkEJiymprf//jzOAVKuTIRwTO3P4YemlyogKDk2tVrCigXxnK1FqOan8f09vvolamYCZg7f6Gt/y/aUyHKJnvfD6wmW5JFRe1WhXxdUWVfFQELP9QpszdfWchRItAJgveHhXtHjx1DEZahBeVz0D6kDfRL5WV+xGLFFjCAIzDm83IeIHTuvAiVaRiMKn/qYg8iwKpapbKEhXXHcZdkSVZYTNWqVXPV6koXU1HGQskN5S/88BmivrYTdLGa/WfQuGoNCmlMq8PZfyZzP6IFVB0w2zZGdRUc5dJ95+S9abuN3o1siQPH/9/H2kiPRuUkBAVNsehJObxTkHz7UAvxBcN5Bjq+p8dvl3cGB8uHEftlytJoGQAd68fDmkprtAyKszGqJcCobkT3gHfn7ZXJa45JJvSh1QAeZ/+jgzSCo39u4g75BiD2NQDcsOAK0nnsSgVU/4c0LlsIjfx8rWTaGNXFAK9HAACeRLpXM6psrcViqi+wKIEb9H2+YKC+ebS1hDevLFdQlFIeBV/jNhyT0eN3SDx7VbLxvwOm1nwKC6jab8I1o/om9KkspmJQlAh7KQK7Ypunr9Ae7YnQWtJszBLZjU4PLw0LVgsDrMbPaQC0nmBSyZSycLAnGVUEN+fQYu01MJpfzd4rHuwMANue/GIXaFR9JeStJXgnIs1fxV8i3+ohx8GKjkOh1CcI4KhR3Q3764nivZUbj0tfFOzNRgFUXWQUjkJLnQmg+uqIJmBiG6BbRoTEQO5CoPrJY63lAehZqzwD0Juaie4BASr9T231IgSMZcGqhjevIrtPX5EBn66BJAD94gulANBK/SvLJXBjsQRTlnTgGsjRKROEtkEv05gTJ1QvSQLRBvXrqoboTKlze2r+uN76drSaIqNFR3727HnFONGJawdMsLADkgE6P56jChw6nTW1hVz9ioCyJfalhvTcuVi1Khb7p/K4TLNyPEzrBqLIisdJBLNLh04Gi99vwtKr+thkZzkOXzCr/LC1FntWUiPF3quO/lhA1f4zbl6BTK9MxrNwrmkrWuahugHgP27DIjo21icI9YQOlPaa2+pltxzftlKKlpEwA2B0tMAqUjynaeU1np//ZR/Tnb7j31mwRWkCi6s4rmvXEpWeVS+m4Ui5ip5Lq5jK/rZ7yxFtZcTsAUybUSv1GJNvNELH/4tyiVP+jUUrbEgOlqok/juP9lBMvXuA2dRLpNJGGISpog9doozv1HKqpmVU1UpT+L4k0qzXb6TD9tJVH0zubxTVGktiskRGrxTE73icrHHaxsixq5WH1DrvXMUK++O/EgAc5aFDPAu94XUyYEz52xqsO3qlHwuo2s+O1W2HNCWsRVVph4Ud3kW7KNoPm+bzvldCEDQGLOY0pOKXYeEJBkZPQ5LSu3FF9OLPkLdm7pE66HBROaCYfBFxUDwRBL09uCGq/lG8vfucWvksHWDyTwC7pQBivwDLmgnbzAQY7gGG8+8Ax8cQtL04MUrK4hivob/wV8uOyGGwtvWDSstfuwXJ27P3o08wng88L92xTxj6Ab83f5/EsdE/2NIBYF5b1CiNsaCFG589tGerijH9a2BDqVSyuLLnzegB+84cdByiPavFCtTj4LCPxajapvrWlZyMqmntUPW/bCdF56lbOtFx8aMKVWxNyPVSlDwe/+7uzu3ZysFosG9ertL8HVcIYopTH5v6WGoKCQLScXy2luKYdKpeL0HpBS2q+Tt+zy4E+tgcD4+lx0BAy7+br81h1mYDT66Y+tc9dx05lzyXeclRfW7j3qq/Zt1n89+0zRoO2NDI6ePonw18YDhi/W/274zj8ERcBtAAF7eO4dbfzcfWx8r+nf5eg2zz0sOFZbN6TH8UoOoOh0d/VGgfE6i0GefNpUbVsqPKOA38ylWr+B2BJYFjdnB70yCNn0w2mtVRQu+nlzRVGjwTSDbvZ9bzm7fRjvuW724uqsJCKzVOFlTZHL16XhxYH6Cngjr0dCz7Og9p4r7omUkwzlSvM31+00eVwYaDWb4se6K9qJWcuJIUdMg6sOK/vO965Se98hT7/nIfbk92nnZBO+a+tAlur5cB5u/clvtwO70Nv+PSvACfCjjq47CwCsy/0pLy+NwPjGhWwR4LD7laFY/DY/BZoqaW88ft+L7n88B9r2NffVy+EFDodcu1OdBgjKK1e4hRJevoaP2Znu+cmCmzc9SVb+btsu9rOO8M5dzNzJH+WQMDvY1qW2KL1s1OO/u+d2KhzA4+NwZLb6P/7mhWSs8V+3CS/WVfTM6Do3Wy9ni+NChjYEBtJfXGhXUdZpCpxONe0QAAIABJREFUbSgnUJd9u+zzcLfHMZ8jJ/vP7e/a/sz7ZP8up33vtL097ufdHIPvJldsT5UMZ+cFx/bpwgPy4vebxQNtdFLpOB39uR1AzQ7qcgR5Jponp+0NY7t5VbkBRfP3txvTTcP8rQPXxzAdi2fOmtVCAqkcMnFNGpy+KwDVs1cSperz8w3WvBBAvzIBmw8nPkjT7L0NrPI97IEgiuNTQb2N0Te3KytCtEhMS1DL7cn464yCZuoJwk3b6HPq97yOz9S58Ozqd7k7V8jis2yzY2KNW8aJ4Wd9Zzu/Aqu2cbKdGu32N9fm4HeDBwnqqykS3rGGzEQnA86PZwGCK3TfMIesd74avTkdPR2+Xrv+znsW/hbZWaj8Aj97HSenGckJfOQEDhw5mzcIVFEYE96vj9MDVTLUrFanxtgNrZ3yawOOnH/rXHmfASVZwT2uCrsdiAUznDXAyunKU8CWeMKhfYGWOc8DqLojTV2ojGreb4+1Rx5mwGBUk2QuFlbQjKpnIcjA8jDk32xKAEUO+DxkFASqlDGBCnRoOjpf47+bwOduD5w9oLInUL+rwPBuB1rw7XQbsP5o9zbr6Q6qH3FRRwNVnRKfjLXGdY9Ey+EX/Obeq0cgo6pabvUOMxphF0bKpoCTY06Jz0GB3Rms8mVu+VXAw1u734MzQEa1Doq8eoR2zdL+3oPDzPOQUsGkkJ2YjdVshny1TjIUi4PD2NPx5XlU1g6/ywzYAIgb7vlKFK11QqssZ079JyD93QJV7YfPxJtafTlQPPm73CTroNlnQKlxoNV9CKvN/d8jrRRuKEhwlWdGVafAObAFCxfJiRMnoffk+sc39T3WbXONGTBrclk81hG9OXVVt7NdoVk7uXHzZlUhz8UgdLGSFWg52x397XjN7yBV4AWdeOfOndTqda7EqFIDz9Te8UvXUSG/TC5ixZoikAKo7H8hpqid34LuoSuw3UdVSIZCnBqV/WXdP7tJReiRnZEs0EVthKQP/G+zTFrJJUmLGZIVy2bvIcMrwFBM9xEJHxSVpcqPT4ZgEY1AZbOs6cnvJ89AVeslyapxpacVK1arCvs8KgjyO15rPwfOgC6QyYRj7I92W5UrVXJah2/W+bJbg+5xqwvVHDit1ql+5xkwChKRYuQCBtBV68JJVwlGaMvUz7Fi/dNF0KliNR22YHJH6xxFqhaCXPV3vqV/vMPjPvIeZ6BFEQtn/vvXNvKXrrVVoS7Bq7PZMm2W6V8uCb7rZJyEYmnbS5fRPxrtx1TNh2Wzzm/jtnePWpYWBWadW1SWec91Eh+uDIcPg+v8fvIFVPXJaHzLVqyU/fuNpT2d7eHJ76T9UfZjiikjI10tVNCmdatbis6cdQ40s3bx4iXVL/c82okl3WBz8fw/RM46F643biOrw8CZILV9SFvVLksH0a70fjITBh+hJ+N/FkdjiUU0CWeFcAEcguvZhJNeEdkpVJJXx9KeL/RrIE+h3ZGunHdmOzaAdhHVMP/5SVGyDauUZbLS3bJZJzVU07Bpswg6vLBIR99mleRrrDJXIcBbBVy8vQWx2zwDVT0sLQFgm6a9aJJ/+MhRrECD9Wkth+/8BqfaJBWRkgH+Uh+rItXGOvH6UxBjK8yJMWtUOQ7NFsfGXpBELBxhfVxjBhhucMWtclhNjh9XlCTlZMsx6M2451Q8lsu1gKpLWDKcvjeAamM0iq+Krg7mYMsZbVqNGf9DfbvRnQyA5jpaL7HfZxxbNFlA1fnN1tZNoVJJb2kdWFrdUh1cFfTi8gxUs6f4NXBR1D7bPBV0RNb+hT4DumlMVtsx3FujVuNmn85CH2Q+BvB7dmvIx3CsXX7HGcju2HVw8jue0qGHNoNV7fgdOgDrZA6bAbZKUi00Xej9S5bNaPNofVxxBuz9/s0zUM0+qa6YVnNFw8nvNWXvMeusjKq+/uwPkKWtzq9l3Nv7mfsiO7vN5jbT2cGqkgPc27fFGl0eZkD3wySgcxU/a74O3XvUstk8GIUTbEotqr0Dq3wD1ZwQsxPMoTXEfMyAs0fy+bhkaxdrBqwZsGbAmgFrBqwZuAdmIN9A9R4YuzUEawasGbBmwJoBawasGbBmwJoBF54BC6i68M21Ls2aAWsGrBmwZsCaAWsGrBlw5hmwgKoz3z1r7NYMWDNgzYA1A9YMWDNgzYALz4AFVF345lqXZs2ANQPWDFgzYM2ANQPWDDjzDFhA1ZnvnjV2awasGbBmwJoBawasGbBmwIVnoEBANXvjaReepz/0pblS1X/2dlRWeypXNG0uMXnrdblai6rf2rHRXNtq9eM69kwbLsI2+S5my9lxg2WzLmSzpkuxJ27IN1A1Gxt/LoJl0ayPa82AXqbRVXpSWg3/Xcs+73Q1f4T77Sr9Ne90L//If3ele2wtVPEHsGQu/mSspmq3RSryBVRzWsKPy7ympCRbq1O5gB0ywvVw95CiRT3V1Tj78n36GnSEpwOra9euy4kTJyT2wkW5nphYoLWIXeC2O/0l8L76+flJubKlpXq1alKsWDGXaZRuvjnG+xcMagacgW11n+X7zsuqA7Gyi8uopljLqDq1MduWT21evaR0qFNGutQrJ3DUt7DlzpghMOMGPX6uunUlMUXSiGyshaqc2mxpoMW93KVEMQM32HNFtTwD1ZxA6oGDB+XIkRi5dPmyJGHddGd8iJzbQuw7eu3wS5UMkLp16kiNGtVcwuFrhpjs/3EA1DVr10tCwlV1bZYEwL42VFhHc8O9pb8rCdvt1qWzVKhQHoAOSzsD2bnSe4nXRLTK9dKfnbhDflp5RDLT8B3XU7VyqYVlfvY7L43YHVlK/PdY15ryxf3NxLuoO2kDMFXOl728BaTiKtJgp18tPyQRUWdka0ycxF9PNSg46+O8M4B7GljeV5pU8pMHOwXKgGaV1buIQXVB3715BqqcRf3i58/r1m+Qnbv24Cc38fBwL/CAnPcuudbIeY/T09PV/WwX0laaNQ1WGji+SgpqdIUxU2YZw8WLl2TOvAXIAKSIp6cR/Vkf15qB5ORk8ff3k0ED+ouPj48KRFxFnsRrIR6lA3h20g75z3S8f/29XA6Mu5ZF5v1q9DsrMyFZ/nlfUxk7uLF6B7sD0DnjO1jjhlSwpyO/2Siz1x2VTILxoh4Wm5p387g39yAzngrcABv9+KEW8lxYHbx7b8oA8jvoPANVMyt14GC0LF22Ury8imZpEfI7EGu/e28G+DLUYHVA/75Z7JQzOnzFQOHDsa9es0527d6jUsP65WnWM957d8Ia0d3MgJm14X0mWA1p20ZaNG+q7rMz2m1O182UGsHKvtPx0nrsMkkCG0WHn0Wk0jNkr8C5mwm0trk3ZsB0/xQxkJ4hpf2LyaY3QiWobAklr3MnwHOiD59N2q0Hxv3xwgPyyo9bxc3PSwWQDLqsj2vMAO2VcqR0gFVPEJdrX+8mrQJLg1kt2Ps3z0DVzKZGLFoiMTHHFStlOXrXMDTzVeh7SuaxWdMm0j6kDUTSdJLO9ZLkNenUPu135uy5cgGsKq/DGZkJ17O03+eKaLc1gwKlV1gPBVTd3Zk6df5PKlL8Hu5uMnnTCXngmw2SCYeg7NsCp85/c7NfgcoEuEkmJB5LXu0moQ0rgDzg/Xeud3CmElS7SUpqhnT5YJVEHjgvmV4eeC4tu3U5o6XN4v2UkZgqowc0lA+GMxsr4lkAm80zUNXgJTU1VSZPnSHXrl1TTIXl8F3O3NQF8b7eADMVVKO69OkdhsAIkZETOnyz3Y6bMFml/QvKsGUPznKrzs1pO/283K6i17xfboHg7Y6tAfof8dlUdnvjhlStWkUGhvdzKUY1RbEVReTzRQdl9P9tEfcAb6X5K9AnO9DNCfjeaZvcwPKd9tMDN2/Hn40XkPHvHxiIewDgpcUnydzXQ6Vvk0oKqJKtcqYPJQtUj8devSG1Xo6QqyigsokXnekyrLHe5Qww45MOycrATjVk2hPtlGSlaAFsNl9AlWNNSUmVcRMmSVpa2u/i8HNyrrk5ZW5rZnp/G5SyStZ44VkO/y4tzbTZDYC6GtWqSni/Pk7r8DUgpJSBdnvjRvLvwrCxNhcKsjtOshmg5mSTdwKgN337TdvOyb7/yJkOBiMEqpStuFLqPxmMqheA6mcEqt9vFo+SxSgLK9jHBgTVa5L1WLcBqr/ZhiBZF8LcYT+FP3MFtGZcajBtPNdt9ynYVTvF3iCnJP1qsswzAVVnY1SZiSMHfA6Au+pz81VmrsAZAG2ztruYa1bBtJ0Kf2wsNd/TlFHkOA5boKQ6xdwuUMrh2MpubVhDDe0PmOnwwASkJaRI/47VZdbTHRRQLRRGVQNVOgN7pNTMxS45NYo168/0z9wuNTUNdpeBVkpFcwShetu7qfzNaQz8rqDMm1O8DXMZpGZUa1SvJv379nZah6/tgIEVgWpysn0YVU4bGQ56dw8Pj9/YoD4vATJ/Nj8rOsDKzb64Pffj3/lfbqCTtq1T2/qY5t+d2f7yO3bOAzWqrghUUwBUi5qAaoEZVQ0aCDjZOYDIiGm67Ayn6ollFEsoYOoJVg+2745/09NsLbGyO2V6eXptPiMstPDEcXNy3Go7HpvAAT+TfeH5OR5uj+v9o7KqilFNuOHUQFUxqriPBKpVngdQpb3YQ0JGG9HyAdpkbuw9v1c2xhJ0/HsjzdjWG8W0twPNGsjeDmzqMRiNQ43j8T97XF9+X4CFvJ9mVMM71pCZT7UvfKBKCUBBgZx2wIbWNUOBz9zAKkXk7ujxyfPSiZctU0aKopjrzJmzuY6DxyeQ5fb8zwhybmW99BjYO5QgXANUT4CPZIDxnPYpZFtwyOktoJr7NGubCW7cELbnLtt3RGXZldm+aHO1a9WUMqVLS9SuXXL9eqJ079ZVFafNmD1HUmygOXuqn2duGtwYfV4vyPGTp6SorUOBeTse269ECWnQoJ7s3r1XEq5elQrly0tgYHXZEbXrlozH3UgJ8mpU+WF+zUGneZ7syf7+kYCqR0lvYMf8p/4V+5OSJsFBpeWhDjVkRuRJ2bj3vLihH6I+qtoG4KIszvVsz7qyPeayzFwbI3WCSslGMH3vzt8nn83ZK+Jl28fMNKGva+PAUjK4VWV5f/5+vF9NIOWW7dLkgS41FQYex3ZbeNc/3bOOHLlwTRZuOalARY7sqj3YORp+dmCeExt2OyBk9in2GhMxuysCVQYuBWUabXPs7w08APtPJPhUYNUWHOmXGf0/gilmIa7eQBustExpVrM0zKmIbIy+IJkElDnsw+/8intKEgKzVB1A3XKPldEoDbEfbPMKNJkEzR44jw/0t/GUN+RkQ3l9yTrh9obNJotLAVWyP2SjenbvJu74dyGKtHS1+U1bM3pddu7YQcqioffCxcskPj5Bhg4Ol3Llyskv4yYqBiV7v0QNOFlQcejwYdm7dz+6FBjVhmYnSaaNDr5jhxBZsmyFXLp0Weqhh2gjgJCIhYuVw79dL8acHHZ2cGtO95qv604gODcHntPxzMe1hzbRAqq5vyW03Q4fOhiN5kvInLkL5OSp07cslMB7xO4CI4YNFm9vb5k6faacPx+Lll9tpFSpkrJ8xSrYlsGaajswdyh4YNRw2bP3gGzYtFmKY//smYU0PDvVKleW/v16y9QZM+XM6bOq8K1D+xD5dTwlDjeyNORmiYwOBM3ZCZ1R0OMwb5PTd8bzoP5yS6/SnI5DEHArlDI8w+3GVJD3swVU7372FPsB7eCo0Noy/i9tZdHuM9Lv0zWSqdKeBgNF/59xPUWe6Ftf/vNgC5m4MUYe/HKdVK7kLxOwz3/QE3P6hhi0GkJhF3ag82ahjDoCAMSfuteRbx5qLhWemSvxOBcZW94jVSEM0KIWLsB2i1/rBlI1U/q+s1wyARKiP+wjC3eelWe/3yRF/Lyzmojz6nh8veCBkuja3unqmKqfrGFx/J3nyv6dPoa2bT1mI/NRxFiSVmt/sT/nSb9zs4qAbABH78tzZu17O5nD3d8eC6jmNlewmxKwkTnPdJAkBD8DYI9q4QDjhhrgU90PN/nl8dbomOAr4V+sk0tXkiTqvd5SrZS3BD0/T+KSAHCZRTAvV4tjexfzkPnPdpQvlx6WORuOiVvxogZ5a7zylJQhAzbbsXFFFAw1loFfrJfYswnyQI/a8lC7GtLn8zV4t9sAuU0OkKUKsxG8OjiyKW6ybDZLPsBz2ez4dt/p4xqBnDE+/TyoQ+gp0TZpm6PssZW9shYuCVSpVykKgDp08AD0PvSH814p+/ZHw8F7KQfID4FrubJlZOiQQern6TNnywWsKFStWhXxKuolR48dz3ohcXsCS/1SITAdNXK47Ny9WyIjtyngYLykjJSpTrHWCgqSXr16KDBx7tx5adGsqbRu00omTJyiQDDTtnzh8djGuPDyUgyvUXV7M1XrnvUCzZ6+NeyOKV3j5awBit5OAwd9Lv27MU5b6wdbf1NzGplgh2w0x5d93zy8E3+zqQVUc5895dAAMMP791HB0v4DB2TFqrUodLgpAaDdNG3SGAFQe1WUNnvOfLmMhTG07ZHp1zagswQEtASYDN5GjRyG40bL5q3bpLitnZYuBCP7n3D1mtQMDJQ+fcJkFroZ0G4bN2oobWG3LHbUdsvzcT8vPlOwPWYtuL+WFKQgQ+EBO9Y2xe05Hv7Ocejnhft5enpk7cffMzLSFQjn8bkfr0kHSTefFTBDSkxPgGJkNFLxHKXjP2/vYllZDGZV7BVg/VFS/wVlVDUIHd45SCb9LQTsVIa0e3e5bD90UdwIPG3OzQv9Ltf+s5u0DCwp/wXj+eRPkUbwQSaLqXnbijTKm5NNAqtUBPtnxF6TkX0byOejmkrdVyIk4RoIBTBcmWRWsa9bCRAHlBNcS5FZb4YqdmzEJ6slE0Ah8l89Zfme8/LPX9HOqARWGsOxM5PAXOEUHr5FJQ3aTQUy9Ll5HLJfYNmyGDtUzCsJAdO8WkvL73hhGKPajgwfj4txueG8mTwuxu6Ga1bXyG15nTq1y/PRB2iJBNk0NuSnHIL74hjqZzswqxaj+tt3sGb4S/oVk13vhEmVUsWl/xdrZcHG4wagVPgQtpKcLm2wstd6sP7XcP+avLlIjp9OkFA0o2dB4pKo05KhqtFtKXvaji3ICSjtLcc+6icvTt0lP6ClVhHYG20hg7akACh+gb0NxXPz6+NtpM7LC+XUiTh5cWQTea5nbanxAnp1K5kMpFsM9PizBtI4dxH8pwMsJafh+9Gs9eZY+FyZv1PSHOM7ZYpKioPvlJ1hPLRfBpja7vQ4uTHPwX15TOOKjWdQacxt+zIYs0MnBpcEqsq5wfn179dPypQpJSdOnpTFS5bZnnEjRU+n06VzR+WEE7Hc5dz5EXD4cYodNbSqqVnsDG8SAS9ZLq48dDUhQUbC4e/Zu0+2bduhnKp21AFoCu4FAEAHTxlBn949ZcasORIbe0GlXVu2aiGTp0xXx6dT57++vj5SMiAA0Vu6XLkSr1bjojPn333RXDzpRpI6Pj/8zqd4cQVS6MgVkMR33viOS85SZqB1iBxvCaRxCVKuXLmimDYNgjW45jxwnDwHr00BZ4wjANfr718Cc6P3TctRM5lX0GoB1TsD1UED+6tOCARZBKIJsDetV6UR94O2NyDAX708Fi5eKmfPnpNWLZpLAFZPWrV6rbrHtKuaNYOkdcvmNhCXLps3R0r7dm3l0JEjsnnLVilmywS0wjaBgTXU8RisHTsWI127dgajO18dO7hxI/QPbS0TJ09TNqfkAbCtjh3aiT+WGOXL9uKFS7Jh4yZJTLqBwK0oshmhCA4PyOEjR9X5S0Om0BGsLHslE4C7YTUcXkOHdiGyY+cuOQkpAsddp05taRLcyAjZ8TkaEyM7d+5W5yRIbdokGPsFKHtu3KgBruWoRAJ0p+H5qIZCJ/Y5dVcA1g0ZjyOQK0A+YaMHCgJYLUb17p90g1FNlgfBBH06oin8WbrM2XFanvzvJnHzRVAPO8tAypTOfcaT7SQR76WFu87Kn7/dKCUBEH59vK18uuiArATzSUfpBcD2bzSo7wyAQBJiGb6POpMgHw4Llrr/XIhViABicQxKDf7zQHMpBaDKc4ydvVcGta4KGaubDPkIQBVgc/vbPWUZgOrLP0eKB4BqKvZ9sFstealPPZicoXt8d94+mbz+uAK793etJcPbVJFR/90o15PghHHcf4Y3kG4Nysuwr9fLFa6ABJA6ekAjqVephPztV9giAExpdE74Cqs/NazirwiE2Pgb8i9IGdbi3Jlw7AEAKT880krmYl6GYYyBYOce/G6TbD94QdwBZsfi2vo1rwSnLyrl+9T47RJ19LJdwKoFVHOxZQQXJUsUlbWvhuJe+sl0SFZGfb1RMgxyVNkGWyT93xMh8mjHIIm5dE06v79STiJw8vYuqrZJYsCiAxX8HlS+BO6tjxw6e1XOwgaOfNxH3py5V35ZEg1G30vSwb76+HhKzQolpJRPUdmGZYtD0DJswt/aSpPXF8sZLGH8zJBG8lRoLakPWyfDq4AjgqCyOG49ZCCu4Vni8a8hYBMsOcoiIwLts2B6bxA44sNiuUqQ2cRCm3wDYJtjZdV8BfTTvXQ9Wa4zaOK2eNZq4Lg1yvjKeeh/D51LwLuVURyQJwBnWWyfhnmi5KF59VJyBuc4dfG6MaEAsTUq+ylbPhOXJNF4RjMZsNkhwHJNoIoXoyfYncEDwxX4onaPadSLly4ph0+nx7Rnf1SdE/D5+hSXRQCyZ86ck149u0up0iVl2vRZals6uS6dOygHytZZZJB27twDjWCQ7IUjJlDldnS6YT26Ayz4SyI0g2Q4o6MPqVQ/z33+/Dlp1qSJAqqT4PDpdAk+G0ILSHYsJRUMK3SJ/H7VmrXoJ3tCMUP3jRgOR75TduzYqWwhCICid6+esj1qp2zatEWBiypI1fbBdwuXLJXjx08o7WIHgIiqVSorjaE3gHNc3BVZvnKVAsK8/q5dOknFChXkKv5eFSzyHkgY1q/fqB4CpnkbNWygrrc4ADBB9opVq5U0oqCFbhZQvT1QJUAdhkwAAV6d2rVl1549EgVtKAMoFmxVrVJJesLOdoHNb9igAYDqEjl9+oyy23LlyyEImqGY8BrVq6t+nwSdDNQYaFWuXAkBkb9sg/Z127Yoxd53bN8Otl1LBV18VipWrCjly5XFffeW2bDbc+duAtVJCLASE5MAUn3VCk0EpVzu2AMa73p1aytsOXPWXAWS2cKJzxaBNFnO5sgm0K5on3zWCHgb1K8nnTt1kCnTZsjFi5eFgJkSht179mL55DgVkLG5Pm19C4A1bZ1gNxgB34kTp+QsxsZllnmNXJa3b+9eyITEYDnbk1LC1xcAu6EcOXpMySFyK468W/hlAdW7nSmSLEYrmT/3qStPIv2/CCB0ZJtq0nLMYrkElrMItHwZ+HfGS12y0u0pAJqjPl8r5eHYj3/WTx7+fotMXnFYioC1nIoq3xY1Ssp3kAPEYr/QRhWkLUApnW3Lt5ZCVnUdDtIfDey7y24sWjADLJgfnH/34ErSGIBjCfSxD3+1XjGqBKpLd5+TVwAoqVl9rl8D+RQg+D8roiXqWJw0rVEKoKC2/GPCNvl6xm7pgHEvfK6j9IJ0Yd2uc+KB4x78oI9K+/b5bI0sijwFJ+6G1G8v2XQkTv727XrxBUjdDlYuGczUr2uPyhWMeXhIDWlTs5QEv7FEjgF8VCjvI/uwD5IHMmHTcTkIoLFw5xk5de6qTHm+k7SrVUa+WnpQLmIe+zavIt3ql5OO766QHYcvSBGwrwXpHmYB1d/asmIDFVD1UnZ0ECn3drXKSou3l8hx3Bt3ALh0ALlKAHFLX+wsF3BfCPzCPlmD988lmf5yVwmAbYRRYgI78wZ59DPA5pCWVeUE7LMUApOPIw7KY50D5e3Z++SnZdEqYGlYvSSCtfYKHF4AiLwCADpz20n5S+ea0upfy8CoXpHnhjaWp7vXAsMaYbSNA6j8W6+68iWCsgsICH3B4l/Ev48hI7EaS8iWgW0e/KC3vDRll/yI81BWMrxjoExEduPV6bvlk7l7weKmSxjGNgWguweyDVv3nZf6NUrLV1j9qUu9snLycqKUBZDehuVo7//fJjl14boK3H5BIVNDgNHLsGkGjlxs4U0wxB54Br55uJU8gqVOT11KlMqli8uq/eflLz9ESgyAvNGb2QD8+fm4JlClRhVs1HCk9XfD0TMFH3vxItimdSr9TxaRQIyOcRNYJrJF8xYshFOOlR6hXRHVl1RpT95g/q0xHB51rmRcyUSSlaoCp79uw0YFIsiokgVLghNfjfXe09IY7ZSTrmBsPcDszgSjSh1hM7BBLQBUp8DhX7t+HSnWGtK3Ty8cZ5McBvvDiK0JtmnYsL4Cs2SNekBnS9ZqNtgtglg68mZNmwJUn1EggG2R2rRuIXXr1pEpSM0SALRq2UIBh6XLV6pCGzJz/ZDKjQVbtmQpHiRYDK+hCRz+5i2REn0IhQb4jsyd+h5j4PVyaVDu26NbFxUlTsd16Ob8+WWnLKB6B6CKF9yIYUMUy0igVgus6GQAOdoG722P0G7i41tctgNohoWFYunWCMV6hoIBLQuAOWPmHBVsEEiSJZ85a54qDkwGq06w2A3b0d62bt0OUFoe8piBCELWIPgCGIZtE1QOAMgk8KM90W41o0qgSjDbCUFQFbCXEyZNMdLzCHwYHFEOsykyUj0TfG5op+wxy+eBz5UvwCMBd8SixepZ6gXA7Qtmls8aMwUM9hgYHT58VKX/mQlgUBZYo4aSz9D+ycDWhW1ThhAXpzMgRRCU9seiCxdlfsQiZbPJeC7IzIbCdvnsMFDTkoP8vCgtoHr3s6YZ1Uew3OGb4Q2l12erZfUr3eT1mbvlBzBJdNCBFfxk+1s95D6wiA+GVFcsENPzZbG29553e8sT47bKDGivt1YPAAAgAElEQVT5OodUk+Wju0ibd5bJVjBcKt2O/SPf7wVNoA9YpkVy+cJV+QKpUvYErfMs3ttkhlDM1aBxBdk9tpeMWx8jj/yHQNVTAVWm/l/6YYuUqugnUfj95Wm7ZNKUnZIJRotp9pfQp/GB9tWk7Ris0gUy4cTn4fIjAOdbP22V9q2rKaaU78EVcMTPwYnXB4hc88+u8jj+PnvNUSkK1qlDnbKyEyDj4uGLRiq1AlimrwfJ6zP2yE8L9knZygEKTPyA7V/E8p8cGz8dm1eW2U+3k+DXEYDuBqMMhowR4AJse/bKDXkcrDRlAFpmePd35eaWFlDNHagG+IKIQpDxHlj1v3atKQt2nZEx46OkCJjWtKsp8nR4fXkagcz7C/bLO2A6249dgeA7TiYiuAiA/fT/YKVi/T99pKU8hOBkAIIvspLlYBMEgR1ql5WH0at40srDKqCJfKun7Dl1RV6auEOuwm7bw27+77FWSv/cAkGYGaiSUU0GQB6MAsWpALd//2WrzNt2SmUMXh3YSO5rW11qvzQf78FEmYzgqgTsJPzj1WpVJ47n6R51ZAGCoaEI2tIT0+T9B5urZ6b562Bqce6xo5pJ/6aVAUw3ynkwogTXywDAFyDQfBKBI6/rm8day+NdArHU8k6JQJAWD3B/GUD039DsPoJxDfh8nexHsMiisRn/6CjnEpKk9/srJIPSHDXt+UOqLgtUqesbMXyobNm6FZIjd2kNMKc1dpQGDBs6SDn4Y9Ci9grrLrPmzINTvqAcamnIBaaCUS0ORpOOnKwMU6pM0ZNFYmsl9lKkw4+M3Cp1atWCFrU70rQL5DQAJMFwErbrAtYyGNICnpcp1WbQFurUP+UGZMHSwX7NBdhgGpZMZ1HPojJyxBCJBnBdt26DtGnVEkC0lYwHKODfCWzpoCtVqojlZlcotpPMcSLkAotQEEadoNYrkoGjji85ORUMakc17mkzZinGqxvGVglge8KkqQoE8UMQQYe/HaCFQEZLDAjK2fOUTBjnrCDr2VtA9fZAlfNzH+w2atduMKGnZDjsdBkYwUOHDis5xn2QnKwEsLx67Trae/UCUF2gOlR0ByDTjKqxJn0/2bptu+zdd0Ax85R9eEHrORxFWLv37JO1sC2ylS0hGZg9b75cx/EI5NiRohZWXwrFczADum1KWLKn/sP79UVknyaHog8rm2GRCMEqA6QTp05JRMRiCQqqoRjdRQimCBKpF1+9dh0kCi1k9969cvDgIXn4oQcUe7pt+w51HAJTvswqgBmmfXO81WGzdMqz8XwSFFOuUw6AfPqM2Spo5HecF2ZHjh47pooWaZ98Vrh/m9Yt1fxRcsDttc48rw7eAqp3P2MaqP4Jurr3hgRL4Ivz5bP7mkkbVPS3/tdSyUT69NURTeQJpDNrPDlLZr3YRa4hZTrq89WwYT8wjb3l72A8p0UckFcfbqlS4yEAqqkp0OGDjU1BivNpaFTHDGggQS8tUBrVtWDBIo9dlheQ0vf0YS0CdPtIRa5CMVUsnPtwalQBcglUV+6LldFfb5DeSOv/9OdW8glkBvEAIR5gzVIxjvpVAxQT3PTNJZCpnJefAUIqlywuYW8uljdR+FWnIgodARBG96onbV5dKPdDOvARVstpiFTtZbBiyhfjnO5Iv/YCWA6u4ifl/b3hyANVCn/84oNSvkoAtJA9AW4joYM8IZ5g8m5gn7cxTyPaVpX30PWgGN7dXOM8BSzb8HbVpTrSsQ2gyeXzVpBWRRZQzR2o+sN2GEA8DjuqBXb/adhos9cWSTy1z7gXe2CbUzYfly2QYfzylzbSCmDyBAISAtWSALn9YKclwI5GQQv91fLD8jkAaCaKrDIRZPRAQdTCFzrJIwiSxi84IH27BMnEv7aVZm8tkSNHLglK+1Wg9O1T7eR+3O96ryxUqX8yqk91r4nfF0kqnp3ZozvLcbC0z/17rWRQSgP/LgC9+97vLV8gEPx+2m55ESD0mV51JOiF+XgfukvEc51k16k46Vq3vPT59xqJAXO/ESB518kr8gSCrQx2wNBaWaWPRqofUpfPng6RVmBau7zNzBgyBE+3V/bf4dVFkqZavAmydFyOt7uMnhIl8xchEMXvtP9mLSvLPBSPkXXeh64e1GcbFUJ5/7guUEUKdTgdPkDXwehoeXDUSNkCxx0JAEYmkzo/pimZEqRDnT13nmJU2SmgZKkAsEkzIRkoCzDQR4HUGKQs6QB1P8mRw4fAye4HWN2g0pF1UdFP5kYXpvDf6tWqSVjPUBRqUaNqMKqtwKgSHNJhkvUi2xUfH6/S/qqACv9jKp8FL4uQ1mXngHCA4rXrNyiwS+aW2kGmTAmgo+nwH35QpTfJyvJ6OMbyKMapDGdfFY316bDZcug82hLNgxaXzBSBKpnjGZgDgmSyzDxXP4AfygFu3ID+VVWlctUST6Tkysmy5SvUuArq8JkStvqo/vZh5f0nszgCVf/7kFLfgEBoJGyY4JGsY/uQttIIukwymeVxrxjoUFutgSoZVeqfKXUZAOC2BIw6tZ9Z+lackt0CGAStRnahC2yoJiQss6CDTYW2mVo6FiRVgiSkL+yA4DC7RpUAcMigcGUDBJZZ1bCsxobu9PDRo0r/ykIqgtNjkLCcOn1aBYC0e2YZUgGa9+3bLwMApqnBvQgmlECwIsbdtUtnBTKNwqh0aKx95TqCOto8A6xOHduDCa6QJc3hd5Sw0G6ZXSB7yzGpuVT/isoa8Fnhs5HfjwVU737mNFB9GIzqu4MbY+WgBcrpb4Ez6/LhStmMFj7HPu8vP6Md1ds/b5WIdxB8JybL/XC85bAdgeoTYIumAqh+BxBbs5yP9PhwlVBtp5b/hCMdjFTmt3DGQS9FoEI7TQ4gHf/1skPyFQBehq2gKRP60akABqzSHvohgGpxI/W/EmnO0WBYHx7YWL4Gy0Wnz4IvpUGEwZDdvQ7A+hAWP9gHzWgYmLEpfw9RoPgnsF07wKB9gXPtf7eXdHpvpbwO1jgADNKAD1aIG1i1IjjWRwCcI8EUx6AVFp3sNYwxpGYZBUwnAEyUg1Rh99gweRrAderqo5AUUC97Q75DenZE22pyHKwY+QNiXjp3smb7oPkb9e0m4BK2Tcr/kqcWUM0dqPoBbO6HJOPFyVGyBIz2kU/6q6BpMhbD6AagOe8ZADWAtMa4fwxyWiM9T0Z10gudwUB6Sh8EN00aV5L5z3WQkdBcr997TtzQYo2pdj8wlAdg22TVf5i5R8Zg/35NKymdK1thubMYKilFBsDefoCdNQJAPnPSAKoq9T96gRQDoNz8enfYqBts5JqtI4RxPd3ql5fPEQS9CEa0fkMQWaM7yX3QVp+HNnYBgHSH91YoO/5q6SFZinGd+XyA9AVoXQWWFYJVRRK0QZutHtDI9kaA5Q+bDirnK0v3nJPB6DiQDq3qOADVkpA4DMSyte643mRIANo1qggg3EGiAX7jEVSp5x+BIvdvCZDLbgWL0Q6uCIrS1MIM+fi4LlAFOzQMDp/aO2o5+yL1zfY9EydPB3iEDhVgdBJ+pta0W9cuYKbm/waoMjXKpvQEgWS3tMNXYALpWRaLkJnq3Kk9UrQ1s4AqdZwEqtWqVlVAlWvBnz9/PkujOlEBVVEOn0woQaxRLc07CCYAaU8WpxyLOa5A50AAWjKnrO5mun7SlGlI9XZRsoIYMMIh7dvKTIBhFmHRQTdrGowq7dZKr8fULb/nGuUEF2SOCVQJGMqg6wFBNAF4KsZLoNAHjO3x4ychGTCWstUVqiywisF4CJYLmkK1gGrOT6oGqsNttrVp8xZpUK+eCip438gmsgfqYsg36kEzzbQ2JStZjCqCE8oEGJQwoNkBbSf11D4+RrEfddlkVMnWUo9MW2Lx0aw5cxGcXDNS5ggi6uLY1DCzE4aZUWXqn7ZEaQC1oWvWUEpzs+OFXlWOdkMQS/2rH9hd6lqZZWCQRAa3BlL5cXGXIY8pqxhh6sCpl6WuNRVAcxU6HVxB8EbZCmUGtWrXAjA1Uv8M0AjEtYacdsnCroEI5tajmOvQoaOKQeZc6g4BPLZOORVEsmJV/d+dhzED1bGDGkkTalMvJck6MDh7z8TLrG2nlTauOZkkdAKIwPd0cKPg0DRQ/Tuq8qdB0/cCdHiPQffWbMxSxXZSK5jC9DwA8Eu96xqMKtpTrXituxyArvBJOGnPEt6K4SerunFMDzj06zKC7bGyMao9UF3946OtJBTp0SNgrtxtKfUUWwW/G9jbTPTIDIBWb9UrXeSndcfk4faB8leA6C37Y2U1pAsRUWfRKzZQ3pq9R6avi1F2NwAAlbrDZyZul/9bdUSS41HkAqd97PN+MnbOfvkRqf/yVUsqoPrkODDHBKoASKm4rreQfiVICBm7HNJXVcGjqqZ57Qq16oULbFmwu7sjt25lAdXcgao/7sPed8NQ8ASJBnr0TnsVxBWCj55g06dCvkLwFfb6IhkEpvU/CJTavL38VqAKDXILFAnOBaAd9OV6FZSxmIiV/b7UNwOojoFG9YcZu+RdaFhDUZTXBXIBFmGxCDQDhXN921SXXwBiG7+BYiobUP1H99pSe/R8ZDk9JfJNtMY8f1W2H7+CDCxslJ0rcElsqbXxyEVVbAh+STaBsZ+x9ZQk4Nl6oF016fLaYvnl2U5yGUHhVjCcr/dvqBhhVYyIA7w9rLG81r+BTNtySrZAd3sF2YFRSOdnZLqp9H06Crl+BdtLGUNf6KXdEPilIRjsDPnATADY2dtPq1S/h8INxDGZcgOyl6kAqdGQN9B28wdTde9fF+yjytQ/HT6blm9BVTDbThF0rlu/SVq3ai6RKILatj1K6terA9DXyVY4YjCqLKZi6p9FVkMGDVCAdOOmSLA7qMBHSp+OcsjAAbIBQGIL2Jr69epKt26dlR6Q7BCdMqvlqdNr2aKZLfV/IYtRnQigeQPHYTrdYIsioM27mZZUqUvVucAADkzR0rmTaaJudMWqVRLcsKE0BLuWikidznohdH8EkAQO7MO5a/ce6G+3gBUtAu3sDVxXV8xBVZX653EIfkqXKa2AKlt58RjUB/J6N6LH5jaAHF/8zqIwOnrd8iin1ZLy8rK0Uv+5z5ZuHcb7x8r4rbBR3hPaCe2BKW4COxY4BaGFVPdQA6iS9ewGJpIpcXaYIBXTv09vpDI9ZMaMOUrvyXZRIQheqEFeC5DKIsBy5cooaUHk1h2yEbZCFpT3ZzBsu0KFcspWGOjo9lRTps1UgJa9gevB5hlwsViPEZY/9KVNg4NV9oJFdwQKVVDMR401X06UkmxHQWBFHJfFYCxKjIZ0gIEe21OxeIvBHzXeO1Dsxevmc8BnljbHbAXZ045gVCkNoBZX2yJZf8pfksEKUw/O609j1wMEZywg47NAoF6QhUQsRvXun3LVOgdMy0Oo+n8LQLUt0oaxZ67KgygAIXBNhmaOjvBBFjjBOOaANb0KR/0g2gGVBYOzC7rSpwDgZiw7LK2g2dz0WqgMQYX9bDBBmXD6RZAm3wuNqi90nU2g5bwce1XGghl9DMCzARjWOPzO1jntARjXoP3Vj9CB/gXazkwwrVvGdFep/1d+jJQy0KjuR5r3v9ALvgENHotgWKgyHCl9VmB/txLnIysPycGvANahDcvLaWj3egDYxgP8jgGopC6PmDH0ozVyGCAcnlnGQMNKvWCDf+DZYzoVFxmKsUyHk38SDOokG6O6A+zuPyZslxlrjok7zpcG3WCnphVlJYrMeqBLwUoAY46ZAPXlYU1k2/HLspwghFXUBfhYQPX2QJVFbmQ9f47YL12gSZ6J+/bMxCj5EL1Nn5mwQ6YhvT0MafUv7m8ubZHq14wqAW3ft5dB+1xCtsHOxs7bL9/P3SceSP2ngtVsE1wRHQW6yZ9he+MAgoeG1UZWoIUEg4U9AzaShYMZSJm/Dz3pk6FGql+n/o1iKmhJYder8TxshS28+Nk6yfCHXIAtqvjQsZ0ZuwIAQGbi+XttRLB0rlNOLRiwZM9Z+WjcdnkAQPQB2CJjnhMoevoLWN902FOlMsVl59sA6Lju/6E7RQZje8hhvgAr26RaSQl9B6l/pDTIqLLIikCVwVc6ntvK0JUzW/IoJA1L8MxmckzUZdNOOS4+IBwbH/Z8Blguy6jS6ZJRpR6OxR10emE9QuGAKyi2hyzStavXoaULBKPaSQEArVFl6n/W7HkqOiaLRbaUqdfL0IbyOPyOTpDpeLbOYYXx0KEDFYhctpwN19OkZMmSqoDJE+lGOs/Y2Itw5I2kBQq4psLhs5iK+lUeKwKFSydQqcwPwWQ7ANzlK1crFpUfFqoMRJqUHxZIHUFFOHWI4f37gT3zVW2BojCO7ECVKxvxO7afYj/Xy9DvEdhoRrVU6VJge+fBnmBEMCACAQILAgwyeNcASjgHZMGoU+U4tbQhv+9JC6jmPnNaVvLg/fepan/26CXIaw6GvB3S/uwEsAz3n/ePBUZ9+/RUgcYpLArQG/KV8gCBEydNV6w8pR+0mcuXr0C2clxlEIp7+yhwyqp/tqoi88/evm3QI/UQCuoSriYoSQGlImXBtjNYY9EeG/536thOfv51omJUGYhRK+1T3Eel+vnSo5SjKPoPU0LDzhK8z7S9+0YMBaPro0BtPIr1+KHkhcEewSfZYN2Jo2vnTtCkVlVtpdQqcWBcq0C+chkaV4Jm2l53SAgqVaog4ydMMbpyKLtNw7jLKkDPc/BZ8i7mjfZcgej0cRkLbCwymsXn8yXJMVtA9e6feKPq///ZuwrAqq5su+MJ7g4J7u4Owb1AC3Wbym+n7kY7baellLpN3UspFHd3d3d3DQSIy19r33fCS0hoDJL7uLeTSXjvypF9z1ln7bX3iZKHe9fUiPpKcFmeRBRxHkxs26Cjq1A0r7QdOkcWbzmpKW0WQM8XDoDX9905UhLg8QiCl+76doX8iah/grIvoFN9CIEt34N5DEcqnWYISCmFfJflEHVd8fkpYPcjpCj+XgyXaEFM9r8s2I00OkFSDemiaiBoayn0f/3hqkwM9JG9H/ZWFvRxBHHx3oNbh8hv2GBgFuQAq3BeNQQ93QJG6xuA1yfhpqfblrlV74Rm9VdoEr+ev1v+DaBBPV8bJGZfgCCqucgq0BPgNY6SPUzQdRDJPRcM7Fbk11wI5rUcIqBbVC0mNVG3f/24EsFU26VUhUJy+KM+cs/3K+QPyAi8oTVUZgyLrU/uaSr3gKUdi+CxI0gR1ArXdoRb906A7T8BugX1SATLldnDAapptBxImQIAm2S6h4BR/W3uLvHLA0/QU8g6gSwTh7A4aQWAFnkuAtKTSoi6byitwHxTo/o7NKCM+u9HiQq65lcE5HFh0wFAdheCjQpgUfUz9Kh09d+NPv9r7h4NHOSibAZA5APfr1JJVH3suDYdchV6mRhMdQQa0icH1FHgWheLsmi8V48jPdpHeK+6w+YWIKCP2pCbAKj/M6C2DEI6rW0oTyKIjWbVSyCIsaPuhNUfi8KFSIVWDtroxa90hOY6SLME/DZ7DwKdvKUs9NTrEUTGen+PhZQXNKqtcf1opI9bgkwTAxEURtf/z/g3gWpfyBWY7k29wCDL/oa0oAG03Z3BvB5Eyipf2PLbSE3XAHZ+C559njt4ZVmu4mGMqhWU5Cd33nGrprZZC+aUDVodaXgIxMhUUbfGNmZycwZTjeYuPEdPIMUNJAJgVKn140ROXRsjj+kWZ1Qx3ap0qXNLSbpVVyKYihNmGaT1oZufz2GgFLWnhw4dAfNUVd2UZL2aNGooLRC1/yt2vTL5KJlIvTE+D0OEvzc0fgSgO5DWaiGYJbM5AV8rMp38jrsDEVDyO6bj4cT+OzYQoK6U5SWIqY20P0xPRTDMZOw8qL+KA7PGsvD6bl1C4fovrrkxNSk6ztGdkXCPrpBGMCclgTeZLrbBipVrNCWSk57KGuQM+8n2/u2PPzV1VFYYO/d7MgDoCAAcpRZkxLkQIjNPuyAo5XOKFimi2SG4rSmzQ7DP88MFTg02+5AMKrWb3ByA7CXLx++qIosAsz/sAcBU5h6DY82a1TWPKq87DgaVCyGy9WQ2CTrLlyun2QeW451hfTVQCfbN4KkiKAfx30UEYzGFFBlWa+tiaxMKpl+j5GbpshUK9ngtU70xBdYySHJMzl8F6dBpN4L3oFzZ0jpoH6QEJeKS5mBlrlSey4h/ptoiiDc5gdke9DwUg4eAiyq6/vlyU7awGoFaZgGQ2YndAaoZaznaQyJ32EEaqf5NysGNukkucrce2MNdYD0bA8g9Aw2gpljCJPcUUkSRZf0aOsD8cCu+e3M9+QVs4iq4TTWRP057tlt16VynpEbbT0UKniVwcd4FkPkiovXp8iTgZeqgN/vVlhCwstScDgNrVR3pqQJxj88RpU1g+mb/urLlCBY+i8BiQjMXh0CsDmBtn8E2rkEB0AhiuPx75UH5HuAxEUy/6vRxr6IAxsMRAPYHUl/NhaaPmQuYr/WdAfVkOoDGRHzu5dqSNREsU/PqxWUIylIYusSjYVHyP7CzXaH9m47UWAuQFL4AMha8M7Cu/IodilZuQz1NJD8nEFz/MMrTD23nDy1iFNqGaYAWroOWEGBfd/fKwuEA1SsbT9NTYcwphNy6Rz7pI0+DQf1uFgKDwFDeBzbze0S7Pwub/WzydtWb3oaF008PNJMaiMTfjyC+CWA5ycJ3eGOmJIA9LA7bmArdan2kVdsEDWswUkaNxsLjDjDtz8Nmv0F/0oa6ALhSNxqBPg6DLQbi2kWw+9uaBWuO4INw0b8EUPo8ZC6lsQtbDJlK2PoHdzWUp/FOMFcp8wyH4P5fY2H3zO/rJNq16VAAXO2bwA4z+r/SM5MRG4Vr8TMfZW2NxU+ZpyfKKQR56UYBsLnH8IyPbm0AXTVwA19N7tQFRv8ozmmHIEgGU41Faq4SeBfaQ5ZAzTdlAV74nCB97JNtNWXVhkNnNfgwCO/bMyM3yI9IK5eQBbc/e8sjGVUDIsgqXYTWku5Kw/DQPcqoeermOMMGYRIn+0ntJcEjJ17KBqgF5ATIyZGuSQJRAgGm52HeSjJOvAcBopW4P06BJJkd7mzFSZLf8XkEBrw3AQfvQabUgFDdahUguCjYTZaRwID310T+ZDpdALIwkrkHBASq1lUT/tLdigmb7Bbds+awGKZYZdTIPBGwHME2mFxh5UXWAj6b1/J+BBT8t9lNyAAJ/mZAFxP+M6iFelm2h4n2zyoz5WhU055l2DcEXVz8uO/gxM/8kBHC2o3J2lmNfUv2k/3Hv9nH7tv5Wrl6Yy0Nsu4ABXYoHlooAELatDl4b86PvDf7m4s893szYwC1owy6M33PcprdrjhvMuE+FzQGPBpwZ3aXMgF4xj4pNTH3M++rqTszVxDkso68H2UPPJeHWaSxnuYw2l7Wl4DcPfOF2cDDPCOz87vDqGag5YyLjwCS2kqAtSSXH3drojvclZRfP+euU/zN1FNEr9TMmZ2YzGOZzJxuRLIysEfdAYpJyl33VnDM+8Llqdfqjjv8kAgE/wdQqge/Z7Qyd5oiy04gShANwKzPdyVIF6aq4mHqwnKxDEwjRTemDswsK3ecwr34TJPclOVk2VgGAEvdWYrnsNz8zZRTdNe619MEmZgIKpaTB59FNgrXXQaz+DwLWNUBqmnYMvqAMrcWCCjaAxb0eFiENnQ+2EVj7J62EUwlwSRtqgSi7KsiSf8agNQo9HWtYMyn6PeNyDtK++IOTXkA3trB9c4cqbvg2p8H9rNZpWIavHcMXgAvnodrK2Ix1QQZMQrgOYsQvHcY8hI+byUY/uioeCmPhVc5yAeWY3GmTLprMdMMoLAOGEuWZytkJyvA3jM3sO4WxQNjaC2wnHnxrqzmtXx3cC03M8gPO16990xyzSjAcmN4K9pUK4bgRsQKbD2uiyJqUtdCqkPda00wsv4o90ZID8z99B1CfQl4OyOwqiKCHy/gPV+Da3aiPagNtx5EGUAGxhG3U3MdUOXEllXWzhpfIEDHJM17mfvxM+7cZLZs1LEGkyAnOLPVotkq1bBCBhTyOtPOOvHjGq7uk1gdAkQMRPEAAhx0CR7IUBmgYECgBXyTb+toTb7Ub1j9aKKTTSodXmsCQ9wTl7t/lrL7eU/NIoDb8uXT57t0rzzXvZ7mWnfAQKCiq0z8kOk1k39WQKqaKsrhiUCVEedZtVvT/sbm3Pv/nz4zbC7t2ZzL3+5/u/evO3BzB58pz09PmUy/Wvbm2jnFNfG6b+lr6pPys9TKa+5pbNMs7FLWM6XtmnulVqbMDZGXr+LYVB6eBqamY3myyqBntTzZdX0MABUnn4/AaD6HSHcfpJchxsrSQTvABOajnhyMIi574JhJLJbsM9fEysUJv+SkxEAMtRed2Lj7npXBwewexej8lPfWxT2vxXcmgt+k3tN74+AOPZpOzWzryHNxjeVxsq5j+fj8JJDqAqu+AL68Tq+1DEzLmux+HDFZbHzO/ywvlfVM3ptlM1tKaj3d/q33dNVZ81XjPvzeqrsps9UeWTmI37lz2CRsA8o8mmwbltFOh2nP45BGlANbSM9QVlzLSXVn+3ORQX2la2tQXYBwscDFkWknviDcQpSfcWHCBRkP/pv34Ge0Od7LZSu6mNF7c9tRS7NJ2yObmfTC8Zn8jueZbXv5HD5Pc+3SuFzbnTKNlNsCRxl9Y0PmmWZrX15rFl3JPrtsTrrY46JNXzT8GC0062G2FE5WT9e1pr5sJy5EDXLgtq5oj6R3LQsGZtlsjPRtGwLNcOuk7ByZvaUXXijXW5y+W5iJjUCQLtTsAKrpmVzTAgHW5E4Ae3nCNRO+qVFqE777My1bsZrBHWC4A4eUz3dvLfcJ39zLXJsWEHEvk6mDGdDcn2Um/JT1TFm3ZICUg6mrTlkFqnwO0y15Qnoq1sW4/mm/uQ24pGQR02IV3T93t8/2IfkAACAASURBVJV/eoPTe/9/uk9K20vr3/90n+wuT8rncWyifpvZCTwJqHIHpQBMnh8gHdQL0M/5Qq8Wa/YQ/6dGv17fm0nWTMQcpFM70nte8gE3eZCH+z0yW7+U98joPbN6/VXKTSwUh+CeiQCqvZHg3c5A9Rj0ouUJVM3CI7P95WZXXAARCCdBGdcCiJjAfXw0Cw8DOHkL9wUQ50pNp6ZYwLqnlTLPLMIsG9Z4I/xnzbIG51qLGN47aa42yMplG9Yi7DLc0vVTCvvn81OW6/Jn+jTL9pPuebkBzZ15B7M4u+J+lwdrvY9ZVBmwekWZMtk/2PhK4sIBVNvlIFBl2Q1QNSluMlmfa3JZeifAlBN+ekFdeu+f3spl9X5Zvf5q5WSbRCKYjUCVwS92nfBNG9FeR476W+UlBKrp7fP09qVzXu5oAeP6Z7CjZbdwdUFC4QkHty9l7tBv5+2RR5D82wvudGo1ncMDW4AeNjK5F5FbE1rF7ohEJ1D1c0mK7FJjZc1R2JNITVb5+anYq54eT3ySNbI5e6uf3sVGZhdXLK37gi2ji6GUtU1vedNqpaxef5XWNwGa/ZA/+W8EdBH0+2fBZjPNqFIHx51wGFnvTPjZ+77ktruRmWImBQafZUegS07UzzDbfDazIexHYntKStJiLXOijM4zs6cFTJ9STlMbWy+3R4osMgxWflb7Hww8IlCdi8j3rh8uQACmi9tJi7W0f5Vv4BqAoaNXF7TqYqRKaopo9jg7uv5d0hsG0jGR/XpsVZvInKJKXuYmtHoDm1p2Vd1IJCAreKJXTd3ljiNUVuQqGQaq7hP+7LnzdGtF3ZbRtaR3GKrs6u2cu09KWQKBKrMdMELbzowq68VF1ZZt22QO0pIFIaF+BpUvOdcpzpMz1ALsV+aG7YW8rsyIYVe7Ta3Sxq13AaxUOyQf37gTm3owr6fRYmaopZyTc3MLcEejWOTqbNuojEzB9pZ5GdyFw7h0c3PZ3cum7yN+qOUdgqwS7yBK3w9BP7Gu5Pd2qYdTzn9uAaoXmH2B2TfmwAvQEUFkCYjsUh13Jo8MA1Wj1+CEfwQ5G7nvPY+s7H6UybI7l12HFiBIzYe8mv2xKxezIBiwdx0ena2PcAek/Jv5c5mkn8FuzuIqW5s6x29mAi4bI0UYt7HNiI43xwufngLAfq2gHW9ZsOOk9PsACe0BZjQwJIUOLj23c87JjS3g0iFiMVIUqYwmYcvLFlWKWwsuV9Blbix1WmWycAO+RbW489JA5Oqch12YdNMGly7TTvVxynqVFmAgGX5eG1QPG4jUVXUHh6WszLMZBqosnvvAzy1PmV+RaWaoA3MOz2kBLkbyIw8tNzkIhtbPsOlZMbicbh1TB0pXNm/dKrt3Iyk5ks7buU453aa55fnGE1AYu27VQK7Z6lWrJXkVPal/TaSwWTSuQUqZD5GDdC7yOTLNjKafyS2d4pQjwy2gITdgGgtCe9wJbNRL2IihNvaqZxYYO4JU9wYwno1zSHE2HFkrRiMH7pGzUVZ8UIZbyrkgt7UAM23UwMYIDyJv7f3YZIGHBVSzJu/IMFB1dwvTsPjinMFuMnv27tPk4VkrTm5r9huzPKZfmbu1KvZtJ6NKt012GFxOtWhKF795cThwMgWZc3hOC5gdsMyi2j2dlifUMtkYzMw6LkaK+j+TNs8T6nlD18HVr0GuHLDsV+1mVxR6Vif+6922l8ktE7BuIQWmWoslA+cAh+vdJdfsedyw43I2gcuZlLJisxkGqu6Df8q/r1nNnRvnaAtkNjtCjhb6Hx7uce7g3NzYOVA2d/bfEwPm3OvEVD/WFt3ObJ8DpnZNH2lpO63If8Ok27mfTaC5lU7KqpdzeF4LuI9J2TH+ZgqoGoDq3rxOUIrnGRtrlHJQtPMg6W637onmPbPnnFp5GpOaskfdmVWntz23BdzHKmf89dx+9rSaZef4m2mg6mmN6tTHaQGnBZwWcFrAaQGnBZwWcFogd7WAA1RzV384pXFawGkBpwWcFnBawGkBpwWcFnC1gANUHVNwWsBpAacFnBZwWsBpAacFnBbIlS3gANVc2S1OoZwWcFrAaQGnBZwWcFrAaQGnBRyg6tiA0wJOCzgt4LSA0wJOCzgt4LRArmwBB6jmym5xCuW0gNMCTgs4LeC0gNMCTgs4LeAAVccGbrgWSJnWx0mt5lkmYFL4ZGd6lNzYQu65gJmX0uSmzI1ldcqU8RawdqGyNtXJjlyUGS+Bc4XTArmjBTINVFNO7s5knzs6NFtLwYEyxQ3tnMfPfWJ3Ev5nq6Xkupt5el+7L7ZMQvhc1wlOgbKlBTR5OhPjM0M+Dk8Yg1kPVoc1crBDtphJ7rgJNx7hf/r78pFVm80UUPXEnYpyRy/nzlJ4Wn+71ycsLEzCzp2X6Ojo3Nn4Tqky1AJ58uSRQgULSsGCBfQ6T2ai3ME4907feOic7D11ybUlpbPjT4YMJzedDATnj20oq5bIJ3XKFZQCQX66Na7ZKteuNp1yNzVnV6rcZHTZXxYusLJrR7UMA9Xk+0zz5fGWc+fPy4EDB+XkydMSERmhiNo57NsC2NxOChYoKMWLF5VKFUMkKChI3YrWVtP27Fv3VTvrcCkiQpYuWy6HDx+BzUZJbEysrgKdw74tQIYmIDBAggIDJSS4grRs0UwCAgKSGBu72m7KHjG2zHfSB+PviOUH5M1xm2XfaYDUcCy44tEQji3b2JBRdF9vCSwYKMFF88obN9WWW5tX0DHYrlvlJvMAEMD4eMv6g2EyfeNxWbr7tIRdjBEvs02sfXvuxi45+rVq6QLSJLiQ3NSkrJQplMdaYFnAIUttk2GgalgKGh5B6u49e2XR4qVy6dIlloYcRpYK5FycO1rA6PsKFSwkoR3bS5kypWB0CQpU7Trhm/JHgT2dMnW6HD16TPz9/dWO+WNca7mjB5xSZLgFYJvsY/5ERUVL1SqVpFvXzpgUffRWdrXb1NohPj5BJ/ufF++T+79aJokcesHC+eKzLM4JGW5254LsbwEuuuLiEkRi4/XmI59sLYOaBUs8bJsslR1tmZiB6ICa289m7ZRX/9ooFy9hYaX+fxd8yP6mdO54vVpAO9fqy8oArL8+2kJaVimOBVaC9nlWbDbDQFWNjewaHnzixEmZOHkqXqh48fPzvV7N4TznurSANXLQJV6wQAG5qV8fyZcvb9JAc12KkI0PMXZLQLpq9VpZtnwlmOLAJLbNru60bGwi298qZR/GxMZI59COUqN6NQWvuhjxgMN4N46ei5QW/50th49fEp9AH9TRRRMQ5Tho1b497eo/rj2w7pC4yDipEVJYFrzUQYrn55gFPKA0lX0Ovpt0BXMhNXnDUek3bIEk+HqJN5hjHo4X1j59ebWScilCbBgPhrx82YKydEiolC0UlGWbzTBQdWfV5sydL1u37ZBAuNvM586Eb3+Dc3fTcHInWG3Vsrk0atjAtaK334Tvbp+TpkyTw0eOYtD0ydIqz/497dk1iImJUZDaKbSDjk+GWbV7rePApuqEv/6I9PtkkcDPcblKDkC1e/deLn9S8BQAK8DpvFdCpXW14kI2nf1vpyORqyh6PFCPPrDZ6asPiTe0t/EqU3EFijm2a6cuvbKsZoFMb7sP+joiVobd1Vie61FdJQBZsdkMA1UDYuLi4mTM2AlyFsEoBDNZoXXt3TueX3pO+FWrVJauXToJBxxvlyvVTjV3t9vfR/wlkVFRWXZH2Kn+LGvKRaQnLyo5HnGBVb5cWenXt7dHMaox9GABqHw+a5c89d0K8S4QgAWk3awxi+V1Z409nEEmJo0Pj5KJr3aSXvXLKFD187XkLHY5LH2tl5yFq7/OazPk2JkIagBuLOY/pZ16sN0Cp0oCWNVBHSvJ7w+10LknKzabKaDKlyM2NlZ+/f1PuP3jPMKlltqknVYKo7Qm/LTuYWcQz7IT1DE4pW/vnrad8E1f0l5/++NPiYmOsSXgdp+Y3O0tycZcOrD0AtPU7mHayu5Algus8uXLSb8+vWxrt6kBkejYBAnw85YPp22X5wFUfYvkgZTRxrEBOmGzpnAFK3axGGKyMFqrNCb01CIi+BkBEe9H+yWDl6Q9tylj54tyx12IkkmvXQaqWWGncgLcxhOo4sHHz0dK+acnI97PJUq1l4IhedO5STSusLlU7daqc2p2m2T3OEXzIV/F7nOi/zL6TF9UKO58lPRpGyLjHm+j/e2fBS9ApoCqxVbEyu8jMOFjMrC7S81MyKwXXYQ6ZLrEv+6a3JQgwejeTOARmWVzPs91/7edwWo0+phAtU+vHrad8N0ZVQJVBtvY2W7dQWR8fLwuGE2Ao6+vb9LiMSXYpM2a84yd89+xsXHo23i1e7YL75Ea2M3ogJVT5ycxqh4IVGMQZOMPbd9H03fIcwCqPoUChXE3tj00MBdjL8F2DIKHwBgr0gwAa4gAMZ3YUzKorCzP1xleB2z9M4HX84cIlfpH3MMbEyRBr111u2Sn4i9E2xqoGkaVQLXcMwCq7GM7a8ZdcToKKBnwRpujjdLm/DH+0vXtvnY0fxshOTtVMYLL7qPjYPd4iWnE/rB5/CiWtynratlsjPQFUB37WGsF3/QCZfbINFCNQTofTvhkVu0cpKCTNlesOtnHIwrczxIDuyZ/prdJOWFbE72X5M+fXy5cuJgE3uhqZFtwkrcm/1jxwd9MIWNXdoptwSh5TwOq0WRUbTpQGlvS3Yhgp0WKFJaKISHQigfK6TNnZN++/er29vPzSxoXeA1tunDhQtK8WVNZvGSpREREqu3SXpmGrHjx4hIDm2WquRMnTkBT5KspY+x43EhA1bdwkH0ZVU74TEuEido30Fe61y0tbaoVk0iwxuNWH5aN+85akzcBgAtsqqQReWNfubmezu3Dx24SL+YajYyVShUKyeDm5aVIXn/ZfPi8jF19RC7AbS4BWHjZdNJXdgp1sDOjegVQpVbFpgx3kh2xDlgs1USg24CGZaVgXj9ZsfeMTF53VKIRAGeBTWuBBAuHjcdLgyrF5MVeNeShn1bJBdgrDdgftjuoWQWpX6Eg0nTFyti1h2XH/jBJxPV2bSPLZqMdoJodk6eZ8MkmFSiQXwMvgiuUFz+kLDoH7e2OXbtl3/79StYbUGMAaMWQCtK2bRsZO26iREVGapBRBbA3tWrVVOBAhuvQoSOyceMm5OmMTAKvdmNWHaCaHZaWvfdQ1t7inKQ9bLBGjWqqFSdLXLRwYf1i3oKFsmfPPgWrxs4JXhs1rC+1a9WSv8eOV28IgWvXzp1g834SFnZOArEwK1myhGzctFmWLF2eZPd2tFvVqN4AjKptgaoxYoDUpjWKy1+PtJKi+f1lw4FzmuS+PkDnxLVH5P7vl8sZ6N1A9bu2M6LezVvWvtkV6bn2y0fIISsAuc/0qCHvD6ovS/ecURBQp3xBaOoTZeAXS2T19lMKZpEpx3Y5Zh2gmr3jZ5buZhQLAKl5ACR/eKC5DEKO202HwuQ8wGk95BC9hN93frtC5m88AnbUNf5yMXYpRt64rYH0qldGWr09S+KwGKsbUkTGPdEaeDVR9hy/ICXhHWkUXET+M36z/Hf0JkkMIMlleQzsdDhANZt7i6xnseLFpC/c2mSWtmzdjtxuFwFYK2ggxuYtWzVPrLc3xetW6gVOgG3btAIgLaL5OAkEatWsIe3atta8skwiz1RO9evVRX7ZCJmMc5hn1o6uZgeoZrPBZfF2BnQSZIZ2aKcLo1mz58qBg4d0cZQvXz5p3rSxVKpUUTS7weGj6iXQBRa+792zu5wPD5eFCxeLP0Bp/769FPROnzFLvQN8B0JCgqU78o+uXmOl8TJehSwW/bpe7jCq17W5M/UwskyCyboCdmDa9G53mbv1pLw0cp1sP3EJuNNLOtYuJX//u5XM3XZC+n3M7AYgV+nGBxBoWL2YjIdLsdPwBRhzT0vnFsEy89n28tjvq+V/M3YCkHpJ6QL+8sWDzaVPgzJS9dnJchAbIlBKYDc1rwNUM2Ve1+Yi4/KPipWRT7eVfg3KyqAvl8qcrcclAu5/7ib2/u0NpXPNktLmnTmyEQyrF9h8TSkHW58HnfGMzcdk2KhNElQwQFa92U0OnrkkdyMX8slzUeIL7fltcJf/9K/m8sQfa+XrKdslMQ/H72tTnWt1VweoZlPLmoAR3u6Wm29SDdO48ZPUzW20qrVqVJfOnTrKQgDVDRs2Ju1yw2sH9u8nu3bvQU7ONZpn9NbBt8j2HTtkwaIlCkipwSkIlvauO2+THTt3yew583SHJ/fnZlNVrultHKB6TZs3Uzfn4qpUqZLSH7ltyZxu3LhZgrB1KCUs/E5temB/sPzxMn7CFJdWGi4meApotytWrpat27dL8aJF5fZbB8msufOwINuGrUfzq/yFgLYBFlkEvlyouUsIMlXgHLjIAao50OgZeaTJSgQX/s9PtJGWlYtK/VenSxQTwAf5M5JK5GK0tG9SXua91FH6fLpYpq48JD5gRePw+aO9a8oD7StJk9dnIQ1OtAy7t6nc3jJYgv9vjCTinACwXVFwPVYEq/poaFX5Yu4uOXAsXLyQ79tmcz5UD47rPyOmdS3PVe0lmNHQxuVkxnPtpDdSbc0Eq59YINBiPcHk+wGYbh7WU6Ung5k+DoujBIyrpYvmkWWvdZZ7f1gpC1YdkprV4bl6u5t0HDZPFq85LHmwC1lEFGINYPvP9aklh05HyChs6EFvgQNUM4icLjM69teokhmtDUaqfbs28tfosXL27NlkWy5GYJvNXj26QbtXDK7SCarxo6avIPYS792zm8ybvwhM1kEpxgn/tkEyY9YcMLLbpAC0qyaoSv/Gf+fPh9tSE+kA1Ws57GXu3mRT27ZuKVWQMuy3P0YmsyvtL2RpqIlFVmucw8UXbY+BUhUrBkubVq1k4qQpEn7hgjKtd9w2WHPKzp23QCJdEhUCWgbQcUYPCPC3pb7aAaqZs63rehXcp8Uwwe8e3lNeh/v+8/FbxLcA9bZWZlgyrglxibJoSCfZAbfog2CdvMAuJWAyn/JiB9l54qI888tqSYTO71/dq8t3AKtdhs+XuQABidQP5kN8AcEDgC38tJbO1cgNrmtFs/YwB6hmrf2y82oN7AOb+tOjraRRxcLS6MWpqn+mfJqm5QskS23mI1hIvYyfxm/OlFNh0EhD3nJHaBX9rN27c+UsIuKLIhH+gQ97y48L98nzv6+VaGqpAUqZX5apnVSbDXs32uzsrMe1vpfDqGZjC5N96to5VApDUzoKQNUEQRk9Hr+nZpWs6gRM7mfPhinL1KB+PXXr/zV6jIJXnt8PLlTuMT4fLlW6/pNE1BqNakVS2zGgygGq2Whw2XArExTFrUEJKCdhZzgToc/b83supgoVKiQDbuqji6dDhw7rZ20AXMuWLSuj/x6rLCnZ0xBorSkhoI76CADr8eMnZC+CsWjXlr7VhqI+ghyTR9XRqGaD1WX/LTRCHxN+/arFZfZz7cEyrZCpyw6KF4KgrGhpS2bFoKmP728mzSsVkTavz1R2Kg8m870At4/9tlbGYJIneM2Lz7+4p4nc1TpExgCobjtyTn5fdkh2Yj95AgmNrrZp5L8DVLPf/jJ9R80K5CUznm8vp7EAuvuzJZIIe7wc4W9lrmgMu56Fczq+N08DAhPx2XeQsZQHq9oLu8klYuHEDBW3tg6W7+5rKtuPXZDFO0/J3O0nZTICADmO+8BumTPXbvpUtq0DVDNtYVdeyMm4e7cuOolTo5cySlonfLCnAwf00wn/IHSAPDp36gBw4CdTp81QBpb3yZs3D1iu1gACpfWcgwAH27Br13FETxPcOkA1GzsuE7dKmZ7KzlH/cXGx2MO+i7bCjJmz1bbM4soAWbL+gyBpmT0XGj5IVAhqqU89cuyYrFixKkl3StvMD10rF14ErQwk5MJq9Zp1sgGBgD6I/DegIRPNnmOXOEA1x5o+XQ82QLURdlqa9ERbuf3bZbJgwzHxopvTtdOWRvfDzTr83ibStU4pafjqDElA4GsXuF0/u6OhdHp/gRw9dVG84eZP4ISO/3VtUFpe6VlTKpfKBxIVLtjD5+Q+uFr3HgnXtEF2jPx3gGq6TOr6nOQCqtMBQveevCiPf79SEpACzdis8qoxCJLCwmrZa6HS9YOFsmzzcQkAuz/3xY7y29L98s3U7cqU0p1PAFsBtvoyMgF0q1tG8sH++cULf22QX+fvReS/E0zFjr1h01MZ5olAlczSzFmzlZlKOeEXL1ZMBvTvK9MAZJn2hzrTATf1lQ2IiqZ+zx+sk8mjSga2fLlyGjVdpkxpzQJAdnUW9KkmddX1eZuy7ykOo5p9bZkddzI5TzuFtkemigLQoE5KFtnPZ6gdwvZ6AZhORkAV000VRjYAMqwErocPH9ZrTE5VXmPysNLea9asrl6DpcuWy9p1GxTk2u1wgGru7jF1oSL/ZMUyBWQZdlx6AOl6pi47IKKMKmdw5ke1gq3GPNVWimP3rQ5vz1a3/9vYlrFV1WLSBcEqiQg+Uf2eyUFJwIpz6PbvWa+0vNq3tpQuHCDt3p4jh7EbkpcTTJUjhuE56aksmxz9ZBttx1s/XKjBToat1+B86FT7tQyRPx5uLi3+O0c27zgp1SsXkzkvtJfuHy2UzWRYoZVOSn5MA2YeVhy1KxaVh7tWkX9DJnAfQPDvc/dAs+3O2OZI92X4oQ6jmuEmS/sCav06QJ9aslQpuP7HJE34iuBhcfy+WtWq0hGu0QmTJqtrtBwyARDcTpw0Fel8whTcklElRR8Q4IdrYnXSJxAoUaK4alz3AyjMnjNf9X52Oxygmvt6jIueBvXrS8sWzeSPP/9CPtQI2JsluGd/McMEc6WSJR0zboKcOXMWWuwa0qRxQxk7fqLaKA8uughCL0Kvqgs0BmOBrY2KjJIe3boiG0ZR+WuU9V7Y7XCAai7vMZd73xu/d3/QS6aCTX0crCo1quqhR/HjAQh8wShte7eHTECaqud+WYUIaj+ZDX3qfLhI3/5zPYBtgGoDK5fIK+cuxeIHG9BAi8rxmAnHS5TOLwc+6i13frNcxkIm4A0gbLdNvBxGNffYsnoC4PJ/HZH9/w6tLBWfnwJtPzymrgWQBrSei5D3728qNzepoBrVMDCvj/SpKfe3qyQt35qNnO2ayR+pqIIkCNcdwALKD9pWfhrLxP+w4/HQZeeFp6A7FlgKhG0WAegA1WyyWRN0wtypXaBTZT7UI0ePJkXmk7licEnP7l2Tgqmo42vWuJGm75kweYqy/MyfWqpkSZxTVHbs2KUslbr58ZsBK127dJIypUvLn3/9DVB72UWbTdW45rdxgOo1b+IMP0ClJojyH3zLANkPOQplKTx04wp4Bxjcd+vggZqVgkFSXO1TZ00wS6mACZZikv9OHdvLtOmzZM++fZpD1XgaKBPIlz8f9KzjknkaMlzYHLrAAao51PAZeKyVuD9Wnrmptgy7pb40A2O6bsNR3ZlHZ22wpK/Cxf/2gLrScMgM2QANXwVE8S96JVRu/XqZLNtyUlP/MHBqwlPtYKcifd6ZZzGyDJwCs1oNmwcQ6A74colMRHS2F7WBGShjbjjVAaq5oResMqgnICZOKpUtKFvf6S6fz9ktL0JaojZFFAtmlNH8G/7bTd7HFsevj1in3/2N1GnclesJsKTesME4LKhu61hJPkFe1Y7vzZdtW09IIhZRlmdAZM6QLoi/SpA+Q+ciiwUZVSePaoawuidF/WtuMxgR0/yQNZo0ZSrYpzDN1UevU8MG9ZHUH3n85i+UrYjmZ9379e2teSjnzVsIUBuoO/mUhZv/Jny+CLv9rFy5RqOpudNVoYIF5Cbc+/Tp0wAIc2zrQnV2pso9A6V7HtVq1aoq0GTmiZ3YnIJxT/kBLhs3aqis6kQspsieajo16Kz37t0vK1et1sWY2Sp4IGQtgYFBSFmFnVIuXtRFVmUA2JrIC2zkLg6jmnv6nyVJuYWqfRP+Y5DFIioAoHIMXKnUob40aoNsPxquTFN35D/9F1ioR39dLd9obtRE6daknAaf1EYqqwtkT+H6jwcD1bNFBZn8ZFv5ev5umbjikIRBVlCpeF559+b6chQMV7eh8+QSJv5EG+605gDVXPT+mZ3UEOR3f9dq8i30078tPSCTEMCHOH2pVqqAvDWgtu5Q1efDRRIBO+Qe9+uRhmr4tB3yy8yd4g1ZCvFBfiyy1v+3u57z9rgtcjAsQgrjs9sQYHVL0wrSGTmCl247jty/dk2p5uxMlWXLdQ+uYcAUmU8ySCdPnIIRxWkQFXftWbV6rf74gA0NAJi9qV9vWb12vWzfviMpICU2FumC2rSWOnVqI2r6OLaxPKsZAMqVLaNAYSIisy+6QECWC36db+Awqte5wdPxuMs7qlla1JbNm+luaHR3krXfBttkon5KUAhIKUFhdovpYFNPnz6TlCWAzGweMLPtYLsVKpRTHTW3/I2F5GU5gOvOnbuTBWqlo2i55hSHUc01XZF2QUyqKNghgemr/erI092qaTo/X0zuR5HW53EkPZ+63JUNAPvdf/toSwlC8Mrd2G2KwVFJLAuYrFvahMgXdzSSPJjsuTNVkXz+2NnqqDw1Yq0cRU5K3dLShpH/DlDNZbasSf/BrGJL1B4I7Bt+az1IT/LDu5oIk/SWT2buktdHb5BouPjJvravXwaAtrFuTnEYMgAvjNFqtwCo5bBBwA/3NZF2NUpIGBZetN0T5yLlmZEbZOpqpFnTAEAXlZvLmuFqxXFc/9nYWe5gldH7dWrXxKReQvNSUp+6fftOZauMq5RMEwEpdX+UBZhIfjoE4gFua3IL1uAKCmAZ0BJ27rxuRcndqQgg7Hg4QDV39pq77bKEtDky+RERkUlZJmifkdCbNmpUX+rWrg35yeikYEFew761cgNjgIV+mhtU0K55DwJcOzKpprccoJo77faKpMTAaQAAIABJREFUUtFNT5aTuj1M6tw5qlThPBKO1FURmLjJuHoz/Q9+Uym9+b0e8gXcrV9M2Cze+YNgvy5BK29MfR/uVbpYXo2e3gNQkKCfwZcK5tWO+ShZLQeo5jZbtpCjygBoX/gjP/IBB8J2T8G9r4FRAJiqlUa+1DfvaqSBfS0gX4mnHZrVFdEuwCqDC4Lg9g8pnk+OnI2QcOb9hV2rrCW3VT2d5XGAajobKr2nmQmfv7lXOm3HGxN8HIAmJ2oT8cwk6m1atUTgVUkkUZ+YLHelyRRARooTvAGq5m8CXzvmUDVgxhNd/+xrO25pa+w6pT0ZVz5t0dgjzyWrWrdOLd0CeD12V0uZgi1ZlgvYLnWutNe0npPe9yqnz7uRgKoP9gentM22h2tbSo69Gj1N8Enwih8NXlG9aryUws49r/SqCaC6S3YeOmdN5BqXolGE1rlsB0b+8zNKuPgh2S8bMqmmP324oLwQJZOw/WYvsHPqOUHd7HRcEfWP/tQFhF0Pd5ujDdLmeMDe1ObwmeZShy0/3bM62NJY+XUu5Fnu4NPICHi92j31qbgWfZtk967n2K2ZfFCBeGx80BfbwY7FVsfsf78s2GyW01ORebT7hG8AmfukrX8zebrb3mWlkR2AUdEnT55KVmcDGq64XsdQ0P+ue7gDCDsZHncpCgFT3KdXDwXi7kDGLvUwfUDg9tsff6okw471cG/vqy1+3G3OpKFKLZdv2veg3Vqsq10Pjk2URvTr08u2dpta20cjGj4AzMyHCNZ4/rsV4lskD4gZu3Ivrhq6TcjKVCU3dCvpOc9B3TVQSsGABVD1SHG9fmTuYdPJ3hSf1eVuR54AVI9BL1z+mcnqJrdjIvtk7+PV7MrgBtqnriIZ4McgwdRtVjFIWnZvwwHYl9VG1o0cBapsN070nPA58dt9wr88nlm7oaT1b7rz+X3KHazSe70N7U3rGwmmOAQ7dPXt3dO2E74BbnR1/z5ipG4z6uUFxsXGQCw99uQORO3K6qenninPUUYVfVwedmsB1XhllT3hiAEbRXbiM2jhnv5uufgUtDmjmq5OIUVlLZwUgNocfKaryi60rewUGNWJr4YmMap+NpOSxaO/yJ+ewDahBKrMTgLq0UJnnny47FRB6I1is6irxahGSR/oxsc93gbEcgKCyjI//maaUY3FDiEjR41GkNAlBarOhO+5bxsZ1YpIycWcsHzZ7LgwcZd4TJg4WY4eO27bQKGMWNqNClStxTTyICMzQhek5jJp4zLSdrn13Fi4CAlUJ6w9LAM+WywJyjaitJ686Eo5yd8ok75xMaPP5wGotkXqIzu7/sMR5NbkzVmy68h5ixnXw0PRqjureiMtrlBXdXggM8I9natqlg7OQ1lZXGUYqHLAN6B0CrYQ5a431p7gydnI3DrIO+VKfwu4R5fXq1cHW8S20uAbO0o9jIaTIHv5ipVI07RGI96NW9zTF1rp73X7nuk+BumGHfAEdOjQXjc7sKtkJbXeYO5maokPIlE4c4+eQgCGNwI5rDziHuBSta8JZl/JXf3IoJR4BJZVKldIFr3cUUqBPbcjWaDjL/Xz+O9uyFX+mLNTfPMHWpIVx2azz25y8k5u/Yj9CyQeOZJ/fqyV3NU6RG3WJwua5AwDVaO55IS/dds27Li0QPOJGtdqTraT8+zsbQFO9grk8NO3by+hRteOg6S1mLW0wqwTN26YMGEy0oidQQ7RQI/3BmSvVeT+u9FmKe0IrlBBevXqBmkYUrwo4egZzA3tmEFHPmBVP0Vexqcx8Sciyp1g1dsVyJH7e8kp4VVbwBVYplkLwKZ++38t5IH2VXSDGbpV7WbLarP0xuEd3HL4vHRCXtuTpy+JF6LdWR/n8JwWiGNQGFLJhTYvLxOQ2zgPN/BQljXz/ZwpoGqalMbHnW+2IBm+H7ZiZEFsLun3HGvJQk0sPQ0jaJG6CH80b9ZEmjVprKA1ZVR5Fh6TI5caZo3bii5dvkKOQQLAFE5ZeIdypB7OQ69sAbOgJ1POvLCtWrSQfPny2j6YMbW+dicMPp6+Qz7Dz/4TF6zUOI4x2//1oDFj8VGpZH55vk8tebhDZYzFFpNuN5Dq3hkW0PaWpbtPy7N/bpAVu05JItOQOTZrf5sl+sOiIw+Y8j6Ny8pndzaSEkjbxUU1uzcrdpthoGpa04AWuoK3btshu7FdI7cMdezN/vZmTfheuuFBLbhNq1SqZPvJPiXjr2wxBv5Tp85o7tDMr/Xs39+eUgNLpuml28sWK1ZUq+WJkiR3vbVhig/B/b8NOzpFAagayaqn9OuNVg9DFAQhlVGdsgWkNPaEd8/iYUebdh9/GfBPFjUStrp631kJg5bxioj3G63TPaS+XEiVLhwkjSoU1nHIsOg6NmehjhkGqld7YYwOMAvlcS7NRS1ggqbsPki6ewBSSyGWi5rcKUo2tUBKmzWALptun+O3cQerZuLP8UI5BbgmLWBpkhmwbO+FlzvAJsumMhXn8MgWyO7xN8NANWWruhfII1v8Bq6U5V60vDKaFsYDAuZSvkCOttozDdxIVDzBZtPqIXewqlIdE2XsmV16Q9bK2oDDGns9YbHlXg/aq27w4Bwe1QIce3WfjWzEDJkGqqkhZo9qbacySS2QnQbnNKvTAk4LOC3gtIDTAk4LOC2Q3hbINFBN7wOc85wWcFrAaQGnBZwWcFrAaQGnBZwWyEwLOEA1M63mXOO0gNMCTgs4LeC0gNMCTgs4LXDNW8ABqte8iZ0HOC3gtIDTAk4LOC3gtIDTAk4LZKYFHKCamVZzrnFawGkBpwWcFnBawGkBpwWcFrjmLeAA1WvexM4DnBZwWsBpAacFnBZwWsBpAacFMtMCDlDNTKs519i6BVImTHcSpNi6O68ovMnO6OnZKlLLvOLYsufYcko7Zs2ysrtPbmkZZ/zNLT1xbcpxLcbfLAHVlHn8kI5Yt1B10vheGwO4Xnc1fWgGRU+a8J1E6dfLinL2OfFMKJ7NufxytkbJn64gldtp4mPWlbmOs7KXdm6qm1OWyy2guXG5MyVzqfJjm+eydsbfG8C6YaPx1m6q2ZZLNVNA1VN2KroBTCbLVczuHSayXKAs3CC1rSfjMMmfvRgtsXEJzn7TWWjbXHEpBkhuO1koj5+CNk7yBHKetNBKAVeRMN0CMTwuRsXJ+chYohmHLsgVBpnZQnCR5SUFg/wkD+yZh7WTE/+y78YraY2/YZdiJCYu3rHZzJpLLroub4APxl//JJvNrs2CMgxUk2+Dhq3d8PbwJTp95rScPRsmMdHYt5elcw7btgD7OG/evFKocEEpWqSI1sPuO/ykNkh+PnuXTFhzWFYfPCfnw6OtJaBz2LcFYLdli+aVemXyy+CWIXJPm5BkYNW+FUsBT127FBGI+2D83X4sXD6Yul2WY9/0LYfPK+vm+LVs3NvsVz8fqVuuoDSuUEhe7F1TqpbMD+acW6mCRbfh/Jps/OUwCxP9DOPvpDVHZO2hcxIGssCxWRvbrKvoISXyScOyBeS+DpWkd/0yyXa2zErtMgVUzQP5woSFhcmiJcvl5MmTEhUVJXFxcQ4zlZUeyQ3XYqD09w+QwAB/KVe+nLRr3UoCgwJtv41fQiLoJ2UkRO7+foWMmLVLxNdHxB8/BKnOFpS5wfoyXwZO4PHo41iwM1g8v3hLPRl6cz1JdLnG7TjBp9UY8ainj4+3LNl1Sm76ZLGcPnXJsmNf0G7WpvCZb0fnypxtAdN/9PJEx0lZTPyTnm4rDYOL2BqsJpD+x/jLBdad366UUfN3SyLHXX+wxs74m7M2lx1P5wIkDuMOxl9vHy95/87G8nT3ajoUGRlAZh+TYaDKB9HgOOhfunRJxk2cLOfCzgHY+Cu7ak0GziCZ2Q7JHddhMEEf8yc6OlpCQoKlV49umBh9LKOzIfPIFT21fL6Y3L+bv0ce+mqZ+OTzh6VaA6dzeEYLqKufej4AuURM9DNe7Chd65bSCZ7soycctGWa7AWAmNBh82TttpPilz9AKGNxTNkTetiqA6dSX9hybHiUdGhcXiY+2Ury+PupnMVuY7D7+PvRjO3y/A+rxcsZfz3HWF01MbYZD7Dqj4XzoldDpWlIUYxLlvc9s0eGgao1SFIv4y1Lly6X1evWS1DgZbbN7i7izDakJ13n3oc0vOiYGOkU2kFq1qiu4DUrBpdT7WQWV3x+9w8Xyqy1h8Ur0E9lKzojOIfntICOT1iARMTKvV2qyg/3N9V+5iLFE444gHDWZe7WE9L1gwVat0Q1YceOPaF/k9cBS2kMUX5kz18LlSYVi4rpfzvVNVHF1ADdWDyGvj9flm85IYnQ3zrjr516MZ1l5fgLRpXj78sD6shbA+oqdUkbzuyRYaBqgAp/jxs/UU6cPKVMmye51TLbmJ56XQyAavVq1aRzpw4KVNnfdjsM+I6KjZPgZ6fIybAIAcXmgFS7dWQ6y8shMQGBRW3rlZYFL4dico8XP8o8POBg4AkH/a/m7JbHv10u3mBTUT0Hp3pA315RBczwPgB48RejZNKrnaQn7JmyD7vZMr1W8LfKaWhRq7001dKkWpE2nthrN3yd1GYR9zGgfUUZ9Wgr9Wj5Z2H8zTBQNVHgsbGx8tsfI4W/CVLTA1RTsq3/9G/lCHBvw+Km5xnZbSGplVHTwDCq2CWByO5nmvuZZ+dkG/DZUXD/B1coL31797Qto2rsNjImToo/PlEiohAdnd4VnlsqIJMiJtkAm/J7dCBfVA7O1EfmyGCcSpnJMrI/OdHpca0mCRejqc9i/V1luVbvSWr39eGzI2KkVZ2SsvjVzjpQegqjGh2bIAF+3vLBtO3ywncrxLdIHsjC0ilfyaAtm7RXOdWP2rfM3sB5wPU37ZYucZbJpOm6JrblaqucfpcpO447Hy0Th4QiQKWsvr92s+V4Baoix89HSvlnJlvjQnrHnwzaLG3hutjH1YzOvcwuPU6y8Te9dc+MYbuPvxzrr+Wz0iifLyBSXHiM9GkbLOMeb6Nz4XVlVA14io4mUB0BoBqnov70Hu6gM620Me7nkM3z9fV16SOtASvl4Q4mr4X0wF3uwGcTnPMz6nKz43kp8+O5p4RicFo86JKAgID0NnG2nxeFPqgYXEH69Opha6BK2yFQLfHERLl4CSv6jKzwONhwcLVU4amDLwPKqMUBSMKbaQW4pAXUUpmAs7XzkspM5hh3hqZRg41c6UOy5Vkp62AAcAwoPgY15bVSlVzvg91E11Nr6FMXvdLJo4BqDNyn/kAvH03fIc8BqPoUCoQ+NQMtbOyU43ZaCQJoJ2xE3ph9iZRfaU54/wQkMlC0VAZ367muQJykoJtLWGgGMnjsKu9XRp6bVh34OexI32O+zzm16LoARvW1TtILkdR2BKrKqKIfCVTLEagyHVVGNIspx193wzU2TLvW8Qc//2QfLvCYcgGUEZP5x3NNmQ0+IjnCIiLtWLbYUWp1MOOv+1ifEzbrYlT7tg2RsY+1zjmgGhNDoPqnEEim1xVMAEZQ6+fnr9dZUYCXd9swAI3AlDpIAsIKYPLCEKx17ty5qz6HYI5Gx+uyAzyyXKY8rB/LxMAilrlE8eISEBgghw8fyVa9pnsd+Hz+u2jRIpIvXz45dOhwsrb6x5ckm04wjGqIpwFVAsn0LrBotwAGhTDAnMekFcfJ25XT0EXzaGsHIno1AOedj4zR1Bw7jl+QXUfOixcm0zT5Ls3fiosVNGSAZbha/1orH7gHvSVfoK8wTyEBR/2KRaREgUCZtemYC3QQdGeDobjXgbfDJFSjfCGpVDyvTN2IZ2l5sulZ6SyuYVRvBKDqWzgofYyqa2LLDzsmS3iO7leNtnb1jet7NnHhvAFyDnZcAWxtA6RImrL+qAZrXdGPBiTwWtpBUtYBF2BIZ39d9TQ8tyAWPJQ8RCJXrB9AI13gaw+EyaGTyHbAZ2blSLMOlta5B57FFGB7joZf/V3OShmuci3ZwTgEVHkUUM0I00c2Dn1cAHbLsSyB3gP1auowh9/02mBNDM0r+ysSC6te9UvLOtjHwX+yDwJm3itbx1+rPAGw0yD8nOP4izI3rVIMeXF9ZOE26HMJ0tNaJGbUjtzrwJsi8p5jffH8/jJny3G83tn4rHSWzbLZaMk1QJVgMr3BNRYzmSA9EUF+8uRpWbFyFUArVhe0N3xHEJgnT5D0BnO3YcMmOXrsuNx5+2DZtn2HzJm3QPxd56ZsK16bPz/yzAHYRUREXJHg2wDX1Nz4OoVehRonoK5TG3nsqlaRKVNnaPqt/v36SMlSJeXX3/5ASq7oq9bfnR1NrY/dy1agQH69f0REpJaJbduze1epWDFEfh8xUi5cuOiWWSF1i/knkP5P36e8qwNU1TjFBwPNuGfbyabD5+TVEeuBSpFSxQUIOTAULOAvC18KlU9m7pRpAGfHPu0nvy3ZJ3d/sVSDtjiouuNQ/RsTcAWAOTJkx8MiFTQYV6aOweYCw/a47pEU2q2Sm8vjNcuTNOdCn3k7ctk93LGyBi/ER8bJbERgdqpdSko9Nk5OnI8SbzBEqQJo3seAFrdnWO+pqbY1WbAOwSXySlRMgpw4B7uliB7PHvFUW7mteQWp+Nwk2X/8onjBVc0MC6mV1zUAJL2HWgc37GQ1c8ZAvANUrxwf1KbA6lC3+7+7GsuALxfLzkPhYAo5kXGRD+LyYow82ruW3NeuooQOnSOv9asjz/esIQ2GTJeNe8+KN8CAsQGTUYi2EogJOaRYXtl78qIGzCS6xlTjfEjqPxcDb8Z8LSXtSH9ftmU1P5cN8jlTn2kv4xEA+c2ELdII5V/5Rhf5eMYOef7XNeIV4OcKJruyzu730XE+tWe4AA9BRTDqsAd1oGs6AYCnUpkCsmtYT/l16T65/8vlQB+sv8v20yiv1se87y5bTqpOBu2YNbrhgSr6giY684UOMhlj68cTtiIQi2OXq+PguSmPPLOTn2wrQ8Ztlh1YVGx5t4fax4u/rbX6LLXxF31RCXk/wzE2nsZCQFNlpbRPN+9ZMls2dpvW+Asi5N99akqPumWk30cLFEuv/m83fUcqPzNJzoDw8Ab4Tm38dbdZY0sGk5sx3rxP0G5KxZKoA+535kK05XzAWDz71Y4SWrOklH1yghw7FwUgzjukMv66zTEGB2XH+GtroMq+JSvZvl0bqVK5kvz519/JNK7cLICgsH27tjJy9BhlUasBIJ48fVpTYHl7+wCMUmrA3xgMAXr5dyzA3QCAx/MXLsi0aTOUgWSjWymWEO3r5uLlIENAmzIAjADRnUE14Jvlbda0sdStU0v++HO0lrdM6VLiD1f8gQOHrOhiPMdc675I4j3cQbz7M1gXI5mgWyQWDPXA/n0lDHWePmOW1oG6upJgb/Plyyv79h/QOhljisMqivXnwbow9Y7uxINzWD8aJcumeW1xsBzpZb7dh3sHqFqkUwJWxUPvbiQPtKssFZ+fIhfJyOILE11+G0DhiP9rITVfmS47sJIf1KaiMj67mICdjA90hTraknUiM0U3Ihirqa91lpMYJO8dNl8E7JU+jGyDOced7eE9eC/39GCQMoiVnlC/8+IPF31wfT3dv7a8jGTh5Z6eJDEYyJrWKCElEHgzbd0RSeDAxfsZd5npdN6HiMXFUungHG3lJdWD9yfoNDMv7jvj9c5y6EyEPIAIdEHCfTKqdbGir4xJYOLqw5KgYyTaSgdR3EsZEeteHKyTIn+N/5pl43l8Bv72MoA6AwyEA1SvBG062aFvihQMkh1De8jXc3fL63+sRZqgACtFG00UJy17o6scPhch/d+Zg/G3mNQDOz521WF0G85RLSx+yECxj1x9Va9acVmIoLVmb8+SnTtPi1eBAMtGaGM8x52xYj/zS5crXd8hfmY+p/3R1c6DwZsYv/e+31O+W7BX3vlznQQUziM3NSqLHLKnLUaVhkWZSbKBi//A53zndCzErVh2nmcmZz7DgEoA9EY1S8icFztIkzdnyZ49Z8QL7woh9MCm5ZWd2w3vCO+n7mL3e/H5zAVqDt7fvO88z3gcWF+D7q9CjqTsuRsdqKrdYvH73SMtpAPGsNqvTpcY9qN6UBldHiNPYHE1dFA9qfLiVF3039oiWBbvPiWHTsA+zFhHW2C/sH90TI6XJW93Uzt66X/LJaFIkLVCTmGfFvpz9aPaE05TUgF/pDr+cr6IlqH3NJaBSCtWE2UiXmlbu6RKduZtOn718Zfvisvbp3Xne6aaXtf4S4DLZ3OeQFmXAwDPQQaQIchNm1AUcwjq1RTvIxnVGfCExOt84Vo86Vju0q2iLt54TtL4yzblufwx4y/Eplf1CF45zOgntgaqBHOMvi1RvBhAWT8wlNPlwMHD0HparCpB4YCb+uhqdtKUaaD7fVUHqjpNDLCc1PJhx6Tw8ItgsPJLnrx55NSp05InKAjpk9oDPETKkiVLteEjIyMlCEnqfX395OJFMDocXPB8grW8uI7MK43HAnUihQoWBCubTzW33MSAKZno7ucmBk0aN5TatWoqsDbaVN6PbCuNOG+ePHouB3DlBmjXKAPrwx8FxzCOQgULKPPLf/MZkZFgtQhmYSysV6eOHeQCyrp0GV4aVx3IIvP7aNeOX7yWwLwwyluocCH9nIA+EuVke/E61o/gmW1AmYI/EvdTPsF2MMA5vYFpDlBld8ITgBe3GlygW/7bXXogvdVsgD0ypbogggt1KvRj/hgQO787T7wwARaEpo8uqGj8+MJuy2MAOYik7GRs+Pdq7CJUGgPJjw+1kHMYaF/8eY2cgj2eBtNZGBMk3bMHT2OQdS3j6foqhwn6GDReUQr2OOCKVCqdX4KL55MIaJK2YSINx4TL5ycCWHNF/3z3GlIVA2UsBqE8uKcvysjVN4+yuF8QmAlrGOP/YWGD+57D99xW1gzOFUrlwzMsu+UzzqCMHOgZ0FER4PqXh5uDoY2WV35bIydx/RkA7yC0jT++P09ATzCAaxOZvLxUAakJloryiO1wpV7gjmBkpzGhl4TWktU6jTo2BNAtCgC19eh5Ocp20AwNWsg0hsbkHztANZVmQh/oxI42/+nJNlIHOx81+89MZT/1c7jVa6LdN77VTXp/slBmAJwGAXAGAmCF0WYwthTDv9nvp2ADzSoX1SjuM1ikdGlURr69t6nc+8MK2bjnrBzAMygVCC6WB+7aWAmn+1NXKolSvGAgMKqXHKUXgfYNEFKgUJBUhHeBNrD7xEXZC9mModVZti3vdJefFu2T4aM3iE+BIMkPm7mESTcG43UQGNVyBBmuQ99JHScT5ChYfg00A5McAHvi4qk8zj2IMtP+NNgRZSkGoNm5YRn55p4mctd3y2XL3jA5AF0ovaqF8l5+l71Q90TEZ/ji/LoYD4rjXSUDuwcsnnEhU1YRjHec7DJtuB7OC0cdN2MHpmgCBYKkDDCrNzpQ1Qwe6L8W8AbNx0KizbtzZc3OU0mLA3oJlmFc3ofx9c7PF4Nh91WZgGUfVj7PspDH7Ed/VMPYUwx9smH/WSmDsWvUoy1lw8HzMnzMJjkC0BkGVrIY7JM2f/gsMsO4QCo9BqVho4eRLUbtybVIq1QqP+w2n47hO0BKXEQ/e8E2EvFe/OeOBtK/YTlpNGSGxMPM8+l8gfzHfJdgI7RDPifJbvGHtaU35nSOm3wO3yGM8WRi6XnbjvGXZaQNEfTy2azD6gNn5eMxW+Qw6nAO3+elvMeM9YYKxvhbAZtHVC9dQNnXHUfC5RKew/biwqsMyhOBep0DyG6C3KcFMIdtwfNO4F3JqD7b1kCVHWJc/AzMIRicOm2mBELvSaayIMDXwAH9ZM2adbJ6zVqA0YJy2603y8pVa2T12nVSFkxm37695RDAbUhIBQViixYvBZBsJMUBfslKxoJxXblytayHdKBj+7ZSqXJFGfHnKIt5xTNKlighN/XrLVOnz5SDBw9JgQIFpHWrFlK5UkUFiZQiRMOdP2/BQjl6FCufhPgkoDpy1BgFl127hEqxYkVlJIBrIJjVHnDPlylTGoAaYBoGSPBLgL15y1bcZ5ECWbKydWrXwiYJkCbgHE63i5Yskx07dkphAM4e3brqbwLl2LhYWbFilWzYuFnzl7KurANBJkF7s6ZNpGmTRgCel7S8BNOmvGRZu3QOxdanhZWdLVumrJaJ9Z85a44ys0ZukZ4Z3wGquv6w/g8DxZTnO+BXgvR7bx42DEBaILz8pTCIbMLKfOjkbfLRmI2Sv1g+2f9hL3lr/Fb59O+NUqVaMVk+pLPMwEq6d4MymPRj5IEfV8mQvrWldZWiEg6AcBH3eX3cJvl54jZ5474mcl/bSlLxmYkK0BLxfY3gwrLmra7S+6NFMg8u0FKYcD+8o6HcDubg4JlLuic4J8N7v18pizaf0FXzY71ryIs9IVt5YapEYcL+3yMtpW31YlIXjLA3Bs0p2O2mS51SGmDGiEwC64IItPoaGyI8AoYhP0DDm8iD93S36jrhE2cQpDwGd9pfOKckBunJuEcDMG4XUEYmoB+C+v+KdnjngeZyZ6sQCXl6oiSS0cD3LyGf3lDsFsUJgHoyDsb3IBhoERLWs22/Q/maVwJQOnReuiFan/aeD+fd/MUSmbTyoC4MlElIx+EA1dQbSRka9FNjMC4LXu4o3T5cIEtgl77o9zhMUC/fXF+e6FpVar08TcIAGB+7qba81b+OVEAAzMWwS/LBfc2kX+Oysg0LCAb20L26GRPex7c1wHrDB7YMQIZ/D/xisVxEnx/+uK+8O2mrfA6XvR+Y3BhM9D880VZqlMknbd6eo0CxV+Ny8hWkCEWQAJ4u2HIAEH+tOCj3/7ASkzPJBS/ZBgaYQPW9EeukVIXCshsM64M/rZY/EVDWBVvlTsI9ufMcx1YCVLrxOco2fWu2rAXb1KZ+Kfny7iZSA5P+EQBkApcF20/JrV8vk7MAOA9iQTd8cD1NoROORRQLxAxjAAAgAElEQVTrMACyHS40j33WR4aM3SxfTdqmTG8wvAYj/t1KmsBWacsECz8t2itP4r24AEAeDCCw+o3OkCockVZo53y4pgKuYd7bgdhF7DyALinedJqy4/p3vfS+aLAFIAS2YYHx0FdLxRvjbxzsrSrsYdWQTvLEH+vktxk7pRQWYLsh11D7gBSrMaQiM59vJ1M2HJNbmpWX3ZAiPfXnenl/UF2pi7GL4ybHr2cg6RqHlG+fP94K43IxafLqNMgG/CQe70Wr2qVlxgvtpf3QubJuxykJgR19endjzcJwAONvIYA62tXd366QdfvOgNhIkLduB1CFbTd4DUAVY93o59rrwqbTGzMlCPY3E/9uioUh7ZVzdBTYXhIc72L8HPL7WsSn5JF3YZP3Yy7goo7xD9E49+FfVsu05QelIurNHcuqwvV/Ae3AeeRptMGEuXvkm6faIOduEWn2yjSJJ3DGGD8U7+gLvWrKEdhsIWi+D52O0B0a1+5FefGejXm2rZQBGD8aFiWtMC8FYezl0ffTRZhTjgOs4j7pGHt5iu2BKitBYNUY4LJxwwby99hxCrgIIuvWqS0tmjeTESNHYeUZBRAYJINu6Q/Quk7WbdiIybmE3AwgG3Y+XObMnadsJYEdJzRqOcMBNOfPX6AsKnfNaol7EaiOGj02CeQVL1ZM+vbpKdNnzpb9AG11a9eWZs2ayGzcj8wk34luXTopsBs/cQpY02iAwsZgVGsoo0oGM7RjOwDBIjJm3AQFfdzwQHdtQt1YJgLnqlUq4/pJcvr0GalQvoIyvkuWLpNj0N2SXW3bphUkBKVl1N9jlZllVD/rcO78eVmwcFFSHVq3bCHBAKqj/x6nILVBg3rCz2bNmWcFc2G11ApAm7tHsZ5hYWdRvg5Sq2YNPG+57Ny1W1+Cdm1bS7GiReUvnEMgnV5dsQNUrTdTySCsQv8PLqZhAFt1sUo+eOqiRtLfDh3olxi0Kj6HXdrAJAVh0t/+XncZNnm7fDV+i4RULqJAdi8mxNuwI9YJ3IfANAD3nPBMOzmByfmR/y2TWAyKF89ekpcH1Zd721aUGmBCVetHNrd8QVkOF/vAz5fIPEziN3eqKp8CqA7G/bZCN+sLw/3t363B4PhLS0zOsViVP96vlrzQo4ZUeWGKRKNcnzzQFANQMWmGgZOraA6auqLHIyJQpudw/oPtKkm7/86RrWB8mwPEjsKE/DQG8AVbMVBhIH3vrkYayFIXAyBX/hxYJzzdTifsx5DT09RhyK0N5PaWwQp46LZ7AOX4Bq6wuwCAp288Cg+ql7yDc25rUQH3mi574Vr9+MHm8iQS9D+NSWQE3LzUu34McNG2alHNvahMcjojhR2gmsaM4pr0CVi3De0pcxDY8RgmK938AhPdJkzw0zcfkxeg/aR/6KHu1WVIn1pS/aVpEoHFyuu3NZQ3YCevYEEyEn0UjkHvEibyUNjEyP9rKX0/Wyzrd52RCwCgnFj5HgyfukO+wuTrC3uLBRP7NfIqVsdEHwpmjGPTdCz+jgDAvga29BL0gk0A7mY82x6T6HL5A8DBF4CEjOqPC/fJsJHrpSSAyAa4O//961oZs2CP5AWwLWyyS2DCDUQ2gLlg3iauPybP/rRKolCWH1E2MlgP/LgS7G6seiEWIYH+8Knb5e2/Nogf6t+lQWn5HR6OPgCTGzF5hwMU5AHI3PZeD4DtbfIt6pAXAGMRQNFFlPPOb5bLeQDTqvASLMa9vsHi7cnvV4EcKCCbUL5jaK/BXy6Tw/AI1AarOvelDvLi6E3yyfjN4oUxIqXqJi0McKMzqjr+UrqBMWwIwN//dagiDV+fISfBeDMjw1M31ZFnulVTG43EWFMC9sD2fxwLh9GQt9SpVVJWYuxcBQD5wHer5IwC01jt29nQva6A9vp1AMMo/PsSxrEP/9VU2lQpLq3obcD4SM19C+g9Jz3TVrpB3rQOoO0BvBMvQbvN8XfviQsYz7xlIkDjeZzbA+fE4/dbGJ/7NyJQnS7xeLd+e4Ljc4D0gd0LWHoyu3xHOMRHYCx9B0CyK8bcjpDc7MdCqVuzCvLNvU3koZ9XyRqU0Qv2+L8Hm0ktsKLN35gFxhieVbxTs/D+LMJWym9i3IxGeS+djZRPcV6TkCLS7q1Z8EYnyIsgCf4L0uFmzB+Lt59UNvYLeEBaYj5o9Pp0OY5F6c9PtAHxUR5AeI1MXnlYfCAN+BFjMsFrc4Dr6Ax7AWwaTGUYVQIlsqeDbxkIVnGpbN68RRlI5ukkq0nmjwDQD4Bz8KABFlBdD6BasoTccnN/BWnbEWAVCIBoNJn9+vRSoDodTCn1nQSMLZo1TQZUDaPap3cPmQYd6NGjxxSwUQIQEwtXv4t1bdSwPsBpE4C6v1GeS9IcbKhx/ScHqhNV/2r2MOYzK1UKkd49u6MOcxUkki2mO57MLJ/hA20qASc1ul27dpa/x4xXcErAyTrw7xkA0aYOrVs0l5CKwUI2l2WlZOLEyRM4Z666+FknBqANunmgbNy8WZYtWyF90I6UBfwFYG0Y1+rVqiBhfygWBuNVBmBJFf75cICqaSOLUS0N9nTXez0BptbJd1O2izeA2ixs03kSQO+2TxapO4puop3Desh7LqAaDOaFmsA7vlkhY+bsEkHkvR5YZE1BANYZuInuHo4FFlzxymrdUh+MaohUN0AVA1J1MKorMEH2/XSxLAQDpq4YaoqY8kT1rgiewmr5w1vr64AdDhD9RP+68nyP6lcCVYBsvUbzqXKUjJGWcN0uQlkGATCPBQBhEvkE1UCh3ri3MDEegGKLJuVkOkBEEwziu8F88vIZ0CaSTbj/o4VJdRgyuD4Y1WCpATaX5yx9vYtsBqB+CIxwIiZ7Avw8eMaWod3lf2AA3sfg+D3ARVMMrg2enyyJ1PwBBIQiIIusLSemHQfPWW61fzZbeHOtPKpO1P+VjaWsKvr0P1go/F9oZWyAMQkLmRhpB9f3hMdbSw+4/ZdvAcuNiekh2M/rWJzRpi6hj4eB7admsxp0zzru0Y7A1jQCuJzzQkdpPXS2bAVQZQqeIPTVtve6yfApyYHqN1hQVYecpOO7YFSJQGhnms6MGmyUDuPwyne7gYE8KS//tFL8C8NjAeDhDlQ34t+PAkyPAXhNZLo11Z6iYrjPqBfageXMr5N0JD9njAJ9+Lw/0/ZA7iJgvMYg4ITKr8GwWwbSNKteXKaD5WoFoLAdQJVBOHkBYLfBRofiXf8a3pFu0Kj//VhLaQSgsHM3zsHCUACgHupbS5nnSlgU5sX993/QG4zwKhk1a6ck8n3HOXPeQRAxft/x2RJJ8Le0s+k5HKDqkl+h/6oD8G+EZ2nwV8tlAoJV/QH2FoFlXQlN8RPwJiVwAQ55ypZ3u8tjWMgQqNYFyFwBhrsH+nnBqkOSiIwWVkRgoixBUN5y9OPzYEK9MS7FYSz+8P4mSUCV9s1xpCUY1UlPt5FOCExlUKEGXtGeOP7SniLi5Emwn//uXFU1tFyQvYVFfapAdeg8ScBiKpHX0wQwzvVG8OIYpHGirGwemHgvLLySdNt8Bm0YTHzvDpXlx381k7oYD09QEoX3Z/l/usg8gM9XYW9ahwsx8ukDzaQZ5p22GOt9AIrX/qebTIBc7TUsShMKQccKr0FxMLEb3+4ur0L28DM8HuNwH3qwugGUxnHhhzoMhneF3o56eN4REC3p1at6BKOqOktGtMPd7QNDmDhpqpQsWRJgq7+65Pfu3S+++DwAYHXwoJsVqK5ZuwEMZEnpDw3rdADZgwhkCoD20kgJCHIJVGcC5OWBq52yADKqlatUkr8A8gygpWbTAqqz5ciRI8qEUjZA130wmE+CPgJAsrzjJjDfZoQ0czGqBIuM8ic7SkaVoM+k0iL4zAud6eBbBsiOnTtl/oIlCqTpiueAXgSu+LJgUIOR5okgNAi6Wn43Frt7nQ+/oMFQrAOB6qzZc5Pq0KZVSwkGUKXrvxB0uTf16yvLV66EZGCXansTEc4YBfb5lgE3QW8SoW3Zu1d3vf+ESVPASvtrmStVrCgdO7RDnSbL+fNXT/XlPng6QNXVGtSyU1qGQet3RJeSueyBlXFVAMidAK79wCRNXHpA9ZacoA1Q/RJRqBWh5Vv3Vhe4sJfJHLjtfehmxeLFC5PnNIDc0wC5d2EQVddoeKQyqveD2ayGSU+3xsSkygF6OYDqTXjOAriwOIA2AKjrWBP2DDkBV710Zx5FhGdTBIOEYxB7HG7bF7DqV9c/Bh2ussmoNsVAShcmtc+c2IsVJGDsKSPA1D7JnY5McA0nBrBXHRBk0hcghummSuS3QHYzsLaargcD9syXOsKdFCn3wUVk6kDm7Q4CVUS4FgHDsRaDIAfEEfPBlFKTinpx55LZmHSomR2IMn8HkEANYac3Z0NW4YdJA0AVdRsJVrf127NlJ1gGBUbpOBygmnYjqeYa+j3a7mIsMv4FMDh53l75FpkaOtUqIVXhGaAGjgGED0M68jpAGIHqRbCew+9rqjbXFCwRF2U0zwSAvxYIcuECpsOwubIBQJXbYwa6GNUPpu2UL+H+N4wqgWq1UnmRVWAeXP/AephIOwJMdK9XCuw5UvjgvtTkvTp2k7w/CmwngN5ml0b1PbBGpeCuNUD1b7CY3rBJwr5YvEfPUF5yc11pggl6E1h6b9gaJ3w/2E0H1K0LdI6dYM/5AC7osv9h4V55FDafiHmgDT6nK7U9yrWJ7lBcQ9ZtB1jmoZO3yv9GbpBX728mN8N93AZgluwv09ZRP1kLbtYN0PY2wCRPdngPpAm3f70SOt+D4otJPw5tORHvyRn8vhcsK8FNemUsDlDlyoq43tKGTgELSh393R8vlMZ1S8tS7NjVAVKsJUzFBEBXAhpTMvCUKI0CMVCf2taXO0inYWBDwTxS9kQtPm13KSRZywFynwPI9cF1MdDHk1FtW7WEtHxjRhKj2rJWKQWqnUEobNhzGvbiDelHUbwvJTUVFr1TTOW2FWNiGyzAoqHZf+tOMKrG9Y+F4e/QhZNR7Y3vE2CXSpKBaa1UJr9sgMftfbwnDBYUxC5o4B/KWAfufTP+0iNQGiCTuv/mGH+Pg/0lflqGOszfwUXdaui3WYco+eyh5tIM2+22eXkqPLKFZQFs7/+wsJuG4NZEV6AimeK17/UCo3xaHsO8Mgb3icFzbwdY9gHY531uBoD+EGN5Kyz6Dp+GptwVTPZPQ7BHAFVWksxkVYBIsnw//PSLygAqg2UcM36CxIFp4hEAlnXwoIEKVNeu26CMKjWsMwBU9+8/mARUydAqGwt3vwGqlBcQqFYEwzmKbCQGIoJJuv779e2ljOr+AwelXt06qmVlntJDcKUzyKps2dKq7Rw9ZpyCv7SA6ugxEwAWGcAEoweDczPAInWqY8YDwOq2sq5csOXLS/duneXM2bMKwgmiCxUqCPd8TcgHxitQJaPKOpwPD78KUC0AoN5XlixbJrt27UnSmkZDnnBz//4o66UkoErQPG7CJLQhNazRyuB27NDeAsYAw+nNAOAA1cuvpDcGSiaR79qkvEzCpJ73ob/lWbi0/4WXuTEmKCOSTwlUQ6i7BAN0CyaoGVjRE6hqBDXsnED1DADZnQCq/gSqcGe9CqB6V+sQqQl3t2oOCCrg+mdKHgLV+bjH7Z2rye8IYpoF3dtUANfzDG6BFrYngF09uPYJVJ+AS+z5ntWvBKqvTQMziSA9gmXMAEsBIml/LTC5cwDmM6m9bQs31BS49ZlD8q8VhyBriJLySEX1RJdqCob3EDgybQwGwWPQNd0DoKp1wHmvw41lgGoxaK3WvdlVnsNE/xd0hgpUOfeg3rPxeTgG3gEYeL9F+q8a0L22+88s8Q7yxbaRMdIJA/3ox1pJCzyPQDUpA8A/jJQOUL1KA8H0VMqCiWoh2p+T6yNgWg581k8+n71LPsDiiu72WLCsD/eqkQyovg9XJHXNjaDfo61okCoYVbKRM5/roECVrn8uhJRRHYoJGIzq11O2KeCMhTv8S7j+a2Jy7giJCRnLibCxdjWKySfQFzIw6RzK9e7AevILGLM3kZXAH5MzGVXVqKYCVH15X7BIXQAgp8M9ezt0p6OwIKKGnICEIPZHaKbvhpb123m7VQPNLTyfwyKOWtR7EYBDgNOqRnGZAikOgSpd/1wUGaD6HoDqV7DfNx5sIX2RcYBAlbvbcRwlUK0HTd9qvJ/UxFIzvnd4L0gDVsqUFQeshSkA6lSkh+O7fg+0r5peKT2uAZTdAaqWLavNov3u6FRFvgBbWeyhMfI+frcFm9+B/eFi1Utg0e4OVOsBTC5C23d+f4Gs2n7CkrlQd4EOIFBdCYb0GQBVXwJVjF0fA6i2qFxM2sBrRA8OGdVmWEhNxfjUZfh8WQdN/SPQ/39+Z2OZjKh6ymfOgSDogrG3ARZ/nAtisAhPE6i+A9d/HniGVFriK2vBtDPwrhfANiVZ9HNRhtMH9kzp1QrY4sR1RyF5jISEpAjkUuWlEcbIEwCqzPLC+IeFCC57EUCV70IyoIo5pBLmn/nQo9+PuIiZIEq4wFTbwxi/BgTFyn2n5d+fLgFQ7YRne8ktYI29QcTEoi0GgcH9+PaGCLqcJUcQVMXnpcdsPQaoElyS+aQrez30pxWhsSSQY/ARo/h1N6YUQLU0cpcOQAond6BqUkMR5IWRjQSIJUgjUG2OoKMaNappWinqQNQ1XxGueQRyEcQdP3FSbgNjexjM6py5C1UHwxymLZo3VZ3pX0iRlSZQLQxGFSDTuNZDO7bXfKej/x4PzdZFZVppDEynRZc+sx1MRiYD6lOjEJDFcnXv1kXPPx9+XoEt68A2mA1pA+vA8raC67+iy/XPQZHtxfLORV5ZnqNZC1C32wffIrv37pN5+LwfAs7YtqyjYVQZLEagys/+afME9ynOAarurWG5/wuCwdnwdlf5CBNrD0zauzHIPP71cl2Rx2OwZMR7SkaV5xug6k23Dt2d+JkOoEqhPN3mfgB0HByeHVBPnoTLJZiBSBwVMMm1BKO5BMxBawzIywBON77fWxZjcHoUQQVq3ACqt4FNslz/U+UCBpXUgGpLsLuqUQVYTAQD9T7cSHdDS9oQeTKPwbVjpdmxmItJAKC+uHdPBBComwqTe1OwpNRENYIraC+BKgauWThvH9IEPURGldt5Yl/yIYMbaDBVDQRuecGduwKu/6W7T8uTXyKvLM7R+6FyW8A8McjhBWinfnglVKqCtW1PRhWSCjKqnQAKCFSpu2VUrQNU6WlPvjNVuhP+u5mymfSfAuv+IDTWb0/cIp/d3ghMORbwRy+IL1yTcRdjwagmB6pkVDsjzY4CVYA7vQ+AWkuAgclPtVPX//Y9YeIF178fbGfn8J7y2axd8jHc5olk4wFUZwF0MvivDVjaPtgL/A+Av5b/nY3gUwQB0t6hTV73cW/YxXEZgsARf0hiUgOqj+C7MYv2oxxeUrKISx6weJ+8/PNqSw6gUgDo+gFkFr3SUQZhoTgdQU8qN0CZJyJS/CIWgXeAmUuEHbdBvcZDp9cKAHon2FiynnmgG98O2c5QAG26/vuEVpVfodurj0XdAUhZfDChx4M96w0QzOjrMk9PVtJ/J3Std327SoEqGVVqxh2g6rYzVUYS/rvsViUrWNyXQ87UFXD3vw79/wMgCbipyDsjNmhKtHjuPAh7ScmoLkT/K1AF80hGVXfGgn2SjVyI4KiXCVTBWBKovofFWE8wtQ3BRsbT5Y6xtS/SD47FVqB14UnYdeyC7MS49cfyA/IGsrUk8CXAOU9Cg/9IaBWpg/E1DmNrakC1CGQHfZCfOBHvB0H3D5DatMcirynG0zAstqy0gAQOibIYY+a+0xflXpAT8WRYUbae3avJT/9qruU4CaDqjfGaQHUm2OTXYfc+AOlctCW5/lEWf7TLGpARvy89KEP/WIM0FkGaJtAHi8l9w3vLp5CnfAwmd9x/umrGpVvAGvuAISbgHYR6E6g2B1FwGMFXNxRQNUnnGUTEoKKaCPwh4GL+UAYbEeQRgDI10yC40tesXZ+kUaXrfyZc48xhatJacZcsuvOpc6W7mwJ9Ru4zoIlgcOGiJbJ56zYEExWRDsjRyt2eeN7x4yfkVgDV4ydOIIBpiepNCyKFVNcunXUSJft4ESxtU4DWWjWrayCS0ajSlT9u/CR9hfhdh/btVLaw/8ABgEO6/K19qKMANvv26qnMw7QZWKHhN9NmdQrtIIULFVb5QDjyvzL6tS/q4OPjKxMnT1EpALMiEKgGB5cHuzteGeHmCPxqBPZ54uRpWn7WlRkA6terqyCUAVYMygoCUGUdyaiyzAToLOP4iXT9O4yq5kFN785UZoInE0VRP4DjO1jJPwlmMQrAlG7/JZhkmQydLhtqVKlrex9BJP9jMBVWtGvf7CKDEUg0C64XgjBd0IM5GgN3d3kAt44ACFEoTzzAYFdoAGfg80d/XS0/z9wlleH2/+7+ptIIrv4O782VZXjWWrgj1x84J/+HqHnmNa0EN+aYJ1vDM+MjjcEEkFF9rF9teRYDWw0AAgZTfQSmgK7/FljxswC3ASSMeBgBMACYU1dCSgMGSqVb+C8Kg+JYaA65G1evD7BhANqgOL7/DZH5jVAeujj3Y8DmgDoe0bDMz9oVE3wk3VnQ2b4GVvi2lhWkDgKlWM8XBtaVtwGkuyFf7CJOFhjbXwbjOwSBOa3emiOrEGD1DVxj1TAJhQKoeoNxiEfQSygA+kgAgDYED47rXy0xO4CqNRkmSHFMWste7Yx0Pr4IyDgtg8EuxmHly/EnHnb+IDSqryEXb00Ez0WANRqG9E2dAOiaYmFDoGqBh3ipAonITgC6m7FwogSGWkEytnMxiVaBFq41gOhZALo7AYo/gAabDFDvd2ZLj5YAeLCp0GHzZC1csAzyeBCBggxYfB3M7vDRGyEnCZT1WOj9AlD6PgKfGEy1DpKRx8G2jgFzmh91mAI2l9rQtljQUD/I3L30EkTDFmsj1c6SIaHIMLFSJkHeQndpX7xjPwJ0/7JkP4LJ4PpHXaqXKyRboW0cCMZzCkBILD7jPTdTo4pAqu/wUwjvGbNv8N27C4tTZsxgloLFqOcKlH/wx4ukNOrL8t6DwJ1pyFahiy7Y8iSwWmRU70MAjnG/ui+D0/rbYVRdLWPSq8GuvoJr+3bo1xlQ1A1tvoXBRhh3KfNg+rONcKUzC8Df0KiSUZ2HQLZuHyyU1bA7Tcek6fLiZT6CrLhYuRVJ+aPQ33HwaN2OxchvuP+dGFupg60FF/qPkE1RlkRPEsehbcN6ybi1h2TInxuUea8NmxyHYClqkFtDEkaQ9x8Eft2EDBmNX0dAE8r8C0ApA6j6wtZpn48gUPHzOxtJRzCpy8HK+gZRysjXEjEzWEjN1xzb0XIPPARMb8V5YiS8EaWQjaUxNNInITHha0xAexp2fidiJKLw/nCBSVa4CVz+HSCZYjDVMOhMH4EevTO8BWuRmovvxjAAUMZCtCAJANsdjfGe7XIrXP8WowpPLeaID6Flb4X7HDkD178rv/Y/2a3HMKqsKHWqpUqV0kT3J06elPHQT5qDQJWpn+6841bsYLVaVq1eq4n2KQWYgqT+dKEzUMnoXYOx1SpBKXUfTPu0cdNmjcanLpNsoqZ9QjATtZ1169ZW1z/vUQXyg05gQxlQRRc6mU2C3LxIsk9NKoO7KCGoh2t++2Okpqfq1rUTdK1F5Y8RozQv6v+zdxWAVVxLdBJiEEjwIEGCS3AP7i5F6+6/lHoLNeouVKk7DsXdCW7BkiDBnRCcEP/nzL4NjzSUKC/vdbefn+S93bt3752de+7MmZlBA25RXisBsy7zEB4m82cqqDkAr4zu5zUE0kxPxZ8XAE7JjWXU/zlkMeBzmM9AMMu0WxuRkqszqBEMpvoT9+azcVxYMIFR/QyKYlv8fPmKUNkThcACVv4C99cXOWHZdn6MEftM0N6lU0cZj8+Yw9UKpsoCUMXs6sKMxakO3fkgojMRON0iiZg//Q4AkBbV40hpM/LvcPkMHLvK4N3t+bCn9IJC5QLojl01wSDTTrWBRZYuJR+AzaF/bpZvZ0eID5TZjyDD39G8gsRCEV/A/b5fEiXPgWbQF8FU85GapAMW2nGPN4elHnn3ACiYjucUdvHkkTII6wysvM8DELzSt6YEDJ2u6am+hxupLbiENVCtxA9Kj7wo5nVlehbKLcGzN5T1jLAjMgRKvQ76/TfAI9MGHYaFtgj6FYUI1+awypJesIsJ0PHc7RDxzVRXzJvKxeFbWJ7eR/GDu2BRDcS9NHMBLBhf3NNEhiKqn/krCwEYMePAo7ACTFoNbi/evz/A/a2NiOlGsAjnI68Pz9MVz8nxCYYFLwLgwAqmyiGgqpw//EOAxmhYNB8GgLwTXM2xiLJnIAcPWnyGYrPz7oBgKT1shmak+BIbm+7gklYD9zhZE/YbgS5umL8fEDF/H7JVbD14RrpD1o+BMhICy9Qs0GSYDocnT2ZuVsgqZSoECyQXzB9g1WeWi4gjZ7V0K/OosmzrNwAZwxG1T4vqgY97atq0NxB0Vxq8vf2fIFgJEfx/ATw+gKDB7wGgKWbMAUnetFGTwE36AXgvBm3lLWSPGIFI7V3Hz6vcnQAgKQdOdyiKEwz5ZAWeGTkusaD//Ight2F4rzvjHbhwJV5Of90PWQ62yVesiERuOPo2HqCkNPq1D+8DUxwthEXrdmxEo2HlKg8Z3odgqgFfrpJpqGilNArI8jKA12hYuwYBCKTQo5ERHypGzQKqV2GR6lhWV4NcLYEnZzEAXje4qmnV1EqqkMMAzMuhT3trerO/4PVqiHMZTNUaLvc1EccNoErKCvReL4DdKfDYkIp1/08bZBxkzA9A9y9snnog/VoccAOztIyDzqXu6oCN9jqUoO6Lgi6/QG6Z1uoi3iHy/amr/aD7ayEGIA769kMEHv0CA0YAACAASURBVA5G+1WenSmJuNcUcGtLIh6g7fC5UhoyQ04z3wPNNc3nQv9p5Pgdm6fH4XlqivuPxyadmQEIWAtCZx5FLEAtgGLSwrSaIWS2HzKnkCJAmssDcP+PRyaLH59ro7lQG740S5Igs8xjzQh+UsoikVquOLwbXDs4RvOh77luzQVfnePbA0YB5briGe7oVEVGw8LM7C0srpFRj5bLAFX70qLMbXoR7nKzRKgxaUhODWEqDjDHwCYmqycoo1WU+UHN0qWmdZbWRlpKmYv0TMwZiQGII+Cju7xMGVSSwrXR0TEoFnAegVslFeTRosvrihQuLGUDy6ikHD12AkD1iviDQ8piAgSGDH7yRZDVKaSa4t/klxLoMfUU2y9apAgoAAgsAGBk7j6CEB6xoBGwr7QWM6F/uXKBet0JUA7IRWVAVvTp0/o9+8q+MIVU4SL+EoNnOH36jD4PU1dFozqXWbSANILSAPhFixYWVvNiPxmERRoC+8fnISf3NNo2wS0Du1jUgNQC3sdK+J81oGquLhy/ZgBsDJw4RJe5aZ217fobwfrJlE3HAPC8sSg1BHcpAgs3kzFfU6UHILQ6lFatsv7KFdxJ8IfDC8qlNThzdBVtwaK5CwnQWwA47oCS0YT9sGIxEXQnWAsIkVfBSnkEyozJ9Ddix5wE13oZUAmY1J/FBajAmZyaibDD8DetSsFIc1IIipXJ17nKm+8klWI4+4E2SsId1qVOKU1WvRZBBBFwC9fDQr0FycuvMHk5r4WCroHPapbhM5zT6PzyyCXJAIONuFdqZRco/UbVS+K+/gqO+d1BjAndxORrVcE15ARuxfVmhS5/LPJ8pi0AP7G8H0FIBg6Lo5qBQeIpkIvS2LRwg7MO88GcjqnB6FjISuE7BolsgEzRWhUEizdzRm7eD9e4/VxowJI7ZJaBSh6yECmuLiMIkO0HQU4bwrpzGfO3EBkrAgAQGYy4hfOsaM1NOiJvLuWCHNVloLaUYxELuCf3Q+7pbmyE64/DSnUY75onrJx8v/YAJEZjsQ6AnNPaxcWReX7NEqf8ScvnWVvxiuZ0sWKDyYDDpQCWfni3uEGMAGdVXZp8Bshfa5zHPL8LAUhiMQaMnmaBAAavsOwwKyEVhhW3Jc6jJ4F9DoX7WANg8D4wFyv7S243k7NrkQCMA1NUMVn8LrznGZVjTpEFVO1k2YbuOc8sOLEXm5rjqKKWmrYO37M4Cr1P3FRHY659sQlhdbXtmOcL3JTrRoY7LPyEjAUHFUGKsUK6OdmH9ngUgM5uVa2kbqiZGuoA5p4b9K3Qe7Ti8jp6ujpAn8VjbkOhf2PQNj1brEhIWaoAmaSc05jBhPrVIN/UteGQSU+0Xxt/+0LemMPa8GMZBzOo7IG3im0EIiaAZa/paVgNj8d+8J+5VrBN4101nqEOnqEKnoGfH4B8VYJ3gAGD1KVqKLBVO2wGGkxNAN0YyOUGpOs6ispdbnhG5lGtgc+JXlhUQPP84hoWP2CZ2TDo33jNUpAx/ZvngCqtiGYp0AyqxmtOMy2iWgaUuUhpmbINhvEdS6Ya5T/Nc81Ie/Nce7BKoEZwZloMzWt4U7OMKC25Zhv8nMDNSDFlnGMk1k8ywCfT3AAY0hzPyk8moGS7BIZabcuu/Kr9Lpn9NvuhbdiqYJkAmtexDROA8iefl1ZR8xnMUqnmvcyxiccz8GVTShfGxqhKZQR1mf2xv4bf2d8vo3PlshxVWF405UdWDw68pg2BklHLkk3xsT3+jp22RkjyHjRVUrkx2tK+lKTpyuK5WiHHvnSk7Rq2RzAIWdT72dpQbiBT+mi5P9s57As/06h6w4qpKVTMv81SfPybfSTwU19/GtMO+4GFmk0ol9QsT8kPeH9N8YM2bArfrGqU+gya/sdWPQsA1xwbbY8Lhb5quCfGzZ3uOi0PaChcPZdtm+Nppi4y75fB+dLxAaD/L6SnygdXIMUg04c5xmnlxBQHrklsmPNvyhB/JyCzBcTpPc12TLnnZ7b50jmnnNkqqRlVyNCmYb43umx/nTn/vC8n0Xy3KHOUS/Nvfb8gZ5R5s4/a7zSyzHuYm0heY8o7udi2gJpr5M18V81n4BjY34vrE/pFEKHvDw+eY46P/fOkfd/5DDyX9zYt2hmYNL7+SQAWM8DLZJEFev8I1JzpYKUwGp6OIyAoEMUjlCOawZzI6T5nqo61yUB6+tccf3NOU3WWbc7S6l9Tl/OG9nLAz/mPcmBrQ/WLvVzzey3ViufiORR8fVeof43Km1pulfNu6jfKA/9Oq3/ZFmQkQzrelEdkoNB29Frq6H/qUrVGU/+a70la/cv+mHKfqhvSvP8ZFDp6M5jVpQ+oBVOQdovzbwDyrB2wCKcdpX9v6Cq/NAGu8LFqlcxoBHnals22TKCWFqTy87Tf/du5qjNsliF7i6098E17jvmdgY2vWpUyc1/z2vSe75/9MKgB1+tHep+zfS7m9oDW3iJqP4XpjeG/jfONxIb3vgKrbUWk1WI1MXMjcKPr8tr35hiRU1biyelyGXnkmK8xS4ftJabVLpk7YRNosTHbd+am3bTuqNIxlZL9rtSmLM1LU+cS59gbrHht2jbSGhdN3WLex3h/rt7XrIhmAkNeb9RIu/bg9kfP4RtBl5rd12nvYe6wzb4YOMCQVVNuDcRrgNG0fU5Nem5TuLxXKnC1uybdsfuXydPFnUAVlroV4GByo+lsi/v1Hi8OmwdvbII+nhMpL4BHxyCQtKXuMyzXtrkiiNBMFGkW/BvJUOp97N4JlR87Wb8650ZpU4pD6jwbCs9OLgwdrCLD18n2bqX3PtnLGvuf3mH/TPayZ/+YaeWN73XqM6DRtPfmGJnjYtPk+lx2iv0f7yq/44bO/pkyOkdMLUsajAVUbSNmr3/xu6lj9dvr6l9D9v5hULCTPVOeDJE09Jc2aWs20/rXpjtNXcr553Ej/Wu/ppjviikr/9C/ad6f1HfC/t7X0b/XyKLdOmT/PqR9/zNqUTU2V/GOBaocG1pSCVRppctolaOMvphZPe/fQJohw1ettVcn3rYg26QyvXOy2h/769LrW3rtZuS8tH3MrT6bSph5WglUmZXAmYGqWoexopcHZ+gU+T02l3dOzG+22kgDDuyBnb3y/cc90rsuWx1J5+K097Apxiz1xb4t44XMsCsps49FEk4yNiOtwKdc9lJHAFV4SLJjQc9sB3Lx/Hh6e2Cd+AZ80qGa9xbZJjiWjj6uJ483ktObIRcZvceN+poWMVzv75yaC0wrS8gmIbiRQJVV4aiDGUvhTAflk/Y0WlTL0aKqOxnbjsXRD5IV/ZtRecrus2VFHq+nV29Wn/HM6voHVacXLKpTkS2B888YhqweWbaoEqAagUDIAUr0fp0dbVY7Zl2XN0aA06pZAxCQ1h3BalSSWbWgO/KJTFoE+8DqIkuREokpmlJ3j47snHXvnB0B03oFN9edSBfzKwLTOM+uYlFl0ASfZR74nj0+W6ZJ8xWmWjo4Z+UoT7RmBGnSyssKTM2QZN6ZXf9nwe+t/9p8OXAS3GNyd9Px6OSJYbc6ka0RUC8EgnxvQ6aB35DDWKmS2TAUZBqo2i/4TBO1G2VCGexjcjwtwJqt+c0TF9tzfzXVF4BqU+SkbYpSss5sUeUungv8F8gbNwx1uj2QnJ47vbxgjMoTE+8inVB3GZAb0yNNQ1nWPg3K6uKeHS59XhoaY3MlGhjSHBG6kQj20OpHqTyKvNRbqy/ZGQEPWFMTwfVrBs/AfKSsK6h5jknvTJ/qkJ175ea1Jm6gru2NzCVM2+XOwifkO2vqCOd6ntwcK6dt27TY2gwF1L8f3d1InkEaruwaCjINVAli+I/uflZymjFztlpTM5ruyGkn4T/acXKQWTygPypi+aGEqzn3zjYcKrc0OuEfozTvBFCdhJRPSnR3MqXvbGN/0/vLxQ+BWU/3r63l/8hzVPDqKoshZJkbLOY6XYoqOf0/X47sIleuBifd9AG3bpgrI0CFhQBK1mSfjvRvzVAtST1aqq+cC9hR/5qGgjnImdwL5UyTGVvKgOVcGTyrUUeNgFbWQqaNcshOwIIKZRDsmV3ckGmgyoe3DxDaEREhq1et1cT2plXVUQNk3TdnR4CbkUJIzdWhA5LSBwamZhVw5gXf3NlfQUDKV6gD/cfKA3IAyfGVQGUdzj0CtoCzqiULyX2oWPMocoOamxNnltm0k2IE7V41GGxB2p33p+2QpXtOoawnUt1BlvMAY9W5ZcmBvSdwI52jENKAtUWBjuF9akow0g0xIFCDxhjo48D+ZfXWxA1GchM3+XhupLw6cZtcYfYVpEayDhcZAQomMg9UQkrBn1AkoW31AMy5IbfZ0cGZBqr2bmEOLW8eg9ycUUg2zypOTvkGuYiM5NhjqCfGTat0ValcSYsamAAvO8KWY/3LQkNXN1dmDI+h6rnLT2AKEetwmRFgzkEzCtxeXzmr7P4DqGLBv5qV5KobOA4pk+wzgLjMhP5HH4QyTFnmQdepYUg1syI4F1S1fw/pISZ1gTk/p2w8LAdhKFB5/o/Osys9Nql1wQCpt6PUdgCKBhjZirLvzco0UOWgZiQy3ZUG/7/+LK4031dpNFd39//1+XXF5+cGRNNvOenCfqM5sX8n7Z/1RtdZ3zvXCNhbIU1LurNuuFLBKpN/qffDucC2c0mO43urmysbrS67mYmyBFRNsGo/FPYcQMcPkdWD7IyA6S5lG2mVorMqSXM87GkrlvUpO1KS9691VZBqL8vmM+b92bB6mJ0RcBVZtte5BKtGntvsjIx1bV4bAe4/DB711SO7uCHLQDWvDY7VH2sErBGwRsAaAWsErBGwRsAaAdcaAQuoutZ8Wk9jjYA1AtYIWCNgjYA1AtYIuMwIWEDVZabSehBrBKwRsEbAGgFrBKwRsEbAtUbAAqquNZ/W01gjYI2ANQLWCFgjYI2ANQIuMwIWUHWZqbQexBoBawSsEbBGwBoBawSsEXCtEbCAqmvNp/U01ghYI2CNgDUC1ghYI2CNgMuMgAVUXWYqrQexRsAaAWsErBGwRsAaAWsEXGsEsgxU0+agZDo0KyGaawlHeqX6spsPzdEjlDaPH8UW6act0XX0xOTQ/U351Goodm06u9ymHZ60+pelKVUDG4rYOpx9BFR+DQlOk5IyW6UoHT0slv519Azk7v1zS/9mCai6UqWi3J0212jdVeY7bTWftEmJXWO2rKcwR4AVm8w5zm5llLw2qmZRjmQAU6vCT16bnZzvjyvIr6V/c14u8nKLpv7NiYpqmQaq19bsZYksdzlz5ozsP3BQTp6Mlsuxl1N3gnl5EK2+XX8EaGH09/OXEiWKSaWgIPH1LYCavcm6k3dWy5S93HJxzwe53XbknMzcdERC95yW0+euoJyGVdLPqd8LANOKJQtKk4pFpG+jQKmC351dbtObD5VlfEErKksUckGYvOGQLNsZLRsPxOALfGmJsvOKMubVy9NdGkGOQ6oUkwGNyuk8m3XT+WDOpoev0b/cQKIm/IZ9MTJn6zFZtSdazlyM/6fp2Hln8L/Zc8xr1dJ+0rhCYenfJFACi/pKiq2UNb2z2TkyDVR5My2Xyp08Fvvdu/fIipWr5fLly3x7+GV2+mNdm0dGwCzZ5+/nJ+3bt5XAsmWcftE36mYbIPXH5Xvl2T82yfkLccaiboltHpG8bHbDNpelihaQHx9tJj3rOr/cpjciSdg40pJ68sIVue/H9TJn/SEDnVr6N5sClIcup88fC32/kAry0/1NpIivV+q6m4d6meGumGXWKbefzI2U1yZsA24AQLX0b4bHMM+f6M4dtEjFUoXkt8eaS+tqJSHChq7KzuYq00DVBKm86fHjJ2T6zNkKYDw8PPL8GFodzMQIcMHDHMfFxYlfoUJyS7/eUrBgQcVzzuhqpNyarohlO09J+3cWKzp194LcWot7JgTDCU6F3CbHJoi/v4+se62zVC0FyyoE11WoHsaGyzAY3PPjWhk7b7e4F/GxxNgJRDOzXSSGSzp7RR7vFyyj7qivmE4X/bTE1cw2fJPPN/WvByyp0zYfkf4fLZNkWI3d8bd1uNYIEBsmXYqXsrCurn61owQWya+6iV6BrB6ZBqr2rrSFi5dKRMRO8fHxTrW2uQKXJquD6SrX2btpaDUnWG3RvJk0algfYC9ZLZLOdlBuuXXny3Lbt6tl3LIoyefrLUlJ+Nz0BGTTPeFsY+Jy/bVtrqgV3UHjSL6UIM/3D5YPBtfTeeYi6QoHn4Wu0037Y6Tlu4slPi5JUvBoBiGA+y9jk2kdTjoCdvPHWXSD7ioIa+paLPo1SvurLHP+nelIof7lBhKi2fOzFbJg4yFxy++JZ7HJqiWzzjSd6fc1rf69nCDv3dlQXuhRQ2kr2dG/mQaqJohJTEyUSVOmKT+VYCY7Zl3nnyHXfoL4+HipUrmydO3SEZwTmPHz5XO6BzajTROh5Gu+PFeijp6nic1a0J1uJjPWYfVAwarasVFZmf9sW3U/eTih3Kb3tPGJSeIJ2f0tdL/c/+0qER9PvJe6D7MOVxsBpdgZHoI5IzpIl+BS2V70HTFEZtBfzMU4qf3KPDkeA6ogLWzWhsoR05Hr92S4RzJ4x4PaV5K/Hm6u3h9Pj6zjhiwBVT5lQkKC/P7nWCFgJVDNC8f1rLmWlTfrs8MNSOyVK1KxQnnp06uHWs7zynxn5qlMGbgclyDFh07HMyXQF5E3FvfrWRMsK0Nmpviac/PR/XQ5TkKwsIe+3Em4QfH0yBt6KssPZbswLiFZvOE2/Xh2pLwA178H+LgJtEw5+rDkOFdmwAOALvFcrEx/paP0ql8Way42KtlY9HOlkzdoNImAG+ccx3OUe3qm8G9Vvnlhc2XJbY6LhCGzV6R364ry99BWOt9e2fACZAmoErzEYcH/c8xYobUtXx6wVJhAhH0z3LxGZKQZFJTjM/EfajAOc0yg2rtnd6cGqpyyKwlJUvLJ6XLxEoKo8oKyZwQ3XmqN4lbiIX7B3wq0LO5slt8yjUOB66llnVKyYkRHpaxkx/WU5Y7kwoXxicniBdD96dyd8twPayVfYR/BR3niIA+YXHD18WIOaA3UXMX6d15AJXlimDLVCVqnkhD0OQNAtWe9Mk5JYzEtqgSqgc8AqAJsq6HA0Ye9/jU3e5BZ1R+WlyLLs2PIbLz0AVCd8kRLDWKmFyirR5aBanx8gvzx11i1rDrawmaC1KSkJLzESeLl5aUAldZe8nm8vOAasy36FkUhc6LC8boCjqorAFW1DscnGkCV0abZeHEyN4rXOdumJFNgIZP4JHEr4KkKMgm/E3m4428Fr8auK0du+V9pxLCoxv8ngKoHghUcalG16VZ1UYMXLLD25vP2MAArXNZYocQNn1lgNWtvn1qnzl9xLaBqxgZkbUhy5ipT/9r0LfWvGgz4N0Cre34PQ/9aujfT423IbJwFVM2Rs+fM+vr6Sr26daRcubLAIPkk5uwZCQ+PlP37DypYTXvN9f7m52npAhmlD2Tkuuudk5FrMy0x2bzAAqrZHMDrXW66mwCcSxTOL8+AcN69bmnQDd0l/OgFGb14j8zfeFj5h2qS0hQuaZRmei6rjJyTXp8yct31zsnItbk0jNdr1gKqN3HATfkEnaZLk3LyePvKUrN0IbmEBX/BtuPy8ZxIORUTKwLwmq4sZ8T1mhkaTEbk0f4cuyCQa0BJZu6Zi8NtAdVcGFzOLa0CVxKlHPItP9WtmnQGTYhWv60Hz8pXi/ZI6LZjkqL69zoBX3lF/6a+VLY1Ig8YNiygmo7M0orKFEp9esE1je/DwraqZbVypSApi/yfoatWy44dkeLpaaTQMukA3C3Zp0xID4xe7zOzneuBXbNtM6A8PYtu2rZ5rmlBMy2/GQXIufAqp46VZVHN+dFV3An3V2CxArJoeAfl77w3I1wX98FY7Kk0nxqzWb6fv0vcfDyM9B5GWkX9P6ULmH/bFCb/NvGsWq9slIJrzrMpMbbFy1QucYL+zT7R/WW6vvQDw6Jr0GiMcUjWSF390PyRSltgtH1ecPVaQDXnZfZ6LXLGUyC3j3etLl/c0VB+Ro7iBREnJah4AXmhew05Bmtg1w+XyNEYo6iGKUumHCk9wMZ6MUGBmcnG3qOQVmZ5bmpbNllN/dtGo0mVR1OW7WXd9i6ZNUpT27dFqKuF2O66mzei197JAqo5P/KqJxMSpXpZf1n4UnuJQTqlL5DmLQETfmeL8tK8cjF5+JcNMn7lXmyw6JFNo38px4YqTgWypg7Vitx2+jc1vbFJ5bLJ4D+u1euAYECJSNX1aXW7nY5WvWyoYUMn41B5t9PrOT9yGWvRAqrpjBPTJ7Vr2xrAtJKMHT9RLl26pLxZ0hO6dOog1atXBZ92vMTGxto+j4cs5NO0WvyMB/PAmgCWINcElt7e3kohMHmvbNc8jz9N6oPJ0+XfvLZAgQKa1olteXrCpWBb5dmWmYvWx8dHv9e8Y3CFJCYlig/uRyqF2Ve260iwallUM/ZiZvYsVUSIinz/3sbyUJsgqfLcTDlzGpGwDPiBu/STx1rIk52qSuDTM+TEGVR7A582hW5UANqChbzlIitpUSPSSmXuhsC/NVAiKtsU9IL804UFxUeN6IWISz3Ppt3iEo1KXGhXP4ZlgecVhHVX+bukI7BtEzGwbRv30BNtJ5ikSCpIWIU9Cnorb/Iy+8VngLvXkWmSLKCaWYnMxvmQscKY//2f9JTPsbF6A4U0UmgUgMwUDigoxz7vLT8s3SvDwKd1LwSdR7mE/Hn5+Sh3LRGR4CqfJmecMkv5orxhk0ZucSLlj59RtkjZMa1ZPFdlFdcrbwbXMFASqY980OYVUx6ZL5kH29T3BD/RlhcsZvGQX+VL8h1AE4WQf/cC+M3sI+9/zXuTjWHK6qUWUM3qyF3/OtW/AKc/PREibZGUvv7Lc+QiNlQqW5j3359tAw9XGQl6fqZcpN7lBZQJyJQv0hpeAtdWD1pceVCeTP2LP72RTixOKQX4x8OUP/NcpJRTWcY/Bc28BxRxQcjeRRahoVynyh7bxt8GAoVu9zZ0Oy+kvANwe+O90rWa/TLfJQd6BCygmo7sxcXFS6+e3aQASn3+NWaC+BbIr2BPUyIAJJIScP78eQWFBIoNG9STOsHBCgyZsmbDps2aD5YT7eXpJZ06tZfDh49I+XKB4l/YX+bNXyBVq1SR/ACWi5cuTw3SIrjshpRNMUjRtXbdBgWzVatWkRbNmmgv2YddqNy1fuNmQ0fi/u3bttEoem9vL6mAAKUNGzfJ1q3bpXixYtKqVQgsw0iqD9kjyF2ybLnExJxxaDEFC6jmvJJU2bApyvHPtJHqSIxcf9hUEf/8uihzN14ASqocorn3nLwgifHJ4E0lypM9a8pzoAgwIMwHQPDt6eHyw6LdkoJr8kM5TYTSXbzjpHSqXVJqly0sfb8IlSFNy0l5WG3v+naNJJvbb1w/flgr2XP8grw8YYsq2J7NKmhCcWo/TwDYMasPysgp2yQefUkBQPjuwaZyAco0PwBBv4aB8ta0HTIaUeflA/1l9D2NpTIACa1f52MT5T4AknC4z1RhOuiwgOpNHHjITzlUotn/UU/pM2qFzF62TzyL+WowIIFoBcgf+aqHuBHDuaVKFJRf7msCa5af6ui9Jy/KQ79ukP34CYGTQW0qyr0tg2TelmMyvE8tmQcX7FvwNkx6vKW8MDFMFm4+KvnwfiQCODCrA6249/y0VnagFLJPAS/57I4G0q1eaej3FAULj/y+QVbCwstNWt1KRWXU7Q1l7Or98nyPmrCkxcktX66Uo3gX7sfG8LW+teU8gG4hAJCxaw7I65O2SiLeiRT1JjiGJ24B1ZyXZd2cQ58teq2T5nLt/spcSSkK3OBm6N9C4KuWhj7ecwL6F/qP3q8RtwTLw6C1aDAjdO7widtk3Op9mr+4KDZdY1EJb0bYMdW5gdDd3T9dLk91rqr7qychg8mpJleRmU+3lqWRJ+XTGRHABclye5tK8vagOtoXb2zYvl8aJR/iO5i9FA/8gbb3nrgoQaAptKsRIC9O3CLjQE+oBnn+9p5GUho8ddp4j8Kocf9P6+UA+p3iwGBhC6imC1TjADxrq1V10+Yw/XflilGazVib3RTsMUNBy5DmymPdCHAaE3NWihcvponsV65ao5/5oWTooAH9AHC9ZPuOcDl79qwcPHQYJUTLSrt2rWXCxMn47Jy2WbRIERkyeIAsWbpCNoeFSb16daRj+3ayIzwCQPeoFALobNSwgew/cEAWLFqioLh3j25SBm2FR0TIyZOnJPo06syfjpEBt/SFYk0CaN2m6UcaNqgrBfIXkPGTpjg00t4CqjmvJNmiRkXConpHxyry5yPN5f1ZEfIOwJ/upvXACVRs4KzS0vP6rfXl9b615PWp22XHoXNSp3xhGYlqNc+OC5NPJ28T/xK+EvZWVykJa+fnC3bLLuSJZR3tkOolZAKss7Vfnie7DwM8QsFWAqjY82EPefjXjfIjrh3YrbpM/F+IKscFAAdlACxe61db5m0/LneMCtVd/6zn20mPuqVkNCxjmwEI1hw8Izv2nZEVIzvrLn8UQOtFWCKeAZiuhL7UemmOxDowstcCqrkjt+m2ioWdhqgVIzpJcT8veeyX9bII3FTlYXGVpbAz1zYW3TKw2K+CzBxAHs0fF+7R5u5qW0k5rQ1eXyCnjp2XhwAgv4OnYRkW8pkoDbsFi+7qyFMy78V2chQWoyEfLxd3yHkSArc+va+x3NWqopRHgGQy5G0mzqkCIPwB3qcYvF89GpaV25qVl7bvLZE1YUclpH4ZWfFyB9mJ+/y2Yp/sOXVJ5m46IiE1S8rsZ1vjPYyU5eEn9R355q5G8tz4MPl86g5xg4XMjGu8iSOrt7KAas6PuGkoGNqnpnyOjcsrU7bLZ7N3yhWktDO8TpBZyi31PpjZ+AAAIABJREFUL6yfX9zfWO5rVUnemr5Doo6flyaVS2CjU13u/3m9/I7sG6WxYd8K/ctLvwaA3A35mrPlqAxoWkE+vrWuVIM+PHEG1k6A0gZVisv61zvLwG9WyTS8Aw/2qyWj724soxbskpU7T0qFkoXkLRQq+Qkbvqd+Xqc82ZWQ2aaVimnbWw/EyMqoGDmI92Id7nkU7X6PdhLQ9vBbaqHL+aT5yHkAuQRAjtxcWcFUqZJruuhpzQyuXRMArwGslXCNXroo27btUJB57tw5tW76wh0/oH8/tVSGbdkKN7sPAG0swGV7qVqtskxGAQNWXbr91sEStXefzFuwSIOw6H7nzyEDB8i28HDZvHmLgsfmTZtIlaqVZdLkqWqpJcDdh8Ct+QsXqwufltO6dWpL5w7tZdrMWXLqVLQCUjfcY+Kkv9WakA+7nsIAx7fdOkjmL1isYNkXlmE/v0IoAemvIFZhi4MEzgKqOa8kjRaNOkK0VnKX/hp260XgUjqGHfFncJ/OBWCMgrIjSCwGt87Wd7rKI+BMzQSYFbj+BRGVQx9qKo+1ryKNXoNSgoY88EkvmQFr06OfrzBcoXA3ucOqufP97up6/RAgl66i5wfUkYcBDhrAinAFFtCVb3aRBTtOyCufLRdBHwQLfPOOlWXak62kHRb4iD3RMh/gwg8Ks8WIOdpnuvaLw4p68ONecsfoNfI3dvgCK4I3QEINgI7th86qV8pRitICqrklt9dpFzJRAmVcv8WC26l2ABZLN90ofYfNz1KATKWKwFL5wsC6ckfz8tIAlJZkUkwIZpFea/unveUXAMdPx26W+/sGy1d3NZS6SAy/O/wEPA2QScjpPd1qyNuQ3aZvLJBjpy/Bbe8h4e92l9FL9sgn2LB1bl1J/nyomVR7cbac3XXKoK5g8Z7yTjdwvxPl7k9CpWFwgJZ1vH30apk8Z6ek+KFtuFVfB1h5sG2QVLhnvMG3xntTA+D1HKy2x5ic3oEZQiygmhuybON0QkkN61pNPVXUv3tPXZTP5+2S+duPAQjCwo+1uiJKMK+D5bXvqJWyZnGUpPjC3Q+6yluwinasVUravrVQCmHjFAWPwlcAjK8jt3Fyfi8FuqSRRLzbTV7/e4f8ApCZDI/Ch/BAtatVUlpCjsmD3gSw+R3081cApcnYEMm5OOndv7Z8japOIW8vksPox3q0cZJR9G8ulCQuHLiuUsWiEonP272/RFajbcqyHyqXlS+eX3YcPmeEFzgIN1gW1TQya58/lUE/hVCPvny5cnClF4UbvrJyUZcuWyGRO3dKzRo1pE3rEFg8I5VbyjJ0tF4WLVpEXfvjJoDfevGS3H7brbJu/Xq1jJJHynvQGtuuTWtkFAiUv8aOV+DYr08vOR0To4CWFtee3bvKgYMH1eLKwC1SA+jib1C/np4TgfveeutAiYY7fzHKzxbIn18BL//x2qLo8549e2Xfvn1y/MRJvSdBt6NAqgmQrWCqXFCUNv6Q5p3Egu0PkNcP1p7gcoXljpAK4guQ+QAU1yQoxt6tg+QXuN6/xYJ8EQsnNzeJcGlWg+v0fnxX7aXZcFFdlMOf95GRf2+XX7DD94AriimLkpGiiVangQjQqvD0dFVeS1HhZg/crA/CNVUVbqQlsELN3npUdh85L55MKwS5LQSO38u9a8mQb1bLhHk7ZQkssFHH4aL9apV4AZAkYnGnO+xvVH1qBvfTBLhJx60/LKt2RYPLBW8GFa6DlCRnywKquSCz12uSQU0MiCLAAxhtUbuUNIFMdMbPnpDpRbDM344KWqdQs37m8+2x8fKUyaCWeDH9Dy6hLD+JQKyN+89I/5EL5FG4QEf0gmX++VkGnx/3TYK8lYRrds8HPeQVeAG+BGWlIyxcEx5vIW2wmdq+47h88GAzGQS361eLdgGjslqiuySgP33wWWkAhmrDZkijmiVk8QvtpPHIhRJ15CwoBJ4SB65iSK0AWfBCW9kAL8GktQdlwobDcgIWK/Vq4F0w8sI60jplpafKUYlO1b+GZysAFvSewaWlbsXCcldIRS0Qcg8oTPNWHZC74XH6cEhdyFUUcEMSApaAG7DxaRBUTPo0KCvln5+h+pBeKlJYZq0+IO4AvbRwJsMb9jsoWXWh1xu9OEs8AWBXAvQuwDsxAu03bBAoM4a1lAnwHBzB5suDuAF6tSQ8D091qSZdPl4mi/HdJhgEqKNf/2Oz5KNuRz88II7zX+ogFYv7ymTI7DictyEqGpQGcKvBY70akJCjI5ehxiygms4wUZkReJoBUVdgyaQFlSAzpHlTqVatqvz2xxjNAtAaPNAzZ85qSUUzKIq8lPiEeADaULl86bLccftgcEc3yxa44QkUecSj/bKlS0v3bp1l5uy56tLqD+vo1Okz5RCsthUrVJAe3bvIhYsXJQFBXNq2Ws0YhZcs6zdskr379suggbfAwns+1erKtglU2dcmjRtKQMmSkh8AlkA3FHSEyMidatF1FFi1LKoZei+zdhKVJQM4yOXkgsigEihBL4C8D+DqfwyW1oAnpkr3BmXk5/ubIm3VOY1KVScqrfG4hu525SRFX5QDsEp9MDNSvgKfj65RrvDJWKjrVi0uS7A4d/1kuVzA+duwg6crdHXYEWlSp7QswncHYTU6h75Q+Zkc/ETc6w24PedD8S6GRffQ6Vi55/NQBMTY3KBQxH7o6zuwcrWAO6sUwIA/wMeTf22WX5Beyw3PlUJynwPWdwuoZk0kM32VGZxnC3bS3L9cKBHgQYt+fbgrF2AjNGH9QXni+7WyGtbNwKK+cgB8VQ+NUDYsWxSRhbTq/7peHu4dDOpJLan6wmy5bKsgBxUtKdgA/fh4iFQq6SsdX5kvE9FuUchfp/eXwlKVID8+GiK3NA6UXeCbGhkwDB3sjj/o6r8bVtRGlfEuIMq75VuLZOve0+JGq6tmLUiWLnjPuDljmxVBX1kDTwL51ofRVw1mzPTg5MwFlkU1Z8bxH63oxsoWMMcvqX/h6veFB+vrexuB6lRGygydKo91qiLvwhMQibSBCIVW/YttOnSlm5zGNXf9uA74IAmbqJ7yxJ+bZMKyvZoTW/UveLDtsFmb8L8W0gLW0bLgks5BXEIzWEZ3gNrSCbEBU4a2lH2w5F7Eho16i+8EY/viE+H9GrdF1oQfk43v95TFESfkBXjVaARQGgq8FCXR3rsDg6V++aLaNuOzHv1to0zBRjCFXjUHFS2wgGoaaSPIY4L/GtWrwQp5Qo4fP6HgkpNNwEoe6e23DZYJcLXTutm5Y3v5e+oMOQOrpxcUKfWkRuLjP+Ze5bW3DuqPAKswBaoEkGbEP4OxbhsyUHbB6smgF6a+mjptpn5fGEFXfXr1lOWhK2X3nigNvGIfeA2/J4imS6lf355y9vwFWWijB/BxzPMSGL2HPhYuXFjqgnPLbAWT/54m0dGnHRZQZQHVXFKSAHk+sOY8BHfjWiyY6+Ae9cEumFapOCi/MtjhH/6sjzR6fT42Km4ya1hraf72QtkHl44ba7tTcBn5SY0F5ZofVp9IuPg/nLVTvgZQzQd6AC2jGjQAcLoZim7qpsMa1NIHC3LTNxaqy7NMgK+sfrmjDIWCnb5iv7jhOm2bUaaMPCWIxs/5sMIeg0XMAKreGiSTGkHN6Gi4w+rA7fQwggceaVdZmsCttYVAgO9YLg3hvzVrAdWbM+hKX4EctoCbvDGsUXRhUi7csWIymCrhxCUZ/XQrpPspLg2fnSGTYQFisNK9n62QFFJYKBxMyUNZ5ipLKgysq6/fUluqAKjGUrY0XRq9A4nSHpzTv1HppuPHS5V7/Ro8CGPgaeCG6LXB9aQXZLv5a/ONwEGu9vqeGG3w96bwICzExqwlQMO2fTb5NGWZoAW/+8FC1QLpib6/t4ms239ahsDlm4IdnEHWufmHBVRzYcwhZ35wld+PoL2FEcclfO8ZzZSi+hfR/8HY3Ie92RVR/7OkTjl/+RZUlEaw9kcjH7BuwNNkjygBkLjj7e4KVCciPZs7wCT1L498kKldH/WST0Hpqgq6FKlRPT9cqoFT1SsUlYXPtZHbvlsjK8GhFgQDGvrXKDpgBqSuf6OLLAV/9UV7oGr2gfKN+zVAqq0nQWEY0ChQGmLdiEKcAilajtC/FlBNI7M6qfjXr19vjfAfP2GyRsybUf9tWrWU2sE14dafDPN8otx5+xAEMkUien+F1ksmSG3SqCHcqR7KWyVQHQyr50YA1a3btqdaVHlbttuieTOpFFQBICM/zt+G8zbpOUnJSTKgbx/oxCSZMnWaKuDExAQF0GXLlJH14J7GATj369MbQPWcLILrn2CW9y9cGFHf9eohCGyL8lh5H1p/b+nXR2bMmi1HjhzVZ3PEYQHV3Bl1lISTfFA0i1EWMQAKsw4W5Xhy9siFg4IayUCO7tWlxvA5EgPFeWBUH/lz5X55Gq545d5hAX8YwVSFsXP/CNGh3uTrvddNgepoBJLQompL5adpWEYMqie3Iz8grUWfg7T/4cSt4kEwi0CBpa91VOtTm1fnGQs7FuwOrYJQrrG0UgkuIMXPXIDZI+DPPvDFKrieoIQBLJgo+1VYoN5DINU+WJ+YvqUGXGFbYLHtCiCxFDxbBdW5M4T/2qoFVG/OoCtQRTntlnCbrkA+4Mf/2CDfwTWvidIhI6UQZBL6aiddZB+CG/OJwfXl4yH1pCbkei9lBg34Qo7eH1hPfgndK5sQhPUQ3P4vI9q/BgJQrhDAaoo0SBHeCz9s5pbARX8RclsReVrrY0E+A9ct79USVIPlI9qDSxgqs8CNTWGKNIDfD+5sJKvgEp0euk+aIEvA3OfaSpt3Fsv2/THijhyZyej/Ax2rqkfg3QlhyCWM2yFoawL4rwFws7Z/d/HVjBk3Z1ivuYsFVHN+0N2gHPNDrta+3VUuQ5eGgA+dZNsUUSZHget8a9PyUn34bE27tw+u93emR8j7AKLJ3LxjnX9mUF1Qp5ERBZzWYgCqDGYd9udmmQw5o0XVZIukQP9+hODA9tgkVYDMvgjd+ytAq+AcD2DZDegDswsMAtdU+afoxy2Qx4bgoL6HzC7s3xrECPAdGgFrqTvegUR8Vh10gqe6VkV2lh1yAjQWOR8vbTpUlrlIrdXy7cUSthfvFzyzjtC/FlBNR2bpli8dEIAUVd3Vgnnk6FGlApQKKAn+aVFZtiJUtm8P1yurVKkkHRHcREAYHR0thf0LS2BgGQWJa9au0/ynd995G35fr4FNdMObeU/Ztr+/n9xx2xCd/HHjJ4FGcEZBJO/HDAJ9evXQkqOHDh1BW/mlQvlycgipruYvXKTckyGDBsiZc2dl1ux5ylE1S74O6N8HVlpPzRBAkF0pKEhORZ+S2XPm6/0t13/2lJU5hnmlhCqrHidD2TBdzqIX20si5ngZAkfOwlXUHG70elBC/0NKk2/AN+Vq3hsc0wngOm06cEbWw1JZAymtyAH8CFV/hsPVXgCg8+SXfeU1KK1PJm9VHhOtp+r8hHW0NNIFHUI+SwK42uC0hiPYSctc2hTeclhMz8HSNX/rcfD5vKUr3F5LkNJnCFJcXUaf1r/XXdMLDXh3ibgj+IWy7A8wQgXqDyvADHD6aPntj35uQdvdYDGIU/+U5frPnuT+82pNj4PF81PIxnNwTTu0hKpSNyFjAI6f3N1InoRFfc3eGAlDVohyAH6tapSUY9jodPxgiZxEdHJ+bMT+fAJBeuCKzoaFPw7gswsrssFo0BFFAbYh4n7YwDryweC6UuTxqQhINXIHU+HSQMpN18sAum/dUkd+XbFXHvh+jS7GXN8JON8eUh/BMdVlIYJhDp+NlVbVSsAtWkQGfBkqf8PS1RKcwGXD28NTsUDC9pwSD3gimObqLgQl/gZwMguR2gQNNWCd6oiAF7r+x8BK7IbzrKj/rEsyPTCkYBzHBiDwmZmGtdFBnF8+hXqaMO+t62Dj8nxbTfi/DK71WOjKlpAZ6tc7QRUZiwA/7t3vRvDpN+D6r406rYGiwci60r56AFJUbZGPoHNLwjN1CB6wB35aJ38s3K1gMlX/glZSrby/hL/TXVML1kZA6gHEFKj+hW5tgvvNx+brEKy1yyJPaFrCrqBkTQRd5pHv10ksBG8PAmUZ4DX0G8g7dTvaCQCPdT30LwMV5287ipSFHtIf1JdFoBTc+sVKidf9nWP0rwVU07Gomon3iyEYKbh2bVsu0hSNumceU3JITf4qc64SmNauWUM8QRkgUIyK2qvuep7Dfw3q11WgefTYsWtc7iafqnatmrrD3wbwaybkZ/Qe2y4CqkF9pKki4CU39ejR4zgP6U1sL2Vw7VoAsldk56490K9GEmpaVZnKqm6dOtp3HjHg0W4O22IL+nJcPkrLopp15fyvV5oBKLBeBgX6ybNdqisvjtDuFCyof4LEv5gWSfCMOAdcoJvUDJD/AQj4wXoaB+U0BeT5idi908LqCevRcFiiFiGP6koElpjVrIzttOF1eKRDFQU4XyLa2UzIr0EwUJZlQTUYAeso0wclwBW7cme0jJobmbqYPIock+eh2Mdgsde22SxAbgAA8HPdq0lQiUKKSSPBBXwPFt5LDKhyYB4/y6KaS3J73WYNKsqdyAfZFcCzBCz6Z8FVjThyTkZh4T4LsKouU1uhiGdQsapZlWKaj/IwLPXvgq5y7OQltZ62qFFCumChfgefMUjFLDphbroqwnX6vw5VYYHdJ+EIwOI7olRXmzfgVkT/925UFl5Ud83rO2r+TtkEag3fk/LISvE43oNRC3YicwC5p8y3DcGFt42bQQYdFgLPOhbAewwCBGevO6RJ3R1hlTKH2rKo5oIsm/oXuq8WjAVDod/KQ5cxiOoEZPVnyNZaAFckVtebkx/dtl4ZeQBUrYLYtNDS/+eq/TIH8pECqzw/ewHpqiaj7PVWgFnysw2ZtOlf6PCnulTVLBK/MXOA8vdtQYhouwooALy+BPix8ejDIujwHxcgS4CmdnOTp1HiNQrgdgblUXnVaBprR4Uyftou+87NwBZsED+AV43BVo7PVGGlp7pGck1rGUEnrZletkpQjJqntdN0mxskZQRO4XOCQ4JSrQyFz7wBWnXyyW1FGwSR/D49ayZd8zxMLmxqUBbaYbsErAyGIjeV15Pnah68VgsL4H6pgQT4mzvMOABY3pMH+8Xr7Ktg5cLresMmXRaoAvgpJ86Rh6mouBiTyM/oYu6CWQEFYJBWHHMBpoym0LpE9xQVFRURFBjzO6Yu0nSB2tJS6YdpLRZ8Zh6MyDe/t+8Dv+f15EbRfEQOoXnwO7pgGSRgmpbYPi0jvK+Z3J/9YsSpjRPoKKsJrTfMeNASFpMVIzqim+CJOzDFUE6KWVqLaj5sLhj45rDDJktqwKGcUCZgZVdZ5e+QBzcGTtlHzjNfsG0RZp5KyqQbuNYqy+Tc8TMGBNrLsCmzpsxRFs0KaHx4nKuWMsojz+V3tupSDJrStnkt+8h3wK7ClfadmysCab5fNs4sXbiwN/Bbh1kANTMINq8zQBPqCbDEtcLZZPkfFlUH5lhOfU9M3ce5pkxQZikkrBIF3asbctvcq/6NNSgm/5APyhVl29Th9lX5bE4lvSe/p16k7KXyAghW0TZlnnrfllJNxY2cWbOzvJbrlZmBgp+zLepb5BNW/cu+294340VwtMzmIaBK0GeWD3WUorQHfFqf2aa0DSsmSPh2fytY1ZBQI7rOtHSaAVP82wSHaUGqfSosPqv9NarKbO2lBZcmdUBli/4r27Xmva9pV7WpoXTN6xzl9jfnMw5zXBFVtHqDWsFnNp/BUfOdlfuaMmK6/h1t8TOegZZOW0EKLNoKNvA/LkxU7Cq3Gr9hKB3KNmWXQSoqwzhMwj7lhZaXq9fZBX7YZIrp2PgprQamjNn3wbyvIX64j/bHkEdem3o/EzzY5J0uf/MdY7+M53CcktT+EkND8bsiUI3DxsYboO4T0D6ep+sfaZu4Xjn0sM03ZUhlDDJg/7v9xsheVtlnlWmcb76jppynK0c2mWPGAH5/Dfi1vU+mrPJdoGU99Z2wyTXllVWrrukT+wEZp5Sb7xcfSXW8+Q46aIBVlgHsXQGoHjt7WcrR9W+/aXHQuKbqPsisWq0pExhr1YPo3430b6p8GApT26DsXCuTVPOGLuT3uldS2oNNr/OHDTCrF4i63UaXste/3Jhcq9uvrh15Uf8ye0zihXjp07qiTEHwI/vumQ1DAWI6TGSUMWkxT49HCqY//hqrFsS8BFyuBy7tny4j52RsNP55VlbbtgfbZquO5KaafSBgiYUVuCK4tuTfOjtQJUeo1LDpct60EDqQJ3WN9KQFdukBvYyck3XBTd96daP27DZWqac6GKQq+GEKGVjIQuoESOjLLJOIvIMOpCLcaBgz8z0DNqn0P0dAxrNI+eRwi+q1yjVjcpRXZTk9C25mJicXzlUQBW7ndDuLKgOBnekwAJjICViGyz07E5QO1qrHJ3b7aYc9T0Z0rQ1Qpmvhz4mOZ/V9SO86G3DOiW5ltQ3TC9AbVeP+HtoKAJxlZ7Mus1kCqgYnNBGR9JPkIvKGEqg62uqX1QG1rrvxCNCiWimoovTo1kWtHnlpY3Lj3htnpNJDsFNu+uYC2bybPCKm7rD3zWS0Neu8vD4CXBRJlejdogIUZUu14GRnR5+XnpeJxPksE8FXG/I1StwirZ5udPPKpisvDZaz98VmQWaU+SKU0WSdd2d2/V+AW70xUtftQpo9LU+qR15Aq84uKHmr/8r8gqHg3s7VkOatscHEyQbVLtNAlRY1E5TOnjMPUeoHlQOaF6x/eWuqnL835pwyo0G9unWkVcsWaplyNNUjKyOrfGFcyBK5T4/ZLJ+jtrMnotdZvcnRbuqsPI91TTojYAfW1DWMkoNMM8NIdC7upkvY2ceOfFu6yw9EX5ZGbyA9E4I/3MGL05K1FmB19uk1d9a68VDLFIJmyiGAbPUrHaSMP6oZktJgo5A5y8MaNDmDunQPSoz+gRR5ZvU8S2adZRZv0E+b7uG2g0CV1Ks/YCS4HZUWiSWyI7OZBqomb5JWtYjISFm4aOk1uUZdZMitx6BaIb/LFhDWt09PpPsKcGqLqknoP4QqTMyNuPcgcs+BsO7hZErfEs5/HwHl4CKgpjnywM5DzsxCDIoAiCP30RUO6mATrHyCHLbPo5pTCoIw8gGsWp4tV5hh4xmUk6gBaSky+pFm8nC7KjbqlRFH4UyHKbMEqhFIRN8RlfGOo4wzg0EJxq3DNUYglYMLTnUX5O2m29/HFmhrxlVk5UmzBFTNG1H4lixbjjrLERol72wvT1YG7L90jQlSmzdvIo0bNlQlaQabOes4mBzbHUibQ8vqIuRtTGYEsqUrnXVKr/bbxuLwQZ7B7gCpX6KaTNkiBTQowtiLuM4k2xsMvlqwWz5BkYf9rE3PDBKu85jOL5NZfQLKMjJwBCGd1gt9a6HaG0AqeH5c7J15naU3gJa1dcgF/ezYLbJy10lkikDUuiWzWZWUvHOduizdpCD0b9/GZeXz2xtIcaTbUv3L+c3G5irTQNUepOquD4IXGblL85Cev4CSXZbE5R3ByXJPmA3BXYqglGutWjWUn5pesFeWm3fAhfYxgww4VZcaftmIPIwxTP1hKUoHzErO35LTWBKKskGFItq4aUV3JY+4ScmxfyfpJWCNeyb/tmQ55+XqprcIHeUNS1Q15Dcui/Rj9nPtjDS79PQvc0Fvhv49y7Rglv696SKWGzfkRqoUKHV1yhZWXJqqf7OJDDMNVP/thclkAoHcGCerzRwcAfv0WWqPSpPSKwdvdVOaslfw5gt0U25s3eSmj4BaHHFXKk5n32SlN3j2YNUZOYs3XSCc+IbcUNMi5VL6V70cFjp1YrH8166nxYkmfsjq82YaqKa9kT04dWaXRFYH0JWvM9yLhsXe2ZWkOU9pXyAj5actd60rT+Z/6Nkoq66wsN9oyuzBKkWYgNU6XGsEDFe/a+pf5eBSZi2xdSmhzQ39m2Wgmh5idqnRth4mdQRcBaRaU2qNgDUC1ghYI2CNgDUCzjUCWQaqzvWYVm+tEbBGwBoBawSsEbBGwBoBawScbQQsoOpsM2b11xoBawSsEbBGwBoBawSsEfiPjIAFVP8jE209pjUC1ghYI2CNgDUC1ghYI+BsI2ABVWebMau/1ghYI2CNgDUC1ghYI2CNwH9kBCyg+h+ZaOsxrRGwRsAaAWsErBGwRsAaAWcbAQuoOtuMWf3N9gikTZhuZUfJ9pDmqQbM7Iyunq0ibeYVS47zlBhmvTO2CmtswCjoY+QCttI/Zn1IrSudewSyBVTT5vFjQjRN5Wfl8XVuqbDLnarK0oUU5bWJ0o0KVdbheiOQiAS5qObnUrJrP0sKUpljEx+yRCF/yU4tbdeTANd4Ip1bHEyO7yqFK9LqYOZStVIAu4a8mvmrczqPdZaAqrOXc3MNkbg5T5HTFSZuTq/Tv0t6pScTkpLl9MV4uZKQ5MiuWffOoREo6O0hRQt6KWjjAujSFilNmG6AGB7nYxPkHP6xkpF1OPcIcANdpICXFPTx0AfReum2eXZW6+o1lQGtylTOLaA36L1ZfCSnKgNmGqjaC5v9wn/qVLScjjkjcXFXXHoC/isP5+tbUIoWKSzFihXVR3ZW5WjOV3og9ZvFe2Ty2oOy+fA5OXMecssSMNbhvCMA4Fa6uK/UL+Mnd7QKkjtaVHAZK5T9pJibR7N06u4TF+T9mRGyOuq0RB6/ICncdFmy7NRynM/LQ4Ihx00qFZUXe9SUKgEFFayaVaqc7eHsPQDcSBGI0ziwYV+MbD10Ti5gg+VGq7GzPZjV36sjgHktB/1bq3QhqVe+iMpqTuGGLAFVs2d0CZ87d05WhK6SY8dPAKTGS2JiouX6d3bhhbbw8vYSby8vKV+unLRs2VwK5M9/jYXKGR/RLNdHZfjQrxvkl3n/s41jAAAgAElEQVQ76S/Fw8JqYVEAnHFK/9lnWMiFQA1K88VBdeW9gXUNa5SNBuAaDymShOfMl89d1u09Lf0+D4X+PW/IsYe7BVJdYZLpC0+ALMcnShkA1lnPtpH6WPyTkpPVW+BsfFUDsOhrqf2n3A77Y7NsOXhGYi/EiSTSo2UZCpxbdDG5vl7in99TetQrLV/e3UiKFfLJkQ1WpoGq4YZI1hfl0qXLMn3mbDl9+rR4AdS4u7vbXiBrX+TcAge3KeaY/+Li4iQoqKJ079pF8nnk08dyRi4cFSV38h5Y3H9evlce+HqVuMO1xl285Sp1bmm17z2XOrpIkwHkUvBv3ovtpUtwKZ1jV+Ejm261i1cSpfPHS2XdthPi6ect5OVaXD8XkmUIswdkOQHeno6Ny8nUYS2lgKdBBTBpAM70tObmKvLYeWn59iKJib4skt9DN1yWncCZZvL6fU1Mgg7ibuRinHRqXl6mDWslPsAN2fUEZBqo2nMWV61eKxs2bpb8+X1SXWw5Zep1jWlzzqewn0NuSAhWO3VsLzWqV1Pwyg2Jsx3m5or97vnZCpm7/pC4YednBKJYO3lnm89/7S/QmoLVywnyUNfqMvreRjrP3KS4wpEIAM5nWRZ5Ujp9tBTWVSwOFGENZLVk2RXmWJ/BDJjDT29Pd1n5SkdpWKEojI/G/DvTwTXFsKaK3Pfjevl94S7JVwibK8iu/bM60zNZfU0zAnYBnmo9x0b69ydCDAoWDQXZkNlMA1UTqPDn1Gkz5fiJE+gAEbOlIF1VcOPj46VmjerSoX1bBaqcb2c7TPAdB7dwpRdmydHoSwz5txZ2Z5vIDPaXy3gyeG9t4IJa+lIHLIhJ4mnzCGSwiTx7WgLcpAQq3y+Jkse+XyNu8AzgtbQ8p3l2xrLRMeA4qqkkWKhmvtxRutctrbQPZ5NlEzdcuJIgjd9YKLsPn1WaihHuaB2uNgLckKRcipd7u1ST7+9trIbM7MhspoGqaVFNSEiQP8eMF4IYZ7SwuZpg5NbzcANyBRbVCuXLSZ9ePZzWomrKbSw4XyWenC6XAWJ0BXD0YcuPqNGRtvRuZuCBo7vmzPfPh/FMuhwvIcEBEvpyJ+X2OZsV6nrjHw/uohcsbB/PiZQXflgrHkULgJbrYLqVzZqiXGD8R1nW5AO2z51Zlhzdd7r/E8/FynRYVHvVL6tA1dlk2czAcRzPUe7ZWfoMurOycKqjxStX7k+aVdK5K9KrdUWZOrSVJEEPeGVjvc0SUDXcwQnyx19jhIDV0Ra2tK5qjrwJTOyjvU2rr0VPyJxsXsFmJKhCeends7tTA1XOP4FqSQDVi5dA4Hekhc1c2OmiZvBPPCO1MS8IiHHHC20Efhngw15uLdduxmSXgImu/5Z1SsmKER1dCqjGJSaLN6xRn87dKc8BqOYr7AN+asbGJcfPMmXUTJ0Ed58iVCSxdUOqMNXFZrosW95XlWoLwGZ4KpgPOAkBRzMAVHvWK+OUQJVAhZtHAtXAZ2ZKEoOnHE0h+8fmSjPBG2rXlE97ObVkNsMy6wGZTbwQL30AVKc80VLXM09HANX4eALVsWpRdSRQtQeiCcg4wCAKLvj58BJ4eHhck/DbpHFZQDXD8qbjR4tqRVcDqrC2OcyiahbFoOIDmCqG1DN1Av1hFUuWzQfOyuWzsSJw56YeJgphRLdVUCNDwmtaVF0RqMZDHryuAar5NZDKIYfNI6ApsWDVrV+1mOaxPX4uTsKReoikRDevfACrik6xeuEXMzOBJcsZmjK1qCKgypmBKoEKvUZ5BqiaPHZ6IuKwuVLcoNFrgl2gMS92QJZ/WvEMGRJXPUktqufj8g5QpUXVUa5/E3AyJZanp6dUCqqIVB4Gh+fgoUNy8OAhtawSSPOnps7CwXPTgtX08sOmnZbr5ZC15+emB4L/7V7298joeRkXl+yfaQHV7I/hP1sAM4sxXJDTV24JlruR89MTZhN9uQE43p4eLj/M3yXuPpBT/F2xZEENoDhy+rKkmBVqbJxwjaa03cA0BKSGfmsaG0PfKmeIRtp0FLD50TWWLpMYb9e+rQCSTYfbgtDSKHNV6HnA5ftfAqoeRfI7xvVvAk2A1Kpl/eTXB5tJuWIFVMg8sODvQH7i+39aK4eOX9TF3wd0hSqQ5d0nLko8rkkxhZNCg9/tI7/TypCKuw2Lm2mOUoONrvcOmHETNjBt92dq3Nk11jN2w+iKIeM2rOJo669LAlUTGOaGer1Rm6ZCBEDNj4Dawc0rSEtssC7DqzV98xFZsu24IZu0APLcOJu3iwA2rVU1IxbX9M75t3bM/mfkHDt9nvrYecDya8isBVRT5yQJQRJ+hQpJ1y6dxNvHW06cOAn+lqeUCwyUAwcPysLFS3SRp+6pXq0qFGSCREXtgyLNp25sQ0f+My8dQaN9hgP7MqJpaQWpVXBsGs681v4aBbM2AbIHpGY0uvlZ2vvY9+FG719ufG8B1ZwfVRUFWFJfH1JPhveuKY/9vkmmbTwifqhC82C7IHm5d2158s9N8uWsCN3pTx/eQS5BWd72ziIRgBJTgWpkOykDyvfCwTQvsF6lGtf4OS0GAAgGtQA3xu+aWJsn8TNdqfE5rtPP9W+71RpUCW2Q11JRazJ5fE/ahKnw7dvieWZbDsyoYAHVnJfbdFuEPBSHTG58vYscg1v30Z/WyUEsUI0BXN+7rYGUQNqsFm8ulCMArbWrl5DVcF83f2ehhIefEjd/b0P8lKeBn5Q1c5G1lyEKXAK+U+CA8+g29oT82dIaGe+Awkp1J6sF10Sa+E3fE1pymZdUUTTaYVu8DueauzkaXJJ5H9ODYf8+OXDxt4BqLsgyZKgGZHQy+JOekIeN+85IkYKe0qV2aRm39oA88P1aibPlX76vbSU5cuaKLAw7IkkwepHvbupIzo3yb21rv6Y6tOlQyp09NjAzH/B7/Y7X6j2MNsxyuapfqXLxPY0X5jlmir3Uc22Ywv4+bIs0C9XvuuFyDAnYAqp2MsuJJ1Dt3au7FChQQGbOnivnz51XC29AyRIycMAtsntPlMydv1C5tLcNGiCXYmNlwsS/pUgR/2soC7GxV2z1lA0N5+Pjk3qnBCgv3ofpFYyf+ZRWQKGIx3cJCfH6N7/jT1pstRWbAPNzFkMgOObvzDlL6y77aVp3+Tv7aHJ+E/EieXl54iXyuOZFyIVX9l+btIBqLow45IIv8oFPe8sfq/bLS98hcruor6RwgQQl4buhLcUfoPXOb1dL1YBC8s39TSQOi+wLv22Q41jMT4Kk7gZZJNgtHeArwYFF1PUbcfScHD91SbmBVFRFC3mJHywGh5DhoHmV4nIJC/OWA2ckBT/dcU4NJBIPQiWRk+C/7Th0Ri5fwcLNRZwHFR0UcpUy/lKtVCE5Cdfjhj3REliioFIUTpyJFTdG7XKxx7PUDyoigUV85dDpS7LlECJ6+SwEAQ4CqxZQzQW5TdOkO9wCyZcS5I6OVeX3B5siSHEacmNeQn5ipH2DjFaBlWoagMBTYzZL2I4T0qlFeRl9V2N59I8NsnnXaYkCsNUgMMoK1tN6FYtIebwHh2Iuo1rRWYO7TUCK96Uy3oPjoMQUwntRp1xhrWh0honiIX9lQJ2h14GJxsOPnJMDJ5nRw7ZAEwRjk+ePd6FGWX8p6uuNa09LNMomU66jTl5UQ4aCZQRYlsT7UKd8YcUakUfPy1FU/YIpOPcH81/uYAHVHB5+AkXI3dJXO6oe7oN0hdHM6QqZaVqjpKzCZmr00ih5Eno5GXp3/Se9ZP3+GHni3cWSXMrvqo7kbugCKhpSZ6p1AAYv0F5sW30R8rUpW/yesszNvbfNIBCL75ABIXXzD32setsGctVoQN0KHa96lNeTDsZr+E6wtC7u6QbckMLPSF/g57zG11Pc8LsBVi2gqhxVR7r+aY309PCUu+64VTZuDpOVyOtatLC/7njiwJ2tVqWyeAIU7t27T+rWCYZFtQr6m2jQAg4dlqNHj6XuhIJr15KSALfcvZw6dUrCI2DNguDxHmVBJyhatKhaa4ODa6FUbIxs27ZD+blly5aRqriPt7e3AtaoqP1y5OjR1OIHBKR+foWE7fv6+mpO0rAt22DxLSOXLsfKvn0HFJBeuRInpQJKSs2aNdCWl563IzxCTkWjmEI6VIUcfnWv25wFVHNhpKko8e/Q531l7vZj8sCo0FQLkRcW23gqOGxUCiOae9ZTrVBGsZhchDK6AGU08u8d8suiPbrjvh07/R/uayzn8R31Gxfx//2xSX5HQQNaj57uU0uG96opy3edkgFIGD4ZuWMHo9BBLSz63z/UVFoAvEadvCAl/XxkD9yx/G4PwK4bk4pDwY5CZZGhnarKAYCPkrB+/bRsn7StUUKW7zwlT4xeI/lQhcQPynUMcuV1q1MabVxAqcdCMm/bMXnwh3WwQkD5QzmnKu5cGMrrNWkB1dwfbDWEIgXNQMjhhMdCpMaIObILmxldmAHu1FKEoFtaO+/oUEW+vKMBPs4n52PjJQJJ34d8u0ZOYmPlX9BbxvwvRLojlVgUZCiopK+siIyWe75fLQdPXYanzFPC3uos+wEmqgKUEmw++Mt6+Xvlfhnaq5ZWH7sMvX4J701g0fzy0ZydMmLcZlhWscnHZ3WCisoUAObyxQvIEYBgvivj1x2UJzpVk/qvzpO9rOqFPvZFgvJfH2gKXItiETjJL7+XPPnXRvl5yV6l3DgqSt0Cqjksy9CtRfx95NhnfeTR3zbKbyg/XKBUQRgDkiQRAHIIqVgQ4TlhR2VYjxpyd0iQnAIgXRF+XMbC87Vhz2mDOgJg+1RnyBA26czEsXr3Kfl12X5J5l4fm69OCHwLKuEr2w+elQfbV1Kw+/2iKE2b1xJpxgY1KYfKTd5yBu/Q2DUHZA30agreHfWqQm6DYPF9vENlKVOkgJwA55vBk73qlxEWTFgGHUtqGNOWNapeUu5rGyT+ALLRMCh8hfVhL9N/2ahjjgCrlkU1HYvq4IH9YalMVMvpmTNnARLzKdgzgquSpFDBgtKkSSOpXKkSAGycnDoZLbt275H9Bw6IBxblLp06SGDZsvj7oApJucCycujwYVm6LFRiYYFt1qSxNMW/k9GnlP965MgRWb9hk9SqWV3atG4l0ajMFRNzBhQEPwkIKCHzFy5WcMzdTkGA0z6w+HoByB5A+/5+fmohLV68mOzatRv3WAELrQfSPwUqfeH8+QtQ3qdgES4JYFsAbS3CdYdSrbQ5/MresDkLqN5wiDJ9gnp2oIge7lpNRmHxnrb5qHy9aDeskZdlP5QaF3p3FiOArBXE75OHtVaQev9XKyUJwPASlFEnKKz5L7STp8eGyW/Y/VNz3tO+snx+ewNp//4SWbrukDwEoMocdh/OjpQvZobLJcj2WSzUwwfUkcFNy8nAr1bJKVi+fNHmspc7wNJ0Rm7/ciXrc8rD3WvI13c2lO4fL5P1UMw+2NW/A6rCfa2D5K1pO2Tk2C3op5tMfb6d1IFC7fXRMjly9oqUgOJdPKKDrARguQOWCsFzmOyCTA9UNi6wgGo2Bi+Dl6ocQ0aLAmhOeZIbqiLywrgtshZzv+3YBYmDrIHPosZKdyzcbWoHyGREAN/yVaisBxCNo1sTcj3p6TbSGNbUHp8sxaboshTBBmjRS+3kMNytnd5bAsu9m2wY2RnW1gLSCzK1E5bOi7CSFsTGbMnw9jJm9UH5ackeBH0aIOP7expLyLuLZA2suD5oa9ObXeBtuCBP/LZeKTSNgorJuMdbaIqvhq/Pl337z0jjWgGyFvcYMXmr/LBwjwZ/DQypIKOxWWsK6sJGgBACX0dsuiygmkGBzOhpNkNBxAc9Zf+pi3LX6NVyEvKhFkl4A9QSCnkthpr170FXcpPPILCwAwCay/fJ8q3H4MH1kkmoutSicnGZs+UIZCmfdKxZSiZtOiT/A/iNg7X/vbsbynPQo5vhxUog/xXXfTQ1XIb1rC4f3VpfNgC4Rh45L9Vg6W+I8rg9P10ui3EOZawy7r34pfZKS5i35ZhUgvWfYLhl1eLyIdLSvQm9n4z3oj/A7m+PtJCd2GxtBzhtjv4Uhw7uN2qFrNxxUtzwjjgiztICqmmEka70EgB9HTu01/r0x44dl5MnT8rOnbsl9soVdcVzd0zAeUvfPvgM+ehmzBZ/fz+1Bjdu1BD/GsiESX/rdTyX9e1v6ddHloeGyubNW6Rp40bSokUzmT1vvrbr4+2jm5QqlSuJH9pZt24DXPlJ6tYfNKAfrLieKIYwi2ocFZ3aSalSpWTM2Al6P57XFKC5ZcsWsn79Rlm7br3kB81g0KD+CmQXAOSSBsC2+vXtDaBbUKZOn477meVpM/o25sx5FlDNmXG8phXlu+ETKK9O2Fm/DEDZrmaAnIXbf0n4SQWti7CbZ+WsFOy+pwEMXsZu/7YPloo7UhFxR/4bFvxK2K23fnmugkHVRgANS17vDEtmrNz5zmJ58rZ6MhLBWqXhko3Drt3g9ZHvZ+PrkRNIFxIU8wcPNZNOWKwbD58jXihruPaNLupefZBgE/fU7ARwr0a+111+XbFPngeHqxo4h4sAlvvCIrwJQQgEJQLg261dJfn+vibSDAv8MVhj1Q2VC8P4b01aQPUmDLjJ24RO88PC/XT36mqBLwbgGoYa7vO2Hpe3sUG6SNmDfNaFZ2AZii+0/3CxhMF6RGt7FWS72PBaJ7kDhQtmw2IvhfNLCqxXLRuUlbnPtpWW4GVv3Rsje0f1lrEApK/8vE5SUD/cqMlovEOpqd3wmR+CuSIgoy+M3yJjwPHu36W6/PFwM2k0coFEAGwKXLOU0ZfAn30D70b1l+bIflABPoKHoW5gYen+2nxJ9rJxYWFlnTeyE0DARRmGNGBuAL2OW/RdLOrfgcFUusGCPm1SrYSMfay5uv9XYzMeuuuk/BK6Xy6DzpIPG/MkpWIlyKK3ugCknpXnvwiVZOhA6ss3b68Pa2cVafDKPDlE4wKep3XzCrLkxXZyG4DvpPm75aW7GsgrvWtJ5w+Xymp4s1LwXlBub21ZUT1UX03ebtBboBwXvN8dnrFEGfzJcklCByc81VoDD5tAHyfZ0he+CCPEO4PqqHHiaxgLfCHrO97pIT8tj5K3wA1PJu8aAjrjza7Kbe0N4wHBrCOKKlhANY1FlUDK5IbWrlVTKlcOkgL58ytnNTwiUljmlQcBaK8e3RS80vLqAwsn3fI9u3fDThyfzVuACEAEquDgOT27dRFPAN+JE6dIq5AWUgtt/zV2/DUZDq7gPKbpKgK6QeEihfW7BvXqqvV08pSpaskd0L+vRETulDVrN6BPSCMDpU4hGjJ4gOzdf0AWL1oqVatWQdWnNrJ0+QpYVC8qFYCcVlIOmjdrIpP/niZnz55T0H2zDwuo5vCI22KXaGZUHhI5SLBoMqUP3erPYgfevFJRuReu8z/hwqdVfvqzbTQi9VZYN7lYpoCOsm5kF5m3/bi8NiYMgBZ8abSVAA7fpwCcPQF+awydJk/cUlue7VZdqjyPBNs2vpJJsm9fqyQsAAFw2ZcCt89LyhfLL0sjT0k3AIOicJFuhrJ7DYr0d7iRtNQs8wvCGrX6zc5qeR36+QoZCGDy+0PNJRx0gStQpkrkx31KIoCmGrhcjbDobwI4UOvwTUaqFlDNYbm9XnMmWCXwgEWzADYrpeF+fwCWzUewkJM33Q8LfDRc+I0hcwufayedPl4qG3dGqxz3bVFBvoLlvu37i2UfrLDu2NTQk1AAMnN8VB95DNapv5bulV2f95bv8fOTSVvFHUA1kffFO1EWnNL2sNT2BG2gIbilBfEulfLPL4O+WSV/zwMFABum25qVl5C3FskFUA7yMU6AFcvwjsyARawOgMaBY+dkLrwAtGrthFuVsQhsnjSwkGrFZQHesx7vLpEUvGc2CuFNGlzjNpZFNYeH2xY7koK1mHL2v05VZGDj8lK6sLcEQH4/nbtLXp+4VRJse6GlkI3th87Jk9ispED/EsDSkr8dAYLDsMHKh2s0qxB4zzPhmboI+sAdby+UNx9uLn0blpV6L85WHU950lLH2CiRN+0LT1T1MoXEDzp+ODZNTDvXD/q3BCysG17vJO/PipRvZoSLJ9pPwLvlg77ufL+HjF68R977faN0b1dZvoHV9i4YDU6jTU/cIw75wTs3CJQRoHzVe22enIghXxu44SZTVS2gmkZmySE1y7MRePJfYQDHSkFBEgIraGTkLlm6IhSb93wApV01J+jcuQvU+kpgOQgBV5E7d8rGTWFwrzPvqjuqFsVKpw5tARTLyu9/jpUmjRtK7do1Zdz4San3Ijj29/dX6ygBaUH808BogNQjR47KNFhtiwK80jIbumqV7N4dZQROcfuEnfqAAX3lKKy/8xcsgkW3ESgEIcpLNcjURmUXBlLxmDZjFqy90dq/m31YQDUXRtxUlCZY5ZRz966RyUny45MtpR1I/VWfn6kBVtOfb4tCBckKVAWKkkFOGwAkZ205arjgCVTJB4R76hMox27BpaTWMADVfrXlBXCsKj03CzSYJIN4j/bfHFxXXu1TW/4Axy90d7ScA5Xgdrj0i2PH3+qVuVIEHMGwN7rKCICCMeDnuRWgkoX7Ft3c+k5XWQSr75OwtA6BMvzmrobyIyys5wG4uQHTRwHQiIXVltGzx08jJ6wZoJULQ3m9Ji2gehMG27bp0uBjLMKslpRIGaawQB4qgBu67e2u8uLELTIam57GWLTnw0ra5RPQSQBUed4tsC59AUtR6/cWy4HjFwzrO9ooBDk//FlveRwLMoHqboDWH5ftlQ8mbEGNeABVyHFFgNQlI+BJg26nF+IoPAkEAp/d2kAeQ8DWBFhUR9zXVGkuIW8vkstY7AlC6ZHoDT7q2EdbSI3hs+UgwOmiV5E1BnI6M+yYUgKohvmPG7A9CLiaRotYNhKWZ2c2LKCandFLc61pKFA5xR/0MDH9FOY5oGwhGdK8onx8a13lOb/612ZJJi1KQel5GQpQmgyw6Asv1La3uiql6kekEUyC9VUzRgAs/vZMaw1SbQHjwEjoxr4NA6UhvF6JBL3knuI+NbChert/sHJPK8IoQABLgDxl42G5HVbQKpXheUCml7sBjBfCU5VCygnpCrh+2zvdZPzag/L2z+vlf6BifXxrPXBcE9SQAJ+rRvwzVoHBty3eWihRCC7k9Tf7sICq3YgToNIKSh7ombNnjcnEYkke6cVLl6RVi+Ya/PQHSr0mAcCyshKtpQSHjLzn9X379FKX/4rQVQoyKUyXL1+Wzp3aI4CqGFz246VF86ZCa+1YAFX7dFG00BIULw9dKSdPnFKA2xou/WLFiyOzwBQNouoPoBq2Zats2bpNrbwE0gTNtw4ZKLuj9srCRUukbnCwtAxpJouXLpNLly6nZiMgVSAFZCkGWtESa5+v9WYJngVUc3akNQAFLp764Bp9CiXzLDh9m8NPqEtSFRkW2ycH1pG3oMiKwyqagAV/JtxJVEZ3AajmK+KD0qCJ8ifAbGm45Du+Ot9wZ3JVxbnTsKNnqbrucBk9BQDwTLdqUvn52RqpT/dUCSjHiHe7ySuTt8noKduN1FXgU30MnmBrWI+aw8JEYLkIVgQGntz1wRK4Y5EbEzv1IHD7tgGofrUAbi3s4uvBirUEPKoO4MSGYSFX1z9pBQDOqa5ZTWOle6+belhA9WYMNyYW8/02FsziiKp/DDKRwvmmkDOaHzJ55Ku+8gOA5hu/bpBmjQMRHNhG2n2wWLbtPq1yVg2L9rpXOsngb1bKArj23RHkkgSqQHXQBLbA5dru/aWyBu/HHjug6olz4sGHfgXu+wfaBMEqOlcuMtIfFlYvBMUcQjaNJ//aJBPm7ZK24JnOBH+2KSyq4REnEXEI9ys2dJ8/HqKu22ovzZb94Kh+h4BAZgHoCIBBcGIceAYEbmnaLP3MZmK7GUNrdw8LqObwgEMPBiClWinIUTg4okacHKpt0sWOANAPsNnvD1mtAUNBEgxXy7EZ2nrovDyDnMCJAKo8fzU2NjOQrurt8dsQVMqsEPBoQa7GPdcWHGtP6QE9+gaytRCo1gdQZYBVCt4JHxvw5b2fgLdgNehVF2Ao+B73ZFBrrzcXSAAoKKugx4fDqjsOmzNveKhoUS0IPb8LFtUvQCt4D+/TnaCMjYQx4i4A2jOoAsWKhpTZCwDexEAn0G6CZtS4ycoXvbCAqp3MEvQFIFKeNegJFjeHbVWXvuYrAwjtjCCpsoiuHzduktIDeB7B5N/TZkph5agmSvt2bRC5X1o5pDyHuxsGYg0GZ/Q4ovxnz54nrQA+GTg1bsJkvTutU8wuMBB81Dlz50s4XPtKG4Be69u7h2YamDpthp7bvWtnjfafNGUawCY5qolSt26wdO7YQdZv3CQrV67WZ6Bld+nyUNm4cTPagqkfIJUBXrTCngCQ5o7NAqpZV1hmqrDUEqqOrEwFGSsIgLgNSuccwGUvWJhOYXFGPWNpDDA44+nW8hd2zU/8tF7B5V+I/A+GO6jNGwvkEmQsEX3vBSvRDIDL+35cJ2NCwe3DMTikovz8AFydSGs1eeFuGTqorjzbFa7/F2YZlYvQVjEoyO0Aqp9jER+FaFe6WkPA1ZoEzuuaqGjpjh19ChbmIYjkHodI7hGTtiBQZa8q9XcBSLrAWvshXFKvAAh4Iqp0PpR4cVi/euC6k3gGH2jx75D43QfcqMFfrBSwEx2iKC2gmvV3JaNXclmkdXIIOMljEdDxCIKVxq3YL3FYF32gr0YiEOUxRC2HwA26GbSSoApFZA+4ePdAZifBCh8P2XMD0J2NjVgF8O26fLhEjiGAqhDAwEzQXRig0hYAMxZ6eQd4p78gkOUjWPnpCo3HIvzcgLryDAISaS09hk1VfliO3oW34ME2lWTA1ytlJjwG7pDNJdh0lcY19/+wRnbBMnYL6Aav9w0Wb7yDjQbFd2MAACAASURBVMFd3YuglvYAJgvBtx6K/MUMTgRkkcYITPkLAOKxPzfIHAQn4oKbzrXmXFhANaMSeePzjEBWllYuLXNh/bwdKahmMniOm33b5uqvZ9pIbXCnGyGLRRL02Uqkq9q4/6w89dlyg6OKDdEf2NhULw3LKTmkNBJAt/qAX005nbThsAwH9eRNcKN71ysrDZFZIgWWW74rwZCp1a90kFZIdbUVMqW8VXw3F8CX1vsBHy1Fhgl3fSe43vcAFSCJm38A1fsASn8AleW58WHyxcRtyBBUUoMMByDIdg7Aqz4Dnq123TLq3doGnrhmq6Cb4SZjVQuoppFFArpuAIMs8UngdwbR9wR15cuXk5o1qqvFkhH+BK5tEaFfDUn/V69di6CrE4jUj4HVtAiClmhVjZbtO8JVOIJhPS1WrKgGXZ08FS0twBOlZfZPWGY1mT/+83D3wHU9lUqwdesOFYTyKDLA8w4dPiIzZ83RcxnoRastsxHsiYoS3wK+CkwZzBWxc5esWoVa3dgJhcBqG4wUWusQXMVzaX0lP/U4LLVzEcRlAdUbK6F/OyPPAFXGUVF3QPHUg2t0LNLy1ISriGmiCmChLQ1lNxUuoHthnToPxcao6mYIWpoH9z/zRD4FTuoo8JbYyGMAoaPubIDFPVZdP6XBzXsBrtEv4LaiK+tZ8J5exa67BC2zpusf970b2QGYDYA7brrpL4FWQA8YebBNYZ2i9Yg5/J7qWUOGIf1KWVhuj8KtNXLqdliwKssmLOwaXAKgWhIWqikA1iFIdcWo00rIs3oO/X4YIHvmpsO23IDZm7usXG0B1ayMWiavUd6xsUi/0i9Y3uxfBzKUqOnMuIhzE0bL5pglUaCPgKcMmfoKC+3jHasgR+k5UACWy2FYtEoCpDKzRStY9ClDVWHZpKVrCMDmbgBLD1x78ONemtvyLbTn7pdfa8UXhvxNhGehI4IAI5AJoATAaBgirNuANnPfj2tlHM5npH4FBB1+fXdjaVWjuPhA185GkBcrEH2IjVfjkQtl/wmkp4Ll6a72VeTbexppuqA4/F0ZoGQSwMQjv6yTGHg0HFVy2QKqmZTLf10IuHE2PAGzEKQagly/b08Ll3DQPwph49IDFtC7sJHpC171LABO0lB+RoaIrgC2I7FJWoBUf/vBV60L9zy5q4siTmBjs1dpL09g08R0VO2QqYIBVu9Bxw7ABqgmDAUMdKIuZ0aLUORv3Yt0gD8wzSAUb09wSh9Eeqmp0JeDPwtV4Nu4agnlwW6Erp0Bb1VZ6NWG2OjVhMHiY1AOPoE3LBn9/QL3uBNeg/+3dxaAVlZZG150l4Qg3SUl3R3SGGDH2DPW2PXbY+uo4zjq6NiNSEs3SAoIIp3SIV0XuP/z7nP25XC9yC2491y+8/8OcM4X+1vf2mu/+131aP8FrrRbKebSa1QUGATb+xfKvx1TreszjVLjNldBZ6o4VRQAzQIwbdK4ESC0UthFjt3BkM2cPduWLV3uAujFlIptbd+ujQOKMykvNR+XvICpQGmbVi0tT948zu7u2bPHJhLXKsCo66sGqmqlqqGABzxiRgsDctu0buVc/GJjf1u/0dVSzQm7OoqELbGhOk5guF7dOnZeieK2ffsOYlanM47WDgRPpARWTjpqid1tSPWBWrCtMdRnVWiCymVN5VjVa1WTgbT4BK7/0yB17cC10yUEID+Lax3cnzUIrJd7fynGZp56pAsE+NhOFv8KgNlqFN9XvNxSgvgzKY4OIFC5bEGriwE7AhugRX4ZRjRU8B/3FqD3PP6bq6xUnwUilAxYrcY5AgY7CSOYsmQzySnmQPICHeuKpOPuZMEuiGFUXUsV/F9P5utMAMM04lrvJl4rK8er7qAyZFsCpstgJLeTUKCC6psZJxRX6L5p4HoKgOpp0Nv4l/TvNpzYVAOdUrcfbV6WshArMWm92qeqsoQ+LNSZWZhVYkes6Xhc+oplFkgUs98KHSpNCSoV/J++YrsddImGodCROhT530I1gI2UcIsDjNj4bJzXgYTAcoXz2M/Mi5mcp43fehILlWDidJlOWQpxqczGUKXY5i2FfCABa9T9razGI2RtA1Rd6SnuV6F0AatTluPI/Ndcmw4T7D6u8YBAzhmQa7xbBEA1FWXu36FK/6GXL19e1/o1KuM2WMIRu/BWPQRbOWjmGt45OoFunkty4Be3NLF6lFC7l4z7jwCYukwdwOqHeLCKKOSJz2LiQW/Enb8W3Vcd7LvoOqhOVz0pO3U0rkoFHlXCWj6kXm9JrqsN0XByDRR/qrX2NhjeWCWfkvhXE+/aQ5AFzZgvs1gT7vlqng1lQ6dY1ueoapGZShuqGvA4oWK3Qj6o9FoBNnXfsLl6kHGqpGHabq4CoOoUw4NGgUkBRbGOaqeqYv8qR6VPVsCity3+OIHAyDanOlf/icUMlbI66FhODw51nr73/z4OVuUgojA09zwMQN1PAX+Nwf/nj9Of+k3XPKL75MxlV1x+KcWxV+D6n+6qAegeYoeV2a9/K7Eq1M1KGd0K7j/epi0Vp+0pL5VhgSoxl65TSFp9fCKVYohUYsd/pKyKh3O0q6OsQq32FPCvOFPFIalTSTgeW/GucSn1gAB1nIrLsPcJWlrsHVgMWWkXJysj5tpO8lGcqmYJ13cgF+OnYtXd65awu3GFGvGASnxpRWiBYlKvoNj/17BVcqvqCq6SgMbhP6oDq2LrSqpJA5DqZKZnBHg0B8RMfqS9awIi1iMjfJQdnB0ZqwD4fTDbWWC8fdfPM/58YbDqY69PKO/g9EAtfRWvKhUL67TXFek5J/pkrBN0SJ160GenW/pI/wkniWvdq+90on6XLvuPrqn5JJ3m2rkBmI+SOKhi64NGL8EFy+9Mh8GPtnfMbT0qU6j+qo51CTHhBgXucpoyvitVGm24NAy36QKkD8EF3Y15qfjDaNNl6YDAmOqRlrqH2E+1wUXeafLx71L2NNwxqjSb8W3EeR5QpymXFa3NVRjV6jgmWDYAZIxsmvbeShwN2+T8ApxsuFQ7VRsa17FPD6bzIgkHf99wSaqSMPbbIQMOIhOn13JruTbB4baqss+7+U1J1OhlVljVVRAFrzLv34RRzUTsqnTBd7gqiqdhGw0AVNLQrRHha6WFDVbowVE2iD1blrMBhJXp/WdLgf0lLM5TLYlTGQ+YVJZJnanSku3TiOMDOAFOZe5rcfefyAQof07IzoV6m/vYTy2s+rv/d/zzIu8XeZ4WQc76wz1dPCru/Lp1a7sY2h2wqbp2rZo1iVOtRdmpgYQcbI0rO+XGoyoG4TFFjiMt4lO9jBTeoNAKJaP5CguJ05b0c9QfXP9pDVRDyhTWtxPl5NbmyIUxDErDp4QS+sIAMELN3UXizg3rt1/L464XASzi5oe7sMcRBLaw0LfF1dUft6oSsyaRhFKY+Ke6MAoD6cxyJTGwDlqHsW9ozhx/hjjwmkYgVSM5mxjVNAWqXil51/F10avxyXQvUlelQJHnO2wbT8/jf5fQ/PGn+GsLbvybBgDXUtViOQzvMgq814dZzQ8AvQb2agix4HFNKTj2pPMpTXUZzAMICoBqKq4nft13eyeUTS4lbZrCG6f4dlS2TslQzuaFN1zCGE7HwwlL2li56eA3V7KLzpRHeJU8QaETdZ7u589zlw+VAbyHkK3bYEnVOUutfHNzobthaG8id6DuoyPtV7wHAsW6jNsk6p76L/wM+uGE+6ai6BJzKT3SUYB/mgJVDdQDVd+zPjGDP13HJAQoQ/YztBs/GfCMBJuJ+bu/pge4kdeO/M3/XdcUS9u8WRO6YpUno3+fc+kL2KrKgDpTuZJVEXuFSEB6suc6XXI82XUPwlCXzwBAVc+nZKqidw4mqY5dp3b0aeDKO0HOCTE1p/ounuGLQ4mJZX3iH3fC9TRh+I+g/JIwTpdRg7IsZYAUd7oUg/kpBbHd7263Hj72z653ppU1fD+Vajm2/5A1hVGd+miHEAuVBmWyTsfji73JDrsoZuUBGNWsuMtjPDt+Om6Y2GsmRg8Sq7upocsatxgwAMGFxB62ILQgD96FLYQEDPxpvS3Cnao4a2d+vR1IzDMkVh6pdJxz/cO6DY5gVLOlpTcoGc+luEvxp2JUS4tRdWAOoael/fXrrgeUoYX7OPPvPQCRf/pjQov/HwiFBG1xfJ0Pn+t9XCeGR4VAc5miue1fV9W3HjS+UCtqdX9TWMKtH8+2IUrsC5esinsV8Z/Bjy8Z7yo1Tgnp7EHrDqM6kPbFev8iPZL7SRajqpspplIF8FX0Pq0SfZL70GfyPDG8+qgdququKqxA5a8UmuBBalqxpYmRQ0Zz/St5qC5tE3+hJI2L80xTS5mYN5AGx/hdv1xUSiKRG9V3klGWaqRBT4PhJeaWrlAL4Loz1RGGUR3h6DHiGdMozjsx403KMTHYFD3Llz+usSsp6yS3YWwaZPYmZcxpcmwkQFCVD4F515kNvSZ+OhOgNZL9SpMxnuqmfi4SnjCa5J32NYtHtet/B67p8yndpCoN7l0E9vdEDfCbJukoYK84YQUViuWzzYC+zcRd7yVXwIWjJHYjdyr9Ok2/u2IDhDX0pSnBZ1Q/EOmWks1VsoCqwItcwIMpRK+i9WnRMek0yTdVL3tCeEC49JU2YQL2indNYtRFqo4tKRdTeEeN6tVcKS+XvBaFC76Pl1SclDp5fEaB8CyALrezT+eTPinvKtWODS+QijVyxf7DzIcrc5Ve5RXBhihp5xgg+9G+dahJW9O956xpFROXai8ldKEjirdFj+ev20lP+3F2kIQ2laFx/qP0+m5SWQaJvlxYHtJjqbCLlXQ6rRKGES7ZRF/wDB0YHrfWi0wwwgUpD/ej4mrPzeueQYk/0fTxYXUSeVeSi0arIoiShhyPk47fQ1oI2W9ONKEFWL2eKgfBJYanXez/n4oj0v5qjpEj8Dxd5x4gIUxzLSVx1UkGqk5IfAS2plNKSX3u5d72CUfpmR1MG507eRJUWiVInUoOkeOScT9Mkpdq0lah1Ws0x6g6sIL7YQaZwS2pvRhDLGaWnAS/OxfOqaRyFv8e56OKDhnoVR6FQStMJvisJyhdR+iCGmfIZmWEj+ZnOBzNbvxwln04dLFlIqEqLlY40OWTv+Zo0eWwV9m13YRFu5uatK9Sdkirr4jIaFtnpbPe/qoM08WvUJNUCcsk/bjw30Bn/6CzbpPiwyPED+j/okBOzv7CppYgdGz64x2sNM0V9P5TYn+TDFR1Qw9k5PZXe8/NFMbPmTNnigaSERaQjPYMCltQIlUVSnN17tQh7v1Gm5H07yWku6Es+o8okv93Mtp3KqNdGaiBCyoDqG/Yb0aoQhmYp3cpAdOFpDAt9s7op2FCTGoL1z+Tau1ei4dgEDUfXba7D9FI7RsG1zuzEpChUkw1CTP9aDP7LvVdVdJLgC4yUfjMDipld/MbLLHbr1OB4dFvFth+Zdm7khVpGayasucKzo5bYUNxu2xAylMi7pNbm1CKriibakiCiCT15MgryUDV38QzaztpXTp9xizX315dn4JPBpEAipWXuNoKFSpYo4b1LZc6foUfLRoXfL+5ijSWS+gtPmD2Olup9ouBncwQiiuDWK1EKAlMdWHF4ihsIRp19mQvJKTL3ssfUlw1iZiwZKvtA7i60jkZ4m2enQ/hCEb0Nj/l39rSfUglqdx3Cbz3aJFQpP31ZME8ajZ/j95uoGFJ4NSKljf55+PUJqQqTGrfxqVpFJPb2V9VYEnp+ppkoBo/rtIvADt+/90O0ZM+pQPKGK8ryp/ChQxlcm1h1UFLn/QappAUSUc+gxipaGUmkvLMZ/Oxke84I+hv5Lv04WCulJ34qAzEFp/NOpvQs0dWf4nmEOSEwGrwrjOuBFLT/iYZqMYHLemlhFLGfd1p+2QnGskTy32l7ciSd/fIjZaLpVEMWEA/JU+Y6fQsMajahESS5BkNyMWfl6EyioEup1OVTNawXOJtAvVpo1mXT7C/6KzKFgX2N1nqkS5PCm2aU9/+JguoerCqPyNrikZLFnu6fMPpcFDeIMZvjJAOhxoMKZBAIIFAAoEEAgkEEsiAEkg2UM2AsggeKZBAIIFAAoEEAgkEEggkEEggHUkgAKrp6GUEQwkkEEggkEAggUACgQQCCQQSOC6BAKgG2hBIIJBAIIFAAoEEAgkEEggkkC4lEADVdPlagkEFEggkEEggkEAggUACgQQCCQRANdCBQAKBBAIJBBIIJBBIIJBAIIF0KYEAqKbL1xIMKpBAIIFAAoEEAgkEEggkEEggRUA1soBvIMqMK4GMVJ4qfh2/oIRqxtTb+M1Qorn2ZEJvKH4pQNVRDT4ZUwKqCxz5iXZdPqHwvx7M9bEPPhlBAr6Oqp4lNXFDsoBq/GLTUjIVJg4+GU8CapUrhYuslxuthjKyO5Fr7RZ/Bch4r++sfiL/jt0i6NpPZjwbpSL/ge3N+GoeabuitctaQk0qAhucMXU3snV1ajSFSjZQjY+Wjxw5YgcOHDT9GbRRjXLlY2XPnj07LVRz0uEns2ufmto7pDMtochdvBb3LDzXwvW7bDC9pqeu3GGb6Dcd6O2ZfiupfD/UtOK5ea1x+XPs4kalrVzhPOba+EVu81P5lmlxOT8f9afmp/S5/6x1Nv7XLTZ/3U47FHMs0OW0eDGpdU9eX66cWa1+2ULWqmpR61O/pNuMRLLo0bjp8jY4srXmnoNHbMvug3b4yFFxcKklweA6aSKBWMufK7sVzZ/DsmcJ2SXf3jmlm6skA9UT3P2MIpaF4OcFC23lytX2+86ddvDgwQzJXKTJe0+jm+od582bzwoVzG9VqlS2alWrnABW02hYKb6tnssv7p9MW213fzwHnQWgZpEip/jywQXSgwTEmmKTziuS2969qbF1r3MebXKPuYU+Ghf3k4nUezq27ztsN/5vlg36cU16kH4whlSXQCbr3bSs/e+GBlYwd/Y4+5XqtznNF4wDqWEPwN6DMfb8sMU26ueNNu+3XXZk/2G5ZU/zKILLn1YJYHeLFc1r1SELrm5Zzq5vWSFEcIVYrhRtQ5IMVHVPbyT15/gJk2zR4iWOocqaNWuGWgxO60tN5xfXuz169Kh71w0b1LcmjRuesENK58P/w/BkKP1Ofsqybdbu+fF2JOaoZcmR9QSmItqeKxjvHyUgQHr0wGErWDCXTf+/DlaleD6nu7JRGeHjdFlxffx500ez7ONhSyxzoZxBz/SM8HLjPYMW+aM7D9rtfc63f15R1y32btMVhaDO44Z9h49aj39Otol4s2KzZzHLliUqnycDqluKHyn2CO4A1lUZqMf61rEn0Vt9pK4pIQqSDFQjWamFvyyyceMnWc6cOeJiGFNK8aZYUsEFUiwB/w6lWDIu+q9H965WquR57u9yN0bbR+PW3i4zM+bqd6fbZ+OWW5a8OQDjcpMGO/loe59/Ol6xNrDkx/bF2MOX1LJ/XFKb9xxrWcWcZ4CPGGKB7vlrd1rTf4yxQ7hPY32ITqDLGeANhx8hHFedCRtVIF8ONl3t2XTldzYrC67VaPpoTTnKf1nR06cG/mJPfz7XMhfI4cgDlwio8LJAd6Pplf5xrGF91Rp7FMCq1zn+4bbWqkox3nHIZiX3k2Sg6oGKFG/Y8JG2Zu1ay5Ytm9vdpwQxJ/cBgvNOnwT8Oz18+LDVqV3LWjRvGrXMVOhZtNmLtdr/N9IWs8hjNQPjePrUJ02vLJN47ECMdWpQyn64p5XT26xRtrifTIAxLAIC3Z9NW2PXvj2NgPKwVyBY6NNU507LzV0cMpsuXOUjH2lvHWqe68BdtOlyrJJyASoHYdtaPD/O5i7ZaoY3S88SANTTojlpd1Gvs/tj7K4eNeyVy+q4yLpsKbC/SQaqHrzExMTYl1/3t/3796FnmQOQmnZqcVrvrM3HwUOHrHy5sta9axc7RjhA5iy4a6Ls4xIReJYDh45YsbsG2T4mEStAyuP34zMBf/bvaGINEvlc4ih9Vn16WnCyyP2//5A1Pb+4TX20gx1Bb7NljT69TWiaHWaxz4679NUfFtv978+0LIQ4HEmN+lSR7zycQBn3Tk+lD+nZHsR/rviAPvx7etXlrADVI7sO2ODH2lv3uiVJWI4+XXbVKfBobd5zwCrcP9z2A7ydbgWbq/Q8c5I9NlVzOLr7kPUiVvW725u7PIHsKbC/yQKqGv3hwzH26edfuiz/1HAFx2dk/+zf0cTeJva5fBWF9PhsB2FUy5UpbT1x/0er699nzB6MAajeOcT27jsEo5oKwCVikdO88IA4coYneQE81cKabPORhBNPBar97z50QkFIpzonCbdP6aEazjE2I81rFbfJMFEylNHGQp1MBodgVHPgDXhtxBK7778zLCvxqQoLS/FHOw7k5mQX3x37BzAXOvaUn/SgyycMMvyQ/jv/T40Tb4vzssQ75JTPeJoPUMTK0T2HbAhAtZuSA5lz0abLcvvLy7EJwF36nqHMx1RiUk+1yYjw9CZkm0/zq0v+5RPxXAL52sRItkpqT0+gPys6e2TPYesJUB0AUNVGJU0YVQ9U5RbOkkoMW2T8q1/0I8MJQnGGIsISF+twKpCYfC1K2pmh5IdQvcOEwiP0+yFYSyWj6b/0BFY9o1qubBnr0e3CqAaqepYDhwVUB9teZZmmwBXhNMAvwvpTQeRiB7Khm95ohKjG0AKoRV33S84ieKYBoB+j5pumnI/t9OxHxO8F8uSwvbDUiklKT1m7IUb1cIYEqoeRdfYIoJoqjKp7p/yPdFflrZTkovftmFUxX/yh36QT0mO3+wp/nzRzeOaP9iDUZSJp7Yi3qKumMvLMR0monQDCZM/T0/RkjlGlhFM0A1W//gmolhJQVTmqRK7jpxRrKLPwuD2Pby+1mdYnsfbeg0Sv/mfa/voHjtw8JSQE/b6XdQy9VUJaeiIKPKOaboCqQgASCxxPpnAeoCrWNQf1O/ft3x93qAd2Aqmq66nPwYMYEyxlYrwGPhlIYPpMx9A6G49R1L2VcLZ//4E/gFBfLqlSxQq2bfsO27ZtW6oB/1NO8EQcEADVkwvJrdWAtGrUO7y3S1X7aMoqm7pwk2XKRcx2KHcL18MRu7tbdd5pJnt18CIXT+g+8Y1fHOgN6UzoE7aUjq0MXy8R7yzBQ052v8iDI3fxjLtWhcJ2a9uK9sA380OhEpGGHgrvvKJ5bMVL3eyDSSvtdlzQmXLy3JFGNg7YJrDbj8+0ucdNDEWXOAGcTUA1a6FcLvY6xR/e6Z0XVrNS5+SyR/r/7DYfsd49y9/PK5zbniKL99URi4nx3hUCs/F1OWT0jr9LgQhP0frXm5L3HP/6JwMRkd+jyw/2Pt82UCv5s/HLWdiP66mbw7ih/+/SOvZEr5oufn3Rmh2nnqcJzJsE53WKX4pI3gwIVFMjiVXvmP9y8z4LYHM3qtRg3Mdvro5Z4fw5XSzs7wJ1euF/pn/ezmp8mlMiHlKir8l5/xoDz5WD+VU4b3antyfMqYjfL2tc2qav3G5L1zEf8RCmghVIzoj/cE5IZw+lH0Y1NYCqnlLMbJnSpa1d21Y2n7qsP/00D3AnBQt1RtJ9unTu6HZiI8eMdYA2Ljtd7zWsfyHdPf66cubIYfny57PtgEAPiCMBqz82PoiNZDX93+Pf7/iaHLpf/GtIvw8dirGKFcpZo0YNbfCQYY459Z2edI5CJwoVKmSX97vEFi9ZamPHTXDJafE/3n2c0LjiXMvxTkoNZjYAqieft27XuPeQta9fysY80MYW0UCg2VNjbA8LXyygLlYM1YEjNu2Zzm6tbvLICMucJxvEFNUHvHtVBpFjj6/luHEOHbWWuKyfJ2P9on9Nsy2/s3GTS1Kbs7Cue6AbiQV9fSIXRqJhRyzq7vph5kFJDTov0r37h+vwDJe2qmBf3dbUzrtrsG3esd8yqYxMGDvL1SQG6t3rG9jguRvsK0B6JgdcjrNssWEm2SWDhI2rN7gnjCcCALshpwKDEQDVpK037r3yzgff39a61zvP7vr8J3tr6CI2XdmdN8jQyfoUn5/1eEfr+MoEGztnvWXOhfcnTBgcCwPlTGH2Pc4EA3Dfu6Ghbdx10J78cq5lohao9NDbyjhb7bxNIeWO093wd3E6wc/SJaciEbp1gs3314k4Rt6Ouc91trlrdtoNb06xzPlzhZ4pPEc033o1KWN9G5WxOz+bY9tZYDOFWWNPJItJ1rwJnXIcjMfNm/B44spG+XUoFUBOAFQT1mVnQ6gj3KVxGXv7mgvsmUGL7KPRy0I65pkCNl9D72ttq7bts7vYTBuA1r173ktkha/jtpCfMMlFqEhQ+pzctoCk2yPhd6l36/TBx4NHXCMuKYxrex2Ic8fruwi91NMkaA/DezqN6wgVS/q1Km/3d61mLZ8b53IrNGZdW78fpdJH7fKFbc7TnezN0Uvt/k/mhDZXYbse+Wxx88Mb7/BY/L7Rm9wEQ36SZkbijs6QQNWBIRoFVKhQ3rpd2NmB0u8HDbGtW7fFVRRQTc+L+/RytS+/GzTIcubI7hZFGY0YdcNyxiMTxx+v5XrgwAGrUrmStW/f1j77/Cvbu3evA78Chzpcx3owF/qOOIqICgbuO66aLeyOF3OscbjuW7ob444ElTpfv8l97zt0yYDXqF7VWrZsbl9+9Y1jVcWw6jr6z9eeVeknNUzYs2efM8b+Or6WqYtH4bz4naJC1xF9F2Ju9bs/NzUY5AConnym+jjIdheUtO/+1sxy5chi701YaXe+N8MysxN2GyMWwREPt3Nerk7PjLXMuVUhg7dFRrpc6gUL5Aq5GxVkSBasK6tEbE/nJqVt8F0tiOcaYls277VMebie3OuycL5agS4kN620VPG23jrpWjJKDtyGraKSFzDS+flvN3UZncXlfn6xdqELujb3z8u99rKL79W8nH3wl4ZW/eEfbKvOEQjhedx1MF6g1wAAIABJREFUxTToHD2H/g2r4R7MXwe9z0OSz37YLAGg0L08yyHgo++yWT7ksUeMgY8N9AxGaDon+xMA1WSIjsXwK3SufY1z8SRmctnZC5dvtyy8o6MHjlqdSufEAdWJ8zaGNl3SP87LRvmkbCj5/t1qoMFGyFciYKM24akOtm7HAbvmxfEWy+LvXqx0VPrqNymOwVL4CLoUqbdyEcutycdteLRgo1t5YZH383fFITtm118nTv8Ij2AOCj8eRUcnPtHBFsA63fHuj5aFOXeEhd7pu58Duq7GxPxw14q4jq6fnzmxG7Dt5oDmWhh8xFITFANseQvmdiEwcfPBz79U2HQFQDVhXXZEwZ6DdnGrivbN35raTkBro6fH2AoIg0yqj633iwLMf+5CW7pxt/V7daKZmiZoU6bfpAP+w6Y7DojCzF7WsYq9ddUFVpzE2yNcV+A3FlvmPgKE/r3q/evv0qPI72STw8c5vdU88YHkArwan7+3xqLrSI/1pwgO0PEt3arZsxfVsvL3DbW96HAm5oXTN+kmx2bm35qr6ka3RTZU80n2mXXI3cuHnGkczisXuqMbj7+OvtB8k87rO52bapurDMqoyv3dskVzOxxz2DGsAwcPcwrlgVvvnt1dxuOgoUMBqjnc3wWkip97ruXNl8f27dtvW7ds5fwYB9py58rlgGqdurVdY4Ldu3c7MFggf373+++/73TnC1Dky5fPgcYdO3bEgcH8fOeO4xzP6ubKnYvuC0UtB0B51649gOmtcQypzi9QIL+7bpHC51juPLldxy49V4sWzezrb/rDqB52ADVPnjx0firg3P0C5vny5XW/+VjVQgUL2nbGkjdvXitapLD7fgvPdigiJliANA/3KMy9ciCPzZu30sb2gJ0DQ6sx6z4pBasBUD35gu8MpXb0DUvZe9c3tJeHL7Y3rqhnV5Pg8rnqtLJ46/fRj3Vw62/7p0ZbVgyeurBcjyF89uJarlxLLhbi/4xfYS8SGnCYxe7u7tXdTjo/xlNM1Nw1v1u/N6bYA73Ot7bVi1qP1yej+6pnm8n+C5CsSkH7ji9PJP4WQ8P13r6hkStfdDMdi5y9RMdfZFx9aSt6gGQyxUrf99V8GzB9jTNg5c7NZ5/d0sS+pLvR3zpUcokabWmIULtMQRjVJlbloR9sC4yqWKx/39jIzi9ZwPr+a6pt5TnGPdTWPpi4wj4ducxKlingGNj/Atb7Nixt1Urmt3wY5HeQxZPfLXAGUURHTsDom1fXtx51SwBkj9riDbvtP+NW2GO9aljff0+ztQBzD06SAbfcKQFQTZrkHNkC6BtJws56Fmqx5bVLFbS6j/0ADiXGHn2rU+Ecm/tUZ2sL4JxIRyG30aIW8fvoYKOKhV2CjMDCjTQhmLNkG3Yrj32LPjTgvH3o9VaYyscHLrBBczbYzCc72EvMl2+mrHbhBQ0qF7GP0K03xiy190ctc9/VJKTmQ767/+t5NnHBJgcsG1UvZv+9vhEbLhESZjNWbLe/wiaJBdUC/hg1c2ucl89WbNlrN7etZB9OXmkPf/qTTYZ5Ut3ZO5ibx5iMNWmz+y2by/fQ3TfQzb7tK9vt/NcFMLOPRf8+5mYjxj32l81uLuZAZ7exgbz2/en284odoTAXwEPr2iXsvWsb0HI6s9O5fwz5xWqWLOjIg3s+ZP7BSMcBkqS9krijA6CasOAcUYA7/zLCk1QCSa2DxZx2e2mCCVIelYKgEzN598s27bGrX4dNZ/NyBF3MzGajSaXCVppwlnXb99tM3OdHsEXyGlWATb26TUUX9nTNf2fab9v32a/rd1sl7Jn2zss27nGeBBnXCnRh0gZtKeBYXjSBwQrYUyUT6TgBwFiajxRmg1YfncuH3izdtNsWYtNV+1iXyY2NVOvnpdzjAo45hzGOpCXyNe0ruVCbag9SJYFnU5jZuXR+qlgsj83m/Bi+K00Hvh3opXIucnHtKiXy2c9rf+eYvFa7dCHbjsdvNs+2jw1j3AaQ65RgbtZkfhdgEzpt+VbbAYNb9bz8ziuotSWlYDXDMqoCYpUrVXS1OkeNGWddOnWwFatW2fjxk118p4DrRb17hoDqkKGOyRQw7NyxvZUqVdIBs4IFCjgWduz4ibj6t1ujBg2sbt1ayDwz54eA3rAfRlqLZk2sUqVK9nX/7wAGh921Lr24twOPn8N6HgjHkl5yUW/A6C43HoHZc88tZh07tCNWlt08cbS63+Kly2zKlGkOSJ5brJgJTK/7bb2VKl0SBncftWZ/wGAXsdatW9o3337nwG1BAGqfXt3dmEeOGuPGd81Vl9vMWXNs5uw5dl6J4u5Z16xZa0WLFnGztAD32rhpsw1n/AKoAqEaT+eOHSxnrhy2by+uWRR/9arVVqNGNfum//e2k+tLRin5BED11EC1I724vyWzsey9Q+z2jpXtgS7VrDLGxe1yWbBGkXWeOXOsdYBRlWW6rWtVexug9tyQRTadLlnlMSov9qsDwFsBGzvTqlUoZDdgJG/C9X4/8aFLAXITWTA71YO5vb0ZRd7H2sKl2+wcYkRXv9LdGb9mz461H4mPzU2f5eUvd7PXRy61l1iAs/Hbl3c0s+aVi9qjxB1uYkytahSzB7tWtyvfmW5fjF1m1SoVsQXPdrb1/PYmQGHl1n02Zv5Ga0P4wec3Nwk9y/qd9hp/v4ExdWIhmEEdxNz5snP/HvY8LuJ/fvOzVahc2H5+posLfXhx+BJbrlAIgPXD3WrYRbhcvwcICxh/DEBoV60YrrpfbD0AuCXg48omZV2P6PMfHWHLaanoGIcUrPABUE3arHdAFZA5Btf+8q177d5P59jq13valzPWOpdpLAt4HVyNc5/qZO1fGm/jf1pv58CYT6Tz12F0/HVKZe2Hzbm4aRnrXvs8q//kKFvNQt2hdnF7qV9d27Bzv70zconNZxOyEmZzBHNiHwzVJf+c5LwO915U214GbAyZu956oysCgTcR9/0i3W2kf9sBIA3Rk/FsjIbO22BfEmqSGzB9H7qVHVTQ+h/jIRn22ets0u5kE/jVjDU2ATCt+0lXJz/e3hZt2GO3vjbZygOKpwOURy3cbLd8MNP2AXJvY3P43MW1rQxzeA/Xeeaq+vYoNSAH0D3pezZ0h1DGh3vUdOt3c1i7AwCDGgDZ6QD7QYS+DEBO+WBj+zUtZ20Y53cAjWvZzIXc0ClQZEd4BTGqCWmzT9i5ks31U31q2lXYzpH3trK3xi63//vsJxAgjD/gc/azXWBU99hVb06C6c9mRWDHv7qjubXGBolprQJAm7J0q12HJ2wltudpOoDdhR0XEfA7AG7Cki12HSD332zmdU69J0bZIfQzP0TEr89f6PraV31wmO0Ix8Auer6rTVq6xf76/izKOcZaC+ztp2zYBAq34T2rBJB9e8wyux+y4ADVZ5pTQm8k4QmjFm6kqkNJ+3XDLmsH8dCdTdDzl9ayGoSM7dq236pAHExA36Yu32Z/eftHy8FzrGeO3syG6FPsbT3m2qRH2qGz661pxSKQAsesIiTGSK7bF6Jjr8Au8mhRs7hjoPOx2duMp+wI+jmG9eXqZmWtGt6zjQD3TCmMd83QQLVihQouRvULwKJAX1fCAAYP/cHWrlvHbjWz9erZLcyoDndMtmJWxW4OHsqOA+AoF313MtNV91PxoAJZYlSbAUy/H0hJor17XIJAkSLncK3uNmLUWFsFGC5e/FwHMMWejh473pYuW25FCxe2iy/qZRMmTbHFtIhVHOklF/ey9es32qTJUx1QPOecQgDKXvbzggXuOwHHSy/u4wDlGK5zFEB5gMSvKpUrWitc/5998bUb08V9etpOAPDwH0Y5I5abcIRLLr3I5hKXO3fefCtWrKgJJO+AmR01eqwLFxBD26d3D5sxc5bNmjPX8gCWL73kItu8ZQv3nuLiZgozZgH8zEyc/t8NIoxgd4oTswKgemqg2oGi8t/8tak1hDFd8dtuW/BiV3b2e63nixPd+x71aFs21pmsHYt3buLj5hGz+gqlhd77aLZBm5qR0dsDQyvw2uSZMbZ+1Q5r07QsZT2aWbn7htlugIORXZ+HhXn9P3vYIwDQt7/92fqR+HIfi7kY0MHz1tsTMKjtmpWzgXc2t06vTLTpgIm2AMBxD7S2xiyuMzFgzrUJkPwQw3gBjFVdDFNZduHLGPPfPvnJ3gPMGoBRTEQfejX/j/jC4ncOsvtglR4mKaw98VIzft3CeLLj7cpkizHKSq55a8AvVrpcIVv6UlcA8QJ7jc4zOkZu4TkY018B21czpgZ1z3OLe9dXJ9lIgDmUq3OXvs8Ccy1jr/zQcAdwAkb15HoXP+s/NZKp4hjVR9vbVliYq9mM9GxXyb5nA9b2xXE2cdZvVr9WCZv5eAcXozpuGs0Gutewp0hSqvD3wXYMBtO5xdHF8S93tZ+IB72PBVQs/HDA7Do2JLe+PMFii+YzEK3dzXmPAQRL/n2IC+f6Fp3Ny+ZEiVyd0Y11sEv9723tmNPOsPuK9x56XxvHPrUn4SlW7kpct+VgxeY908nu+3q+ffD9Qnvj9hbWp0FJq8S8OcQ9BVb0mQbAnsam8Fnmzjx0fRZzrO+rk52rM5br3Nipij3JmKo9PNyFvTyD2/dmWLVK9w+1PTBq8lQ0b1zWJj7cxho8Mcbm/brZvrinpdWAPb2AewEBnK6Xq8Kmj/n99cx1dhNgIjPzLaWVwwKgmvBcCLn+D9nlbOr/eWU9K0OYVE/CsL4GFMrezQEsxrKmz+LdL9+8x658Y7Id49/DHmxj5WA4u2GPNuGxKoSdmvBoO1sASO1Ha1ftRm4E/D5Ocl0DbPo2NjIxvNuGVYvZqPtaOe/VHMBfvRrFbcJD7Xjzsdb7X1NsAnNEm/4fmSMXs0kZN2stZR3PcXGk3/D3B7+Yj8oehTUtDKBsa098/4u98NU8qwdQncL9R/2yyW6Bwd3Lxm8f4/oLYPkZmP0ydw+2InguZjzZ0Sajw9eSt3CUexblGeYDwu8l9vur0cutRjViyJ/oSHLVNrvy7ekwrQftAgDrZMDrrR/Ptv/9sMQKwqT+TLz2EDZXj3wJUGY8jRjzQEJ+VBGn3hOjbYuS0hJbIeEkZipDA9VKFStam9YtXHzqls3bAKodrcR5JewrGgsohtXFqCLYAQMHOZayR4+uzqW/YsVKx3LqmHIUpu8E6zlkGDuDjZuterUq1oprfvPNAMdwZmWnoDjOKy7rawsXLbLJsKGtCTcQcynW9ADX+GHkaKtXp441bdLIBsLebtm8xWrXOt+aNW3smhzoOtnZmcnNLtb2/Fo17PMvv7GChBRcekkfx9quWrWGMeVwyVQag84dCHhu36Y1MbUxrquXC8pnsmXLktUuI5lKCWRz5s6D3i/qrjN6TAg0q9rBgQMHrS/f7SHOVtevXbOGY2n7DxgIU7zNsc4aT+NGDaxhw/rEw/YHqO4JgGp4IvlY5NQsT+Vd/x0BqnKRN4XVXLpsuzXA8MzCqFwPW/MRAf7jXrzQAda2gMLGGNKhd7eA8Vlnm1kQsxJrpIX6XGph3t6+SsitCjvTqw1uyxsbWr3/G2Vrt4SA2zEW1P4sjnLdX4Qh/gCwuRNm52cYqhsJvG8J8/QEbsh+uPjrPzbCDgA4HoKRupxkAxluFy7AAn/E7eJL2FgAbCkYpJzMiV+e62IdX5pksxdvtqwY7oMsAH3YYb97XShZSkxqs2fH2I8wrVkLEOfNzjwnwHnJC13tFdi0f/VfaOUq4hoGNFyKkR5PDGNWXFgxXGcwbfR27T9iVxHzeHvf2nZv56rWiAVgBwtAZj0/z9ACmQ0HrNZ+bKStBNQqMSslRFTAqCaDUcX1P4rmCBt27bfr3/mRmOhY+5QFTOx32bsHWbXSBW0+jHmHl8bZePT3w7+3ssa4/D/FvZ4dACmwe/jgUbuC2ol7cDU2e3yk07eRD7S130gIvPGtqZaZjclhmNu6MPwjAaK93pxsi9mYzGG+9PvPj/Ya7Ou/YJv6/7jaNr59kT0+YIH9lxCBvIXzuBai77G5+ReeiCxs3OSdiCEmdjSL8zbYrCuYf/9hftQkNKX1k4TZEEN7BKB8jPk1lsVaYSaV8F5spERSh6fwbgBSlTSlhMib8ILIzVqVjdIe2KsX/9LA2tUsZo0fGUm4jmJ0Y6w2oHjM/a2t08uTbM6KbbYQ3R/IZvBxgEIWxTAyIsUzDkPf9zBXr3hlkoG+A0YVufyhPFUqZP17oHoFG6qXL6uNTWGTD9gcSE5AFZjEC/DOHBKj+o8utgygegWbr8pVijqwqSTVn37eYLH5IAoAhZ1blCOMqoG1eG68rWUTc02XKiSz1rFqj6APuNa1CVM8/YqXutuTbIjeYTP+3M2NnTcsL3bwl9922kPvzrBbAZYPda9mzf4xzn5bvdNu613D/q9Hdav4wA/YY2KcFcuK3Xvy6guw02XsfDZCdSoVtSmPtbOWeMp+WrQZnUGXYHJvvrAq16puHV+cYN9AWqzbfgBmlLAv9F4bo8LMJbG3f/9irn1JuMz5MPnT8Rx0Qe+mQFzEopMiAWZTmWU6+noXz3xdTzpF4b2rxfrwG3ZWoSkiSp66pr7d1amy814oH0HzIiV+gAwPVFu3am4DBw2FTfzdchMPenm/vrZ6zRobMXKM9YN1VIeZb/sPsGrVqjpAuhsw5mIxw4lV2akGoDjRITCxywGw59es7hKZvsUVrmQqucIVC9qmVQsHTr/GHS82VSyoKgMI6H359bfu2nmID/1+4GAXi9K6ZUsrUrSwu64vKSV3f5kypagv2tWxwJlhfS8hhGDo8BG2YcNGF8d6kHtVhdVtzf10X8WiilmVW15xpXLj689+fS92QHU2QLUEbPJFsK6jRo/j2de66yj0QeP0QLUV4LoiyWcC9THEHar3s6+c0LlTe/v2u4EuJjelNW4DRvXUjKqA6tdiVFkcV2AQxfQ8AkB89iLYJtgW7fZVZqTV/cPswtYVXKcOuXf2sYCyVLodueQspuxBXOgz52+w7i3L26cYQgG3dVwzKy58LYL9AIxvXlUPV9NwAEAbexs310RcUzNgrcTofnJTY4Lrd9ldxOIp/ulN/l0Pl1EbQKJi610gPcarGe4f7eLlat/NeBe/cKF1g2GaiPHWwnwEYNmtUSkbAhiRe0xG8Z+4bp/DQGcRS8RCk5OFfskL3UJA9buFVrZ8IZvPonAlTNIwGKUsAIWjGNwRMKjbAawCqg8DpFVSpYncp4oJcwkAR6wdhcwHAuADoHpqgHk6GdVRxFOvB8j9hdasApmFWOyUjDKCsJIXhi2yJfy9PUzUeN7vYNjXRpQwWyr95D367GEB1lkrd7CA/uQY1dEPAlRhaf6CSz+TgJuSR9D1WYSbDITln06c6bvoRRWSRj66tYkDeZ8AVEegew2UHLN6B16v/DbnqY52D6Dw28nEtaJ7srexLP7D0C95kbqwqXuLBV2eguaPj7JY4kZdwi33+oFNmdqP/oL7PzfxpheymK9Ar7MCHI7EB6q4Pl+4rr51xvVaH7erEgfVwrQ+jNoYrtPuhQk2b/XvtuwVQmxGLbV3hi22YwpVUdgiOj0cxm4XoP8KmOEAqIb0+XQD1ZcAX42eHm0biEUtUSyfs2fvTVphD/6XeOnXursY1csAghfDnH+MTVyJB+CgNu4oq5qBFAGwloNtbMw1ZmF/r8OD9A9CQWpiH3/HdrlEJuzmB7C1JWH9u6GXY57uDOGwFrIghnCTytYKXfmWdy81uIQ5Inv7PgRGSZjPHq9Ncsy6+t1rY9QNj1l/QqBK4o0oxSZsMpubZoSGqTRaZtl6Nl7XAxxfZh1RHkPJQrmt6J0DKV+537H0x2A/ixB68wvz0QPV2iRWTXqkDYTDRJtNKIOSVZUANoV5M4s41XvfmmbP3dLUWlO9o90L48Gw6jKJbkMUdIfMUDx4dZ5hK3M1AKoJ2GEt0gJ9nlH97vvBjg0UAC1Nyaqe3S90LnC58RVPKnBZrWpVwgRa26JfFzsmUQIXBaNyVlK839atJ1FpO8fBqAISPVAVcBOgK1+uHIxkC+d+79C+jU2dNh3wuMvFho4mJrVVy2b2y6LFNv9nkkD4CBgWK1bEhSJEAlUVwr+wS2cHbqWEYkIFVNev3+BKaAmcKva2E+Dx5wW/uMQoAZMhhCv4qgXZsmWHUQ0BVceohl3/AqqrVq+JA6p9evVwQFXXb9m8mUvSElD13cH0XLpXu3atSdwaEADVCF073YyqgKp29MsBoFlgKI/CpI8FPGaVYQrVIrF2GL2aGBOxMn3enGrTlZAi93h44XZZzyrefPgYhqO0Sy6pi5tzA8YpE4vlUWL5ShXPa8NZwD9nIVdcZxdi/Db9ftCmsiMfDIt5M0D4cpip6eqljSG+RbtyskdrPTqSeUKSIQvqYXbQndnNf0/sajHc+gLRYlS7vjrFJgFUszGmGEBxT4zpVwCHyg8Mt1okSg2/p7VdAdP2FclSCiGQ63/pi8eBajli9uYBPq4AqA4HyIhRlcEVUN0mdzLMQK92FR1LewFAYj1MWg7CDA4BDP7Wu6a9eeUFVgkAvgoAETCqaeP6F1DdAFC9/t9T2ZDw/mDfG7OpmQRLpTI4WpC7onNjcf2/fUcL4u3yWmfCVWJ9VQfpss/oVxazgCpxpasJhbkN8EtAtbPRx/bE2DOwStWJD9yNXsbgKbuVJMEbeteyPsR8K8GlHDHYXfEwKPkpK/o/A0Z1GOz+E5TOykqWvQCvFv1JsPhLNpE8BWP2H1j5OmVCQFWMqZt6jGcyWf8bYYquBKCOe7aTc6U24hhtFuWpkOv/aTKsHaPKvV+k7FonYrQFVKWLYlRVnmu0GFUBgcVbiOftYKuI576Z+L9sgJEYVbiAeVtM3OLslb/bNXyvah3qHJSST+D6/3PXf4hRrWP1iR3dpOokbHwFvAbhDeiKK/+hblVJKjpsfQGXF3cmm58Qq3dIXt2BjfMbrBhs5QFiOIdh/zYSvnVNp0r2ArV1z4d5lOdHntgjbIouhih4/tLa1gfvQP+/NiMudobtZRMj70BfbOMnxEg/Q1LsFxNXuhjR/97aFCAaD6gyp3oR5qQEVsVElwaoToHxb45HYAGAUkSA7ObV7Svahzc0JrRqiXUgznUDz9ZbMd3gJRfqh+2MZFRrwaiKme1EaIILz2ItUUzqj4QezIBRvfetH+1ZQHpbjlOy7EHWG7HSAqpXkbj1Ogm3VUmcDYDqSWZrfKA6gHhSMY4CpQKhiu8USFU3rJ27dtugwUNcHGefXj1tzLhx9ssvix37KmCbHXZSgNEX+ncJWi7j/jsXxyrGVcAud+7cdiExrnv37bN8MKeDcMvr/Au7dHKguQRxq2JPFUuqa1UH8DYn0evLr79zINq7/uvXq2cNG9W3jz/53CVXKa41DqjChB44eBiwXMkB3Y8+/YLY0px2OWEHcun7mqmKre2L618xqgKqxWFUdZ2EgKoY5BEkYJUnxEGlvARUHSjmuRX60JkY1apVKweu/3i6djqAqi9P1Z6F9QsAnXbEKwCqmVm0jwEqy5fI72L6FAM1YPZv1vf1SZaD3fIcwNwyFtY+xHu6uD4WyssAlHVxrcqtdBAjpWsO/3tLK3fvUNtIhqdRjsdV8UNHBwJUm5MQMhtWpys7dTGkrwH+LqcWpAL6m3NdV/IKYyZ37UJA6O1kRr/DtV3sJ0Z3PAu3uhtpQa9YqoDNxvXag4SBKQtw2TtGNcYB1fepZlAd47Ud1uyfMLx3s6CLzV0KC5YbA/wzz6JWnm8TbyVGdTZG8WqStEYQr+UZ1aGwBVsZz18w7nkpDbSYONbRMHR/JR5rP6CoCnFUYqFK8lsNssxXwXoFQPXMAlV3N/RoOIB0A+70m3iHKoGjBM1jLKxPs4g9RjJRDItb51cn2ARc/72JDRxATGjL58faVDYmLqsY5v0/Vzew/rPX2VhtxPiMAqjuVl1e4t9ipccK60DnlUQy+M4WbuN+N+7Lz2EnKxBKMPzuVlaMzOvXAcZP831WwG0Mev02C3s3WM56j/xgO0iu0sauNZu1sXgWrnp3un09EmYf8FwHnW/NpjFW99EA8DgpCWUeTQr+DgAvR9jBbOIWpYOXw3qKCb2BcBTFJNbk2nsppfXctfWtw/nnWhNY2hCjSvwe8adK1unxzyk2g4SuW9hcvYVcOsKeTWR+x/L4LilMiZFUE7gVV7CLUQ2A6mlnVAVUG+DRUiJQFm3q0Ze3bm1sveqWdETBlGVb7Ro2KTUAaZOwR13wHs0iuTNW8fiqlsLGxfV4DW9srgO4PU0oiCqeHCRrPzMlnpSYVRJX/0A2+Gu3HbAShGupxqm8mUMAxfIaNSHesykhUpsV58kaIPf9U+hJRTb7+yEIxHLK1f4A472dONgKdEmswzlKEmwB47tgFUA1zKjeCKh+mtyFMrcPsnKEsyzCjr9BndgHP5lNcmNWB1QX/uNC52WQ61+M6mTyIRxQZSOViXuJeRVQldfiPuZ0p+aQD7c1cwlhqwDFsXL9A9g/YwPWvU6JUIWXgFH9E+MLG6hkKsWoCqh6t7UrT4Ui9OrRzYHTpctWOMZTLkxlvCuBaSiZ9fuIG5UbsSWgNHeu3C6OU2xmGbLve3LuMJjT9euJ2wjXv1NJKLn3KwFkl5C5P2HiZFcmqknjhtag/gW2YeMm+2HEqLiaqbmU8HRJb9u0SclLSqY64pKp5Pb/lWSrCROnUCaLrH8SnoaFXf8Cs4pRrVqlkgPLYnXF2lYDSHaiWsE44mt//nmhK5d16aV9HKP6E8lUilH1QFWuf11HY5PrX0B1HFUNshLX2gOmOT/nauw7dvxulStXIJa2lmP0vhswKGBUzwSjCqPTFYA4DPBYjUm+ZB2gUjXutOvFAFzTobJzNY0j9qg9BgwltYZkx8sdugGDMJGdb3lKjLQlMP9jMpn/RkIUlSHcO83qAAAUeklEQVRxRWW3mSymeTCQX8BePUQSyGFYJ8Uu3UGc0ZskezxEQtWLAp/Mke6MYcjdLV2XqBvZ2ctIyQWrOpN3wqi+eFldQgS22mriXdtg0ApgDGXQFpBBWh2gGIpRpZD7T79ZNox2DM/Vt3VFl5hQkmD+jQCDzMydIRjUhiRNNQF0rCW2a9c7Fzlw/dIX81zW//KXu9tFMEkDp60GYBDagvH+EfeUWidexEKhdaALIPwr2AgxGrsx2jHM2x+p13kFz6CQgOWKnQrXzkwuExXEqCZNcj7rfybvah16eYlqTordF4pDv7SpmQzYa0j5nA4vj0dPCBHBLmuDdF2L8jaGDc4OmJl26Na5xDB3RremsFiK1f8rSX9isX4ELDw79FcbQSa9wF8O3vEyGHklUJWgqcQmNbZAQSbjiWhBLGFdYlzns8C6jR/XKUgYwihAaXnK8wwFGCpmsCPA9XPmx+0kixwjLvZjAENjmP0abPA0fseoslgvZHOkgv/XopvH2Bw2l5uU0AUlAj78wSz7W59aLnav8O0DbQ8s6Vt/bULjg5IAiUGuAoXa8TbmnGnIoCXxh9MWbSL0JZu9z9zuQYOE5cwrNfJYgjdALuQ1zBeVQzLX4CNp7yL+0QGjmrD8fHkqJVOpaori3qVDylgXk58HRn0qulSLjYtK5N1OOJQ2SUOI7a8IW9+TChAbsD+50eP38F7pen2J4zyAXepMeb1hEAXtqHAxmwSm/bxEEQWZ0KX+97SyXujGvwm7uhsC4Bh2+UW8A/eQ2DqCeXDRG1Mpbx2q4aryUXNJrhtENYsHPp/nkpcaVChiw+5pYa9RmeUpqhM0IElxFGNq+RzVXAhzkb4rZOoGXP9PkOCneNJd6JPWkv/d2NguwTMxaPxKK1Yqv80l/MAnU4lRnUiSVhc2TjPlUVMtYzwGUyEhfoRRffDjOc5LMgH2tjB6eduHs13ial/yG/4OAaF47gueGOkqAQTJVAnonC/4X6VyZWvfrhWllQY6RtW3PRVIU2a+XN/rcOkPGTbcFevPAlgT2CxTprRjPvNSXkrgdCJZ8CrtpJ2O1KtjuzaumUBkeSdds2qVyq7clMpZKbNfH3XHEgCcMWu2zZw52zGVblPO8UUBkJ06ErsKG7sfplcA81e6Sak8ldzuqkAgMDuI+q+/UaIqlOB0yBX8V+LT51985ZKidKxiYRurWxUhAJsBv9defYUrTTVrzk9Wgrqwiln9YQQxjytXueuI5VVFgV3EnTqgTgiDnrc5FQ1KlSzpXBNK4Fqzdi1VDhrbAMInBIqD8lQhhTsdjKpb3JWgASN5JSDrrTHLqefIJA/3E1esktDig8Q7bSED839jV7Bbxo2IEaqI8byX3bZckIdghkaTRfoJtUQdyFXcEAzO+Sy4d2CcFLP3OEBVxfO1kJ8LKyVm81MW6EViW1l4zyVe6S7K8qiczmyMVCa5fTjWRcACVmV4L2OMqtmqMlSvEW+6Xpna6I3iTxVI/yGxf3K7K8FJ7EENYv1Ue1X1YVUHUwxWAditx6l3Ogy2bBzlfR4BNE8AkEyjzmUhGFaN6wvK+SwhTtZf5wZcc3vYsH3DeF3ZE2RUiJjD60m6Kcq9P5+8ytUgnAHLq1CHoDzVnwOb0xGjGjJyR+0GmCS54vuLbfKF7RV/yvuvTTzq5bDs79GGdBUeAecNQCevpV5pe+I/lZSnEI+XiVleBXuZyTW3CC3Yt6LHzWEkvyamT/HL0k8lOV3C9SpSG/IlSpy5upIA0h7EfNdiTr0w7NfjXYDCscw5uaZKq1WHYTqIjo4HMH4yCf1Rowhct73Q15LMj//AxrIAhBhV9PY2aqQqiWrQdNYF51rF/UoCTQvYrMcGLLTzuV8XXP0a+2Hmp2ojV6WM0JvME1cLU3GCjFMl495nM/ibY3RVqJ34auaW4l/V6vLfnP8VsdbaqPYjRCCWpC8xxin5BEA1YemFylMdtGsIR3mDjbvKOG1UhQY1nJDOsrloSak0sZVfUq7sWsKttAFW3PVXsKLtIQeWbdplZXmvCgu5iTJsY39RfWDWVjZmKmF1IeeP4ruebDrkTVCc6nXo8ge4+FVGbSi6rNrQXdE7NWi547O59i720nKHykLK29WE2ObPCA0T+aDyVBWIof0X+nkfVQBi8Lg2YQM0hU1TA6rCzAdQupAbjruVdUNhBqWpjCH7q/Jxz5L0dD/rRguY3CVs6De+0ctuBSx/TkZ/HTwUqk/cht+mQYxkyklpNOzuXJL+phKzehckiMJoyhOu8xp5E0qSVH3gL/GOTGUT+QybtTpsDl0XwqA8VcJKJ/e6QKEK2O/eHU6QYrJ7gKHfCxUKFVIW2+q7RAnkCiCq4L9CA7Zt2+6SpuTidzZK3Z9QvMJUCRALu4VyTt4TIyBboEBB58oXENVHwC4/LVeV2S9w6DtB+YL/OXHdq+KAL/ivOFgZJf0uYC3wKtZT4QX6TrEk6qKl4v+qyerbB+p5ioQL+eteKvB/4OABB2Rd4wCuo3hUPZNrG8igNS49/z7CFfSRq1+uucKUzsrCOWo+UBagfWFXyqMQ6hBk/R/XtdMBVOM6kah7jjrkEJMZAqlCxgKp4fvLDa+FVvGoYvQ5xnU50TnqBBIusJzJdbNyqPp4lxF1dXKdn9RdJHxtxbKqZp9K73jmUd9hyFyHKF3T0zhh3ZTRdvfRteTqYiyKe3X3QxdD12N8rkOUEC7jVayhOk85t1j4YXRdgXGVuVJcop5NsYganxZuAIAbVxjkuOtoXDqfY7ToNgOwLAfobFAR9/DzP4Jb914ybSvDSu+Q20znp+ATMKpJFJ7XV/+u9H79d14fpTfSWelxuHuU26xJB5zxRHfUGYf379z70hUdoI/0Qh/pa2QXH+mX9FJlyrzeRX7nH8PNG+yg1zFdJ5w57rq2+eN0ru7r5lrEHPTPJd0UO6Y5qDmhZ5L7N9xhKzSHGbMfg3Tfj8vPMV2b5yoBIK5JEfixgF8vg2wA3iWUv1Koz/2U53LJYynDqUEd1T9TZWxXQTYDxQvmpATVXlhBX6w+LHT+qcYjAnrr2Fy4JCG9c/5UI4qyMJ7byepXkfwdhHw4u6YPNl1VTWoR7ywNVtF8/x7lCVAt1FVb99h+qlzogFzodAUA72pKCe5TxyvpkNdZmP6CjK8unijVvF5Gwf8lNJ9wG0GdC/MpL8FKxq/Nl++nfQ5zohi6qRqwSkZzc43nUSMWhVKpGYxivLVB2sX80ngrEJqwess+17XNj0ENCPRv1dB2D6PmGDxDaeQioLoCr0VXuhAqebcylWm2k/MQ1xwgiWbEH57usv7FDqY0szwSjAqIiR1MqKOSb10qIOfPkToeAWR6WyJgqd8FBPXxnaciz43sM63vfetRHe/boPrv4u7DDTw4Fvj135+shaq/bwiskuCVwHMJHOuaupfawCq21gPjyHFFtnnV9ULPmMUaN2xgmwGnCh9w48Wt3Lt3dxd/25+sf91Xx6bkk2Gz/om7SykYcnINh5JkgV2S6yROEcO/ybr4gH3X6tZZm9CiKzAVMkChxVxJgKHF9cRjQqRU+NphnVbnqSNYTgcGQoru2l4qHiuu73RogO7/pQehy4Y6vR1lrJE9y3W9uO8i78+xcc+VwH3k/tUz+HsmdB1tCN3zyfiHyxVVwPX2MUzqGlx11YjlletJDNqjxCS6bNVIkJEMBfbxw81hySZTXF6y1Vgzwic+o5qFRVBYL8UfhB73ruKXDwrrjVgs6YPTHaktf/hznG6hO9LVyD7nkXNAx0T2Rde5uowDGOGP7KBUUPp9svl04rxxu7vQWPy5kePnnnr3bh5pjoX12x0rEpfn0Veaj/6emiN6ljjgEzHP9Wzqtd4F5lfu4eGUbBtFEk4ObHJ3scHnFXAZ6CtcCEuo8kBKPiKuVS90CGEH3aiO4daSKNPlP2T9a3OfwrXphA1EuK1o3MYo0n540KbNjQeP0i19749T2UrFInt7KgPiGPMQEHWbcb/p0jG+5WnkBj7yOw9IwvNGoStu46/7cc4fWqjqN40vDHDdvaTD8Z9LiuTJC+mA7ulboPpExvjXESmi6yLvAjC9qmYwhjrAg/DwxaqFFvZWlQGkqa2Jk43xa1AKlDaksyTk4jUbQJUbvf9sKdDZTBiOJO33PGgS0/fp5186N3ZKgapbTiMW7Pj/Ptlv8b/3co38PqFj/CNHguGTfRf/mIQA9J+dm9DYQ+t9hPGKmFSJeVZ/v2ZNm7iwAjHIu/fsdUyv3ExK0lq9OhTbmhoftW1VdYMeNFNIDfCbGmNK6jW8zFRHtcgdg2GvYV7CLeySeq1UOd4bsuNK+8e2dZHHxD8+qYNIzP2Ses3kHI/hLQBT8OxFNYlnLO6yvQV+3iXm6m3cYa4Pd0oXMMYVYlQPWTNXTLtDeKOYMYCqWkWKCXkFF+MD78+wrMo416KaVp/E6FZq6bJfrrz9TOm8SLbMBFaOWacLzrMne9a0/CrFBq5QIsrtbLaWKCTH9XpPMU51OOQI7NlggGp3JQcxZ0RURNNHmxfNyY10KCt9z9BwJRQme8owfNxGxm1M3X5FG6jwRcN/99gvtLkKkQD602PMEN4IYZDIc7VGu8PDv8e5YsPnxt0vtKB7IvTEMYQv7q/l39kpz40Y40mP5WLxn/sPcggDc7eP4+/ZOeBfJApeC4O6BuZ1LV3Y6hMzexig3I9k10mq45rCroB6xqza5MHc9mhZluoyLdIGqGogHqj60kjRNGkywlg9S1ua9rHFixdzFRL2UdVg3brfXD1YhT6cDMgn5fk1wdQEQUC1Z/euUQ1UXa1SJmQl3MvrVERfO7zIDUNSBBMcm3QJ+IVAK7pcq6zAriYgi7BjExQ+ELGQJP0Gx88QJFV8WBs6YY2l4PzR2KPcIroW95M9v5LqxE68TwmcW5Q459p0pkRawblJkkAk+BRbJVevOsyJ3dIGGJ1Wz/gTgE+SbhBxsPOGKDHzkA0njrEzHgJ5TVLCTiV3KCk5zzHgXEAua5Wg2+NCMUK97oPPGZSAbC+b2o5k+Dcg5lwJZ5vYXA2kisV6qq0YneBOCNlJ5tA8o9qbRK1vic/V+8+egs1VshlVub+/+36QA0Uht2Kgccl8p0k+LRKAitEWaPUhBgKoPvQhtd5JqD5rJZdIpnulBoOe5IdO4QleRtLSbtRr/EEJHQJJkXF0KbxHcHoiJOCZgnDctYyiS3qUSzg+I5KIyyV4iHe3AVRvpuzQf2AQ9J6jzV16sseXO1rPMolGD+1pS3qUDlIOpwY2OLkak/TzIhgv2Vm540NhWaG8hMiwmqRfPPIMAB4vV3GRUwGqFxDnqHv5cIuUXfvMne09cYcgClpRw3M2uqvau6kBis7cU0T5nSIZY8Vn+7VP4QU+ZyE11sMI+3sv3oYXaVogC5US+5tkoOoXfL2ycRMm2q+/LnFJUJqYqcHgRbkqnLHhe1nHB6Op8R7iv0cBVVUXqFe3TlQzqmIiNFk+nbrariFj07U9DHuCztiLC250XAJhz1/Sgo9OLUAXH86GSovgeEqxtCG7VfG3iiPOCB8fR6fOMh0AqtNJSlMpMD1j8EkbCXgXcQoT/P8weBf7rhafTcraADLVFQcrLRYgjqZPaCPKHITUep4SZY99NNuywEKrZ31qz/9okkuajFXx2IqT5eaSfag7V+j9pMZH+Req6KGN8zSadKjNsi6teyb3k2Sg6oGQWNQtW7fQ7nSYy3CX69l77ZI7mOC85EnAvf5UBFyR71GVDwoWLGB96NiVO1eucDJO9MX6RYZiS143UkPuA0rJxAWwJ0/0wVnpUQLhJJzHqa34JHUIBVil06nlYUj7RyaZR0w0NvgnYiF7ULN0g0qNKeEj+GQsCZDwU5Ys78FqL1waNlUeLbfgJ3/RTwsBOdwQvrFagl5NM4TvJ9O9SSE/gScgLV7J6bunwgvQ0VeoLft3PFp6974yUnJvmmSgqhtFJg8tW77cpk6d7uIjfWZ9cgcTnJeeJEC2Orv3c845xzVhKFG8+AnvPT2NNClj8WyUdo8fwax+xn/LKAsSZXY/KY989hwbjuerScmWWygC3qd+KQfotK5nHJAaYkGU4uEWAMDqckDqG2y6RtM8Yg/hDq6M09nz1jPckzqmC70tSGmrTrTOvIeGCaVJmDvuzQwl+UTjJ1SeUQn3x+ydCSvsS+r1/kZZqDhGOhofKhhzSAIYHVV9qU4Vl5tpld2bpgghxjbl9jfJQNW7hf0OSUhZ9TqVZa66n8GCnwG01iU/ZnJMaoXy5eJCO6J5sY/cXAUhKhlARxPxCBn1nUfqrxb+aHMDJ+LVBYfEk0Dke45G+5VR52KgqCeXgE+giyzVmVx5JRmoOuCsDL7wli4aJ01yhXW2npeR3vfxCiWh5J3U2O2drXqRXp/bJ2b5d5sRbVTkM4k1ds7gVGAu0us7PRvHFQqzCz25a/oSWnyj2jvg7a9ATGqxbWejbqTXZ/Y6Grm2pob9TRZQ9WA1UliRkyq9CjEYV9IkkNDCF82saqTe+l1e0iQSHB1NEkiNnXx6ft5I71Z6HmcwtpRJINJWBfY3ZbIMzj5zEkhN+5tsoHrmHje4UyCBQAKBBAIJBBIIJBBIIJDA2SiBAKiejW89eOZAAoEEAgkEEggkEEggkEAUSCAAqlHwkoIhBhIIJBBIIJBAIIFAAoEEzkYJBED1bHzrwTMHEggkEEggkEAggUACgQSiQAIBUI2ClxQMMZBAIIFAAoEEAgkEEggkcDZKIACqZ+NbD545kEAggUACgQQCCQQSCCQQBRIIgGoUvKRgiIEEAgkEEggkEEggkEAggbNRAgFQPRvfevDMgQQCCQQSCCQQSCCQQCCBKJBAAFSj4CUFQwwkEEggkEAggUACgQQCCZyNEgiA6tn41oNnDiQQSCCQQCCBQAKBBAIJRIEEAqAaBS8pGGIggUACgQQCCQQSCCQQSOBslEAAVM/Gtx48cyCBQAKBBAIJBBIIJBBIIAok8P+UUQDHwdQ59wAAAABJRU5ErkJggg==;" vertex="1" parent="1">
          <mxGeometry x="150" y="600" width="682" height="400" as="geometry" />
        </mxCell>
        <mxCell id="_PTKki71gtKEzDjIChdN-28" value="" style="shape=curlyBracket;whiteSpace=wrap;html=1;rounded=1;flipH=1;labelPosition=right;verticalLabelPosition=middle;align=left;verticalAlign=middle;strokeColor=#000000;fontSize=10;fillColor=#000000;rotation=-180;" vertex="1" parent="1">
          <mxGeometry x="110" y="660" width="50" height="310" as="geometry" />
        </mxCell>
        <mxCell id="_PTKki71gtKEzDjIChdN-29" value="&lt;font style=&quot;font-size: 18px;&quot;&gt;&lt;b&gt;Diskominfo Kabupaten Sampang&lt;/b&gt;&lt;/font&gt;" style="shape=note;whiteSpace=wrap;html=1;backgroundOutline=1;fontColor=#000000;darkOpacity=0.05;fillColor=#FFF9B2;strokeColor=none;fillStyle=solid;direction=west;gradientDirection=north;gradientColor=#FFF2A1;shadow=1;size=20;pointerEvents=1;fontSize=10;rotation=-90;" vertex="1" parent="1">
          <mxGeometry x="-40" y="792.5" width="252.5" height="45" as="geometry" />
        </mxCell>
        <mxCell id="_PTKki71gtKEzDjIChdN-34" value="dd" style="strokeColor=#dddddd;shadow=1;strokeWidth=1;rounded=1;absoluteArcSize=1;arcSize=2;fontSize=18;fillColor=#000000;" vertex="1" parent="1">
          <mxGeometry x="180" y="410" width="150" height="60" as="geometry" />
        </mxCell>
        <mxCell id="_PTKki71gtKEzDjIChdN-35" value="&lt;font color=&quot;#000000&quot;&gt;Name&lt;/font&gt;&lt;br&gt;Container-&#xa;Optimized OS" style="editableCssRules=.*;html=1;fontColor=#999999;shape=image;verticalLabelPosition=middle;labelBackgroundColor=#ffffff;verticalAlign=middle;labelPosition=right;align=left;spacingLeft=20;part=1;points=[];imageAspect=0;image=data:image/svg+xml,PHN2ZyB4bWxucz0iaHR0cDovL3d3dy53My5vcmcvMjAwMC9zdmciIHhtbG5zOnY9Imh0dHBzOi8vdmVjdGEuaW8vbmFubyIgd2lkdGg9IjIwIiBoZWlnaHQ9IjIwIiB2aWV3Qm94PSIwIDAgMjAgMjAiPiYjeGE7CTxzdHlsZSB0eXBlPSJ0ZXh0L2NzcyI+JiN4YTsJLnN0MHtmaWxsOiM0Mjg1ZjQ7fSYjeGE7CTwvc3R5bGU+JiN4YTsJPHBhdGggY2xhc3M9InN0MCIgZD0iTTEwIDBhMTAgMTAgMCAxIDAgMTAgMTBoMEExMCAxMCAwIDAgMCAxMCAwem0wIDE4YTggOCAwIDAgMS00LjE4LTEuMThsMy41OC0yLjA3aDB2LTQuNUw1LjUxIDh2NC41MmwyLjc1IDEuNTktMy40NiAyQTggOCAwIDAgMSA2LjA4IDN2NGgwTDEwIDkuMjggMTMuOSA3IDEwIDQuNzcgNy4yNCA2LjM2VjIuNDdhOCA4IDAgMCAxIDEwLjMxIDQuNyA4LjEgOC4xIDAgMCAxIC41MSAyLjgzdi4wN0wxNC40NiA4aDBsLTMuOSAyLjI2djQuNTFsMy45LTIuMjVWOS4zNGwzLjQ1IDJBOCA4IDAgMCAxIDEwIDE4eiIvPiYjeGE7PC9zdmc+;strokeColor=#000000;fontSize=18;fillColor=#000000;" vertex="1" parent="_PTKki71gtKEzDjIChdN-34">
          <mxGeometry width="30" height="30" relative="1" as="geometry">
            <mxPoint x="15" y="15" as="offset" />
          </mxGeometry>
        </mxCell>
        <mxCell id="_PTKki71gtKEzDjIChdN-36" value="" style="strokeColor=#dddddd;shadow=1;strokeWidth=1;rounded=1;absoluteArcSize=1;arcSize=2;fontSize=18;fillColor=#000000;" vertex="1" parent="1">
          <mxGeometry x="20" y="470" width="150" height="60" as="geometry" />
        </mxCell>
        <mxCell id="_PTKki71gtKEzDjIChdN-37" value="&lt;font color=&quot;#000000&quot;&gt;Name&lt;/font&gt;&lt;br&gt;Container-&#xa;Optimized OS" style="editableCssRules=.*;html=1;fontColor=#999999;shape=image;verticalLabelPosition=middle;labelBackgroundColor=#ffffff;verticalAlign=middle;labelPosition=right;align=left;spacingLeft=20;part=1;points=[];imageAspect=0;image=data:image/svg+xml,PHN2ZyB4bWxucz0iaHR0cDovL3d3dy53My5vcmcvMjAwMC9zdmciIHhtbG5zOnY9Imh0dHBzOi8vdmVjdGEuaW8vbmFubyIgd2lkdGg9IjIwIiBoZWlnaHQ9IjIwIiB2aWV3Qm94PSIwIDAgMjAgMjAiPiYjeGE7CTxzdHlsZSB0eXBlPSJ0ZXh0L2NzcyI+JiN4YTsJLnN0MHtmaWxsOiM0Mjg1ZjQ7fSYjeGE7CTwvc3R5bGU+JiN4YTsJPHBhdGggY2xhc3M9InN0MCIgZD0iTTEwIDBhMTAgMTAgMCAxIDAgMTAgMTBoMEExMCAxMCAwIDAgMCAxMCAwem0wIDE4YTggOCAwIDAgMS00LjE4LTEuMThsMy41OC0yLjA3aDB2LTQuNUw1LjUxIDh2NC41MmwyLjc1IDEuNTktMy40NiAyQTggOCAwIDAgMSA2LjA4IDN2NGgwTDEwIDkuMjggMTMuOSA3IDEwIDQuNzcgNy4yNCA2LjM2VjIuNDdhOCA4IDAgMCAxIDEwLjMxIDQuNyA4LjEgOC4xIDAgMCAxIC41MSAyLjgzdi4wN0wxNC40NiA4aDBsLTMuOSAyLjI2djQuNTFsMy45LTIuMjVWOS4zNGwzLjQ1IDJBOCA4IDAgMCAxIDEwIDE4eiIvPiYjeGE7PC9zdmc+;strokeColor=#000000;fontSize=18;fillColor=#000000;" vertex="1" parent="_PTKki71gtKEzDjIChdN-36">
          <mxGeometry width="30" height="30" relative="1" as="geometry">
            <mxPoint x="15" y="15" as="offset" />
          </mxGeometry>
        </mxCell>
        <mxCell id="_PTKki71gtKEzDjIChdN-38" value="" style="group" vertex="1" connectable="0" parent="1">
          <mxGeometry x="120" y="180" width="140" height="180" as="geometry" />
        </mxCell>
        <mxCell id="_PTKki71gtKEzDjIChdN-11" value="" style="fontColor=#0066CC;verticalAlign=top;verticalLabelPosition=bottom;labelPosition=center;align=center;html=1;outlineConnect=0;fillColor=#CCCCCC;strokeColor=#000000;gradientColor=none;gradientDirection=north;strokeWidth=2;shape=mxgraph.networks.server;" vertex="1" parent="_PTKki71gtKEzDjIChdN-38">
          <mxGeometry y="80" width="140" height="100" as="geometry" />
        </mxCell>
        <mxCell id="_PTKki71gtKEzDjIChdN-12" value="" style="fontColor=#0066CC;verticalAlign=top;verticalLabelPosition=bottom;labelPosition=center;align=center;html=1;outlineConnect=0;fillColor=#CCCCCC;strokeColor=#000000;gradientColor=none;gradientDirection=north;strokeWidth=2;shape=mxgraph.networks.server;" vertex="1" parent="_PTKki71gtKEzDjIChdN-38">
          <mxGeometry width="140" height="110" as="geometry" />
        </mxCell>
      </root>
    </mxGraphModel>
  </diagram>
</mxfile>
